M48
; DRILL file {KiCad 8.0.7} date 2026-09-19T18:31:24+0300
; FORMAT={-:-/ absolute / inch / decimal}
; #@! TF.CreationDate,2026-09-19T18:31:24+03:00
; #@! TF.GenerationSoftware,Kicad,Pcbnew,8.0.7
; #@! TF.FileFunction,Plated,1,2,PTH
FMAT,2
INCH
; #@! TA.AperFunction,Plated,PTH,ViaDrill
T1C0.0197
; #@! TA.AperFunction,Plated,PTH,ComponentDrill
T2C0.0512
%
G90
G05
T1
X3.5087Y-5.565
X3.5102Y-5.5209
X3.5169Y-5.0933
X3.5185Y-5.0492
X3.5726Y-5.565
X3.5741Y-5.5209
X3.5808Y-5.0933
X3.5824Y-5.0492
X3.6315Y-5.6602
X3.6331Y-5.6161
X3.6365Y-5.565
X3.6381Y-5.5209
X3.6448Y-5.0933
X3.6463Y-5.0492
X3.6514Y-4.989
X3.653Y-4.9449
X3.6954Y-5.6602
X3.697Y-5.6161
X3.7004Y-5.565
X3.702Y-5.5209
X3.7087Y-5.0933
X3.7102Y-5.0492
X3.7154Y-4.989
X3.7169Y-4.9449
X3.7736Y-4.8598
X3.7744Y-4.9008
X3.7823Y-5.7157
X3.7843Y-5.7492
X3.8375Y-4.8598
X3.8383Y-4.9008
X3.8462Y-5.7157
X3.8482Y-5.7492
X3.8732Y-5.0197
X3.9014Y-4.8598
X3.9022Y-4.9008
X3.9101Y-5.7157
X3.9121Y-5.7492
X3.9217Y-5.6224
X3.9654Y-4.8598
X3.9661Y-4.9008
X3.974Y-5.7157
X3.976Y-5.7492
X4.0293Y-4.8598
X4.0301Y-4.9008
X4.0379Y-5.7157
X4.0399Y-5.7492
X4.0417Y-5.5772
X4.0575Y-5.0689
X4.0614Y-5.0008
X4.085Y-5.6205
X4.0866Y-5.5201
X4.0932Y-4.8598
X4.094Y-4.9008
X4.1018Y-5.7157
X4.1038Y-5.7492
X4.1303Y-5.4882
X4.1311Y-5.5409
X4.1398Y-5.0689
X4.1437Y-5.0173
X4.1571Y-4.8598
X4.1579Y-4.9008
X4.1657Y-5.7157
X4.1677Y-5.7492
X4.1685Y-4.989
X4.1724Y-4.9374
X4.2031Y-4.9106
X4.2037Y-5.0689
X4.2071Y-4.8591
X4.2076Y-5.0173
X4.2102Y-5.1083
X4.2324Y-4.989
X4.2364Y-4.9374
X4.2671Y-4.9106
X4.2676Y-5.0689
X4.271Y-4.8591
X4.2715Y-5.0173
X4.2783Y-5.1272
X4.7335Y-5.2118
X4.9374Y-5.2146
X4.9374Y-5.2787
X5.0528Y-4.9768
X5.0598Y-5.1228
X5.0638Y-5.063
X5.0728Y-5.652
X5.0839Y-5.7382
X5.113Y-5.274
X5.1167Y-4.9768
X5.12Y-5.2198
X5.1238Y-5.1228
X5.1245Y-5.1753
X5.1277Y-5.063
X5.1367Y-5.652
X5.1478Y-5.7382
X5.1708Y-5.218
X5.177Y-5.2626
X5.1806Y-4.9768
X5.1859Y-5.1771
X5.1877Y-5.1228
X5.1916Y-5.063
X5.2007Y-5.652
X5.2117Y-5.7382
X5.2331Y-5.2715
X5.2445Y-4.9768
X5.2516Y-5.1228
X5.2555Y-5.063
X5.2646Y-5.652
X5.2756Y-5.7382
X5.3084Y-4.9768
X5.3155Y-5.1228
X5.3194Y-5.063
X5.3285Y-5.652
X5.3395Y-5.7382
X5.3723Y-4.9768
X5.3794Y-5.1228
X5.3833Y-5.063
X5.3924Y-5.652
X5.3925Y-5.2011
X5.3934Y-5.259
X5.4034Y-5.7382
X5.4362Y-4.9768
X5.4423Y-5.1958
X5.4433Y-5.1228
X5.4472Y-5.063
X5.453Y-5.2483
X5.4563Y-5.652
X5.4673Y-5.7382
T2
X5.303Y-5.2112
X5.303Y-5.4112
M30
