%TF.GenerationSoftware,KiCad,Pcbnew,8.0.7*%
%TF.CreationDate,2026-09-19T18:29:20+03:00*%
%TF.ProjectId,DC_DC_Power_Supply_5V_3.3V,44435f44-435f-4506-9f77-65725f537570,rev?*%
%TF.SameCoordinates,Original*%
%TF.FileFunction,Copper,L1,Top*%
%TF.FilePolarity,Positive*%
%FSLAX46Y46*%
G04 Gerber Fmt 4.6, Leading zero omitted, Abs format (unit mm)*
G04 Created by KiCad (PCBNEW 8.0.7) date 2026-09-19 18:29:20*
%MOMM*%
%LPD*%
G01*
G04 APERTURE LIST*
G04 Aperture macros list*
%AMRoundRect*
0 Rectangle with rounded corners*
0 $1 Rounding radius*
0 $2 $3 $4 $5 $6 $7 $8 $9 X,Y pos of 4 corners*
0 Add a 4 corners polygon primitive as box body*
4,1,4,$2,$3,$4,$5,$6,$7,$8,$9,$2,$3,0*
0 Add four circle primitives for the rounded corners*
1,1,$1+$1,$2,$3*
1,1,$1+$1,$4,$5*
1,1,$1+$1,$6,$7*
1,1,$1+$1,$8,$9*
0 Add four rect primitives between the rounded corners*
20,1,$1+$1,$2,$3,$4,$5,0*
20,1,$1+$1,$4,$5,$6,$7,0*
20,1,$1+$1,$6,$7,$8,$9,0*
20,1,$1+$1,$8,$9,$2,$3,0*%
G04 Aperture macros list end*
%TA.AperFunction,SMDPad,CuDef*%
%ADD10RoundRect,0.140000X-0.170000X0.140000X-0.170000X-0.140000X0.170000X-0.140000X0.170000X0.140000X0*%
%TD*%
%TA.AperFunction,SMDPad,CuDef*%
%ADD11RoundRect,0.250000X0.550000X-1.500000X0.550000X1.500000X-0.550000X1.500000X-0.550000X-1.500000X0*%
%TD*%
%TA.AperFunction,SMDPad,CuDef*%
%ADD12RoundRect,0.250000X-0.550000X1.500000X-0.550000X-1.500000X0.550000X-1.500000X0.550000X1.500000X0*%
%TD*%
%TA.AperFunction,SMDPad,CuDef*%
%ADD13RoundRect,0.140000X0.170000X-0.140000X0.170000X0.140000X-0.170000X0.140000X-0.170000X-0.140000X0*%
%TD*%
%TA.AperFunction,ComponentPad*%
%ADD14R,2.600000X2.600000*%
%TD*%
%TA.AperFunction,ComponentPad*%
%ADD15C,2.600000*%
%TD*%
%TA.AperFunction,SMDPad,CuDef*%
%ADD16R,1.380000X0.450000*%
%TD*%
%TA.AperFunction,SMDPad,CuDef*%
%ADD17R,1.300000X1.650000*%
%TD*%
%TA.AperFunction,SMDPad,CuDef*%
%ADD18R,1.550000X1.425000*%
%TD*%
%TA.AperFunction,SMDPad,CuDef*%
%ADD19R,1.900000X1.800000*%
%TD*%
%TA.AperFunction,SMDPad,CuDef*%
%ADD20R,1.900000X1.000000*%
%TD*%
%TA.AperFunction,SMDPad,CuDef*%
%ADD21RoundRect,0.250000X-0.850000X-0.350000X0.850000X-0.350000X0.850000X0.350000X-0.850000X0.350000X0*%
%TD*%
%TA.AperFunction,SMDPad,CuDef*%
%ADD22RoundRect,0.250000X-1.275000X-1.125000X1.275000X-1.125000X1.275000X1.125000X-1.275000X1.125000X0*%
%TD*%
%TA.AperFunction,SMDPad,CuDef*%
%ADD23RoundRect,0.249997X-2.950003X-2.650003X2.950003X-2.650003X2.950003X2.650003X-2.950003X2.650003X0*%
%TD*%
%TA.AperFunction,ViaPad*%
%ADD24C,0.800000*%
%TD*%
G04 APERTURE END LIST*
D10*
%TO.P,C3,1*%
%TO.N,+5V*%
X105290000Y-137230000D03*
%TO.P,C3,2*%
%TO.N,GND*%
X105290000Y-138190000D03*
%TD*%
D11*
%TO.P,C5,1*%
%TO.N,+3.3V*%
X122880000Y-137600000D03*
%TO.P,C5,2*%
%TO.N,GND*%
X122880000Y-132200000D03*
%TD*%
D12*
%TO.P,C4,1*%
%TO.N,+5V*%
X100910000Y-137310000D03*
%TO.P,C4,2*%
%TO.N,GND*%
X100910000Y-142710000D03*
%TD*%
D13*
%TO.P,C2,1*%
%TO.N,+3.3V*%
X105470000Y-130770000D03*
%TO.P,C2,2*%
%TO.N,GND*%
X105470000Y-129810000D03*
%TD*%
D11*
%TO.P,C1,1*%
%TO.N,+3.3V*%
X100830000Y-132430000D03*
%TO.P,C1,2*%
%TO.N,GND*%
X100830000Y-127030000D03*
%TD*%
D14*
%TO.P,J1,1,Pin_1*%
%TO.N,+3.3V*%
X134695000Y-137445000D03*
D15*
%TO.P,J1,2,Pin_2*%
%TO.N,GND*%
X134695000Y-132365000D03*
%TD*%
D16*
%TO.P,J2,1,VBUS*%
%TO.N,+5V*%
X93960000Y-133600000D03*
%TO.P,J2,2,D-*%
%TO.N,unconnected-(J2-D--Pad2)*%
X93960000Y-134250000D03*
%TO.P,J2,3,D+*%
%TO.N,unconnected-(J2-D+-Pad3)*%
X93960000Y-134900000D03*
%TO.P,J2,4,ID*%
%TO.N,unconnected-(J2-ID-Pad4)*%
X93960000Y-135550000D03*
%TO.P,J2,5,GND*%
%TO.N,GND*%
X93960000Y-136200000D03*
D17*
%TO.P,J2,6,Shield*%
X91300000Y-131525000D03*
D18*
X93875000Y-132412500D03*
D19*
X91300000Y-133750000D03*
D20*
X91300000Y-136450000D03*
D18*
X93875000Y-137387500D03*
D17*
X91300000Y-138275000D03*
%TD*%
D21*
%TO.P,U2,1,GND*%
%TO.N,GND*%
X107750000Y-131540000D03*
%TO.P,U2,2,VO*%
%TO.N,+3.3V*%
X107750000Y-133820000D03*
D22*
X112375000Y-132295000D03*
X112375000Y-135345000D03*
D23*
X114050000Y-133820000D03*
D22*
X115725000Y-132295000D03*
X115725000Y-135345000D03*
D21*
%TO.P,U2,3,VI*%
%TO.N,+5V*%
X107750000Y-136100000D03*
%TD*%
D24*
%TO.N,GND*%
X105860000Y-146030000D03*
X136991301Y-133578772D03*
X130161369Y-131452899D03*
X93863335Y-143770000D03*
X103800000Y-140210000D03*
X138235162Y-131973059D03*
X90783333Y-140230000D03*
X102363332Y-124480000D03*
X92786665Y-125600000D03*
X95850000Y-123440000D03*
X107503335Y-126720000D03*
X94029999Y-140230000D03*
X93903335Y-142650000D03*
X96120000Y-146030000D03*
X104910000Y-139400000D03*
X100939999Y-145180000D03*
X105610000Y-124480000D03*
X131766666Y-130120000D03*
X93989999Y-141350000D03*
X130143333Y-130120000D03*
X136968685Y-132108753D03*
X131721850Y-131498130D03*
X104186665Y-145180000D03*
X106773333Y-128750000D03*
X135113332Y-128600000D03*
X130243333Y-128600000D03*
X99610000Y-142810000D03*
X94370000Y-126720000D03*
X130753333Y-145750000D03*
X138870000Y-145750000D03*
X105810000Y-145180000D03*
X120230000Y-132380000D03*
X100989999Y-146030000D03*
X97693333Y-145180000D03*
X131586666Y-126410000D03*
X89370000Y-128250000D03*
X128340000Y-126410000D03*
X133719999Y-143560000D03*
X89160000Y-140230000D03*
X135013332Y-130120000D03*
X133489999Y-128600000D03*
X108483333Y-123420000D03*
X108383333Y-124730000D03*
X135623332Y-145750000D03*
X108496666Y-127440000D03*
X99366666Y-146030000D03*
X131495694Y-133669234D03*
X103966665Y-123440000D03*
X96070000Y-145180000D03*
X89120000Y-141350000D03*
X99116666Y-124480000D03*
X102563332Y-145180000D03*
X129963333Y-126410000D03*
X92746665Y-126720000D03*
X137246665Y-145750000D03*
X125410000Y-132450000D03*
X99316666Y-145180000D03*
X136636665Y-130120000D03*
X106940000Y-129750000D03*
X136736665Y-128600000D03*
X102660000Y-141660000D03*
X138080000Y-126410000D03*
X128850000Y-143560000D03*
X106760000Y-124730000D03*
X136966665Y-143560000D03*
X129130000Y-145750000D03*
X104236665Y-146030000D03*
X132096666Y-143560000D03*
X130048291Y-132583682D03*
X131337384Y-132538451D03*
X138590000Y-143560000D03*
X90953333Y-129370000D03*
X94410000Y-125600000D03*
X103986665Y-124480000D03*
X108396666Y-128750000D03*
X108670000Y-130230000D03*
X129870000Y-133960000D03*
X94199999Y-129370000D03*
X134833332Y-126410000D03*
X103760000Y-142760000D03*
X133999999Y-145750000D03*
X103160000Y-127020000D03*
X136456665Y-126410000D03*
X138506550Y-133307384D03*
X92576666Y-129370000D03*
X98380000Y-127500000D03*
X99096666Y-123440000D03*
X105590000Y-123440000D03*
X92366666Y-141350000D03*
X128520000Y-130120000D03*
X89330000Y-129370000D03*
X106860000Y-123420000D03*
X131866666Y-128600000D03*
X103060000Y-128750000D03*
X92240000Y-143770000D03*
X90743333Y-141350000D03*
X94239999Y-128250000D03*
X133389999Y-130120000D03*
X105250000Y-127440000D03*
X97493333Y-124480000D03*
X92280000Y-142650000D03*
X100719999Y-123440000D03*
X97743333Y-146030000D03*
X105980000Y-125410000D03*
X106873333Y-127440000D03*
X97473333Y-123440000D03*
X128620000Y-128600000D03*
X132376666Y-145750000D03*
X90993333Y-128250000D03*
X138360000Y-128600000D03*
X138260000Y-130120000D03*
X102343332Y-123440000D03*
X107603335Y-125410000D03*
X92406666Y-140230000D03*
X105150000Y-128750000D03*
X133209999Y-126410000D03*
X104930000Y-140740000D03*
X132920481Y-133895391D03*
X105880000Y-126720000D03*
X125410000Y-134080000D03*
X102613332Y-146030000D03*
X95870000Y-124480000D03*
X100739999Y-124480000D03*
X92616666Y-128250000D03*
X135343332Y-143560000D03*
X130473333Y-143560000D03*
%TD*%
%TA.AperFunction,Conductor*%
%TO.N,+3.3V*%
G36*
X118522693Y-125802134D02*
G01*
X118570646Y-125852950D01*
X118584072Y-125905166D01*
X118839999Y-133769999D01*
X118840000Y-133770000D01*
X125730000Y-135250000D01*
X125730004Y-135249999D01*
X125730006Y-135250000D01*
X134855325Y-134931011D01*
X139611168Y-134764764D01*
X139678854Y-134782094D01*
X139726426Y-134833267D01*
X139739500Y-134888688D01*
X139739500Y-138884757D01*
X139739498Y-138885445D01*
X139720680Y-142277392D01*
X139700624Y-142344321D01*
X139647567Y-142389782D01*
X139597392Y-142400702D01*
X113658349Y-142549264D01*
X113591198Y-142529964D01*
X113545142Y-142477423D01*
X113533690Y-142421703D01*
X113740000Y-135250000D01*
X111043419Y-134888688D01*
X97563984Y-133082592D01*
X97500152Y-133054178D01*
X97461815Y-132995766D01*
X97457528Y-132975999D01*
X97413014Y-132640499D01*
X96951985Y-129165701D01*
X96962681Y-129096656D01*
X97009009Y-129044354D01*
X97076259Y-129025400D01*
X97094946Y-129027023D01*
X101630000Y-129770000D01*
X101630430Y-129770072D01*
X104702409Y-130284450D01*
X104765277Y-130314935D01*
X104788658Y-130343618D01*
X104789876Y-130345678D01*
X104789887Y-130345692D01*
X104904307Y-130460112D01*
X104904311Y-130460115D01*
X104904313Y-130460117D01*
X105043605Y-130542494D01*
X105079453Y-130552909D01*
X105199002Y-130587642D01*
X105199005Y-130587642D01*
X105199007Y-130587643D01*
X105235310Y-130590500D01*
X105235318Y-130590500D01*
X105704682Y-130590500D01*
X105704690Y-130590500D01*
X105740993Y-130587643D01*
X105740995Y-130587642D01*
X105740997Y-130587642D01*
X105781975Y-130575736D01*
X105896395Y-130542494D01*
X105963140Y-130503020D01*
X106020628Y-130485880D01*
X106026394Y-130485618D01*
X106094258Y-130502238D01*
X106142364Y-130552909D01*
X106155885Y-130603592D01*
X106173359Y-130970558D01*
X106167206Y-131015458D01*
X106160001Y-131037202D01*
X106149500Y-131139983D01*
X106149500Y-131940001D01*
X106149501Y-131940019D01*
X106160000Y-132042796D01*
X106160001Y-132042799D01*
X106215185Y-132209331D01*
X106215189Y-132209340D01*
X106216984Y-132212249D01*
X106217848Y-132215042D01*
X106218240Y-132215882D01*
X106218125Y-132215935D01*
X106235307Y-132271450D01*
X106240000Y-132370000D01*
X106272855Y-132371187D01*
X106339139Y-132393279D01*
X106356057Y-132407425D01*
X106431344Y-132482712D01*
X106580666Y-132574814D01*
X106747203Y-132629999D01*
X106849991Y-132640500D01*
X108650008Y-132640499D01*
X108752797Y-132629999D01*
X108919334Y-132574814D01*
X109052695Y-132492556D01*
X109120086Y-132474117D01*
X109122107Y-132474172D01*
X109560000Y-132490000D01*
X109969533Y-126876398D01*
X109971125Y-126863682D01*
X110082560Y-126237927D01*
X110113693Y-126175379D01*
X110173701Y-126139591D01*
X110199379Y-126135781D01*
X118454881Y-125785311D01*
X118522693Y-125802134D01*
G37*
%TD.AperFunction*%
%TD*%
%TA.AperFunction,Conductor*%
%TO.N,+5V*%
G36*
X96680576Y-133329743D02*
G01*
X96718415Y-133336187D01*
X99230000Y-134180000D01*
X99518982Y-134214826D01*
X99583184Y-134242390D01*
X99609683Y-134272838D01*
X99687288Y-134398656D01*
X99811344Y-134522712D01*
X99960666Y-134614814D01*
X100127203Y-134669999D01*
X100229991Y-134680500D01*
X101430008Y-134680499D01*
X101532797Y-134669999D01*
X101699334Y-134614814D01*
X101848549Y-134522777D01*
X101915941Y-134504338D01*
X101928481Y-134505207D01*
X110078788Y-135487443D01*
X110119129Y-135499506D01*
X110280687Y-135579794D01*
X110331959Y-135627256D01*
X110349500Y-135690837D01*
X110349500Y-136520019D01*
X110360001Y-136622801D01*
X110415184Y-136789333D01*
X110415189Y-136789344D01*
X110507285Y-136938653D01*
X110507288Y-136938657D01*
X110631342Y-137062711D01*
X110631346Y-137062714D01*
X110780655Y-137154810D01*
X110780658Y-137154811D01*
X110780664Y-137154815D01*
X110947200Y-137209999D01*
X111049988Y-137220500D01*
X111049991Y-137220500D01*
X112448832Y-137220500D01*
X112515871Y-137240185D01*
X112561626Y-137292989D01*
X112572831Y-137343940D01*
X112579994Y-138928725D01*
X112579978Y-138931323D01*
X112522054Y-142455045D01*
X112501270Y-142521752D01*
X112447722Y-142566633D01*
X112395066Y-142576971D01*
X106040476Y-142422920D01*
X105973933Y-142401616D01*
X105929471Y-142347719D01*
X105919482Y-142299491D01*
X105904648Y-138843046D01*
X105924044Y-138775928D01*
X105940957Y-138754846D01*
X105970117Y-138725687D01*
X106052494Y-138586395D01*
X106097643Y-138430993D01*
X106100500Y-138394690D01*
X106100500Y-137985310D01*
X106097643Y-137949007D01*
X106052494Y-137793605D01*
X105970117Y-137654313D01*
X105970115Y-137654311D01*
X105970112Y-137654307D01*
X105855692Y-137539887D01*
X105855684Y-137539881D01*
X105716393Y-137457505D01*
X105716390Y-137457504D01*
X105560997Y-137412357D01*
X105560991Y-137412356D01*
X105524697Y-137409500D01*
X105524690Y-137409500D01*
X105055310Y-137409500D01*
X105055302Y-137409500D01*
X105019008Y-137412356D01*
X105019002Y-137412357D01*
X104863609Y-137457504D01*
X104863606Y-137457505D01*
X104724315Y-137539881D01*
X104724307Y-137539887D01*
X104609887Y-137654307D01*
X104609881Y-137654315D01*
X104527505Y-137793606D01*
X104527504Y-137793609D01*
X104482357Y-137949002D01*
X104482356Y-137949008D01*
X104479954Y-137979540D01*
X104455070Y-138044829D01*
X104422056Y-138074964D01*
X102198440Y-139464724D01*
X102180825Y-139473861D01*
X98460000Y-141039999D01*
X98497420Y-142826843D01*
X98479143Y-142894280D01*
X98427309Y-142941130D01*
X98376862Y-142953392D01*
X95004333Y-143046299D01*
X94936777Y-143028468D01*
X94889585Y-142976944D01*
X94877091Y-142915804D01*
X95260000Y-135670000D01*
X95126217Y-135627256D01*
X94786760Y-135518798D01*
X94728892Y-135479644D01*
X94701378Y-135415419D01*
X94700499Y-135400680D01*
X94700499Y-135320032D01*
X94700499Y-135320028D01*
X94697570Y-135305296D01*
X94697569Y-135305295D01*
X94697568Y-135305291D01*
X94689950Y-135293891D01*
X94669071Y-135227214D01*
X94687555Y-135159834D01*
X94689936Y-135156127D01*
X94697570Y-135144704D01*
X94700500Y-135129973D01*
X94700499Y-134670028D01*
X94697570Y-134655296D01*
X94697569Y-134655295D01*
X94697568Y-134655291D01*
X94689950Y-134643891D01*
X94669071Y-134577214D01*
X94687555Y-134509834D01*
X94689936Y-134506127D01*
X94697570Y-134494704D01*
X94700500Y-134479973D01*
X94700499Y-134020028D01*
X94697570Y-134005296D01*
X94697567Y-134005291D01*
X94686409Y-133988592D01*
X94669704Y-133977430D01*
X94669705Y-133977430D01*
X94666021Y-133976697D01*
X94654973Y-133974500D01*
X94654970Y-133974500D01*
X93265032Y-133974500D01*
X93265021Y-133974502D01*
X93250297Y-133977429D01*
X93250291Y-133977432D01*
X93233592Y-133988590D01*
X93222430Y-134005294D01*
X93220965Y-134012661D01*
X93219502Y-134020021D01*
X93219500Y-134020029D01*
X93219500Y-134479967D01*
X93219502Y-134479978D01*
X93222429Y-134494702D01*
X93222431Y-134494707D01*
X93230050Y-134506109D01*
X93250928Y-134572786D01*
X93232444Y-134640167D01*
X93230052Y-134643889D01*
X93222430Y-134655296D01*
X93219502Y-134670021D01*
X93219500Y-134670029D01*
X93219500Y-134848262D01*
X93199815Y-134915301D01*
X93147011Y-134961056D01*
X93077853Y-134971000D01*
X93057761Y-134966380D01*
X92939702Y-134928660D01*
X92881834Y-134889506D01*
X92854320Y-134825281D01*
X92853528Y-134805906D01*
X92906219Y-133400819D01*
X92928402Y-133334565D01*
X92982884Y-133290822D01*
X93031769Y-133281478D01*
X96680576Y-133329743D01*
G37*
%TD.AperFunction*%
%TD*%
%TA.AperFunction,Conductor*%
%TO.N,GND*%
G36*
X139682539Y-122840185D02*
G01*
X139728294Y-122892989D01*
X139739500Y-122944500D01*
X139739500Y-134137229D01*
X139719815Y-134204268D01*
X139667011Y-134250023D01*
X139602158Y-134260509D01*
X139593518Y-134259573D01*
X139593495Y-134259573D01*
X134837665Y-134425820D01*
X125790290Y-134742084D01*
X125759916Y-134739395D01*
X119427124Y-133379085D01*
X119365714Y-133345760D01*
X119332069Y-133284524D01*
X119329232Y-133261883D01*
X119326374Y-133174068D01*
X119089305Y-125888725D01*
X119073647Y-125779284D01*
X119060221Y-125727068D01*
X119021146Y-125623646D01*
X118938295Y-125506014D01*
X118890342Y-125455198D01*
X118890341Y-125455197D01*
X118890338Y-125455195D01*
X118890334Y-125455191D01*
X118777702Y-125365670D01*
X118644420Y-125311510D01*
X118644415Y-125311508D01*
X118644412Y-125311507D01*
X118644409Y-125311506D01*
X118576597Y-125294683D01*
X118552595Y-125292265D01*
X118433440Y-125280265D01*
X110177952Y-125630735D01*
X110177949Y-125630735D01*
X110125181Y-125635755D01*
X110099528Y-125639561D01*
X110047579Y-125650077D01*
X110047576Y-125650078D01*
X109914774Y-125705439D01*
X109854773Y-125741224D01*
X109854770Y-125741226D01*
X109742944Y-125831758D01*
X109661152Y-125950130D01*
X109661152Y-125950131D01*
X109630120Y-126012477D01*
X109630020Y-126012676D01*
X109630018Y-126012680D01*
X109584888Y-126149305D01*
X109473454Y-126775057D01*
X109469544Y-126800862D01*
X109467949Y-126813598D01*
X109465370Y-126839646D01*
X109098233Y-131872110D01*
X109073723Y-131937540D01*
X109017730Y-131979331D01*
X108989940Y-131986131D01*
X108986679Y-131986538D01*
X108986678Y-131986538D01*
X108925386Y-132003309D01*
X108923608Y-132003699D01*
X108919277Y-132004980D01*
X108787328Y-132062311D01*
X108787314Y-132062319D01*
X108716581Y-132105947D01*
X108690489Y-132118114D01*
X108659237Y-132128470D01*
X108632848Y-132134121D01*
X108631399Y-132134269D01*
X108630548Y-132134356D01*
X108617935Y-132134999D01*
X106882065Y-132134999D01*
X106869456Y-132134356D01*
X106867157Y-132134121D01*
X106840762Y-132128470D01*
X106809507Y-132118113D01*
X106783415Y-132105946D01*
X106759339Y-132091096D01*
X106736754Y-132073238D01*
X106713499Y-132049983D01*
X106710669Y-132047394D01*
X106676663Y-131994910D01*
X106661528Y-131949238D01*
X106655871Y-131922792D01*
X106655636Y-131920492D01*
X106655000Y-131907942D01*
X106655000Y-131172056D01*
X106655642Y-131159453D01*
X106658863Y-131127926D01*
X106661432Y-131112492D01*
X106668025Y-131084089D01*
X106674178Y-131039189D01*
X106678287Y-130946515D01*
X106660813Y-130579549D01*
X106644303Y-130473294D01*
X106630782Y-130422611D01*
X106592170Y-130322247D01*
X106581863Y-130307707D01*
X106508969Y-130204870D01*
X106500867Y-130196336D01*
X106460859Y-130154195D01*
X106347960Y-130065013D01*
X106303474Y-130047091D01*
X106214508Y-130011250D01*
X106214504Y-130011248D01*
X106214502Y-130011248D01*
X106174515Y-130001455D01*
X106146632Y-129994626D01*
X106003452Y-129980639D01*
X106003449Y-129980638D01*
X105997681Y-129980901D01*
X105876194Y-130001453D01*
X105876185Y-130001455D01*
X105859892Y-130006313D01*
X105790023Y-130006601D01*
X105789873Y-130006558D01*
X105740991Y-129992356D01*
X105704697Y-129989500D01*
X105704690Y-129989500D01*
X105235310Y-129989500D01*
X105235299Y-129989500D01*
X105216182Y-129991005D01*
X105147805Y-129976640D01*
X105116477Y-129952709D01*
X105105045Y-129940652D01*
X105105041Y-129940649D01*
X105105040Y-129940648D01*
X104985835Y-129860089D01*
X104985834Y-129860088D01*
X104922973Y-129829606D01*
X104886378Y-129817936D01*
X104785889Y-129785891D01*
X104785884Y-129785890D01*
X104785877Y-129785888D01*
X101713910Y-129271513D01*
X101713480Y-129271441D01*
X101713439Y-129271434D01*
X101711787Y-129271160D01*
X101473900Y-129232187D01*
X97176672Y-128528173D01*
X97159740Y-128526054D01*
X97138682Y-128523418D01*
X97120011Y-128521797D01*
X97120007Y-128521796D01*
X97119998Y-128521796D01*
X97081760Y-128519930D01*
X97081759Y-128519930D01*
X97019643Y-128528172D01*
X96939129Y-128538855D01*
X96939128Y-128538855D01*
X96939122Y-128538856D01*
X96871887Y-128557805D01*
X96871884Y-128557807D01*
X96740370Y-128616144D01*
X96740362Y-128616149D01*
X96630615Y-128709170D01*
X96630608Y-128709177D01*
X96586766Y-128758672D01*
X96585288Y-128760241D01*
X96584275Y-128761485D01*
X96505179Y-128881663D01*
X96463139Y-129019274D01*
X96463138Y-129019278D01*
X96452444Y-129088309D01*
X96452444Y-129088315D01*
X96450876Y-129232187D01*
X96561374Y-130065013D01*
X96910051Y-132693016D01*
X96899355Y-132762062D01*
X96853027Y-132814364D01*
X96785777Y-132833318D01*
X96767857Y-132831706D01*
X96767854Y-132831733D01*
X96767181Y-132831645D01*
X96766333Y-132831569D01*
X96765470Y-132831422D01*
X96765434Y-132831417D01*
X96687276Y-132824288D01*
X96687252Y-132824286D01*
X93038470Y-132776021D01*
X93038448Y-132776022D01*
X92936863Y-132784967D01*
X92887983Y-132794310D01*
X92887969Y-132794313D01*
X92790280Y-132823453D01*
X92790277Y-132823454D01*
X92666407Y-132896649D01*
X92666404Y-132896651D01*
X92612096Y-132940255D01*
X92611929Y-132940389D01*
X92611924Y-132940392D01*
X92611914Y-132940401D01*
X92513688Y-133045525D01*
X92449057Y-133174068D01*
X92449053Y-133174079D01*
X92426850Y-133240392D01*
X92426659Y-133241500D01*
X92401074Y-133381874D01*
X92401073Y-133381878D01*
X92348383Y-134786961D01*
X92348449Y-134826564D01*
X92349241Y-134845926D01*
X92352403Y-134885367D01*
X92352404Y-134885370D01*
X92389663Y-135024340D01*
X92417176Y-135088563D01*
X92417178Y-135088566D01*
X92492078Y-135211408D01*
X92492081Y-135211412D01*
X92598552Y-135308171D01*
X92598557Y-135308175D01*
X92655203Y-135346503D01*
X92656323Y-135347280D01*
X92656426Y-135347330D01*
X92656428Y-135347332D01*
X92785856Y-135410180D01*
X92903915Y-135447900D01*
X92931685Y-135455515D01*
X92944477Y-135459023D01*
X92964566Y-135463643D01*
X92978114Y-135466169D01*
X93005917Y-135471355D01*
X93095500Y-135471354D01*
X93162538Y-135491038D01*
X93208294Y-135543841D01*
X93219500Y-135595353D01*
X93219500Y-135779967D01*
X93219502Y-135779978D01*
X93222429Y-135794702D01*
X93222432Y-135794708D01*
X93233590Y-135811407D01*
X93250295Y-135822569D01*
X93250294Y-135822569D01*
X93250296Y-135822570D01*
X93265027Y-135825500D01*
X94317565Y-135825499D01*
X94384604Y-135845183D01*
X94400961Y-135857733D01*
X94445610Y-135898309D01*
X94445612Y-135898311D01*
X94502268Y-135936645D01*
X94503387Y-135937421D01*
X94503484Y-135937468D01*
X94503485Y-135937469D01*
X94564791Y-135967239D01*
X94632909Y-136000317D01*
X94643482Y-136003695D01*
X94701351Y-136042849D01*
X94728865Y-136107073D01*
X94729571Y-136128357D01*
X94372295Y-142889123D01*
X94372295Y-142889133D01*
X94381826Y-143017014D01*
X94394316Y-143078136D01*
X94394320Y-143078154D01*
X94435722Y-143199518D01*
X94435723Y-143199520D01*
X94435724Y-143199521D01*
X94516815Y-143318372D01*
X94538244Y-143341768D01*
X94564006Y-143369896D01*
X94596416Y-143396452D01*
X94675297Y-143461086D01*
X94675299Y-143461086D01*
X94675301Y-143461088D01*
X94807771Y-143517229D01*
X94863763Y-143532007D01*
X94870514Y-143534504D01*
X94989243Y-143548248D01*
X95018245Y-143551606D01*
X95018250Y-143551607D01*
X95018252Y-143551606D01*
X95018253Y-143551607D01*
X98390782Y-143458700D01*
X98496256Y-143444590D01*
X98546703Y-143432328D01*
X98646882Y-143396452D01*
X98766267Y-143316147D01*
X98818101Y-143269297D01*
X98910024Y-143158612D01*
X98926147Y-143121257D01*
X98967038Y-143026523D01*
X98967043Y-143026508D01*
X98985318Y-142959077D01*
X98985319Y-142959075D01*
X98985319Y-142959072D01*
X98985322Y-142959040D01*
X98986170Y-142952676D01*
X98986239Y-142951559D01*
X99002809Y-142816262D01*
X99002809Y-142816260D01*
X98999733Y-142669395D01*
X98974341Y-141456909D01*
X98992618Y-141389474D01*
X99044452Y-141342624D01*
X99050201Y-141340029D01*
X102376932Y-139939771D01*
X102413582Y-139922587D01*
X102431197Y-139913450D01*
X102466354Y-139893387D01*
X104689970Y-138503627D01*
X104762848Y-138448315D01*
X104795862Y-138418180D01*
X104857570Y-138350646D01*
X104927425Y-138224860D01*
X104952309Y-138159571D01*
X104952314Y-138159557D01*
X104964075Y-138107280D01*
X104997995Y-138046198D01*
X105059555Y-138013150D01*
X105085051Y-138010500D01*
X105471000Y-138010500D01*
X105538039Y-138030185D01*
X105583794Y-138082989D01*
X105595000Y-138134500D01*
X105595000Y-138331564D01*
X105590071Y-138366178D01*
X105589246Y-138369016D01*
X105576904Y-138397527D01*
X105570524Y-138408314D01*
X105556143Y-138427940D01*
X105546663Y-138438518D01*
X105529752Y-138459598D01*
X105497625Y-138504456D01*
X105497624Y-138504457D01*
X105438416Y-138635585D01*
X105438412Y-138635594D01*
X105419020Y-138702699D01*
X105419018Y-138702713D01*
X105399153Y-138845209D01*
X105399153Y-138845214D01*
X105413986Y-142301648D01*
X105413986Y-142301653D01*
X105424488Y-142402017D01*
X105434478Y-142450246D01*
X105464699Y-142546509D01*
X105539528Y-142669395D01*
X105583991Y-142723292D01*
X105583993Y-142723295D01*
X105690409Y-142820119D01*
X105690410Y-142820119D01*
X105690411Y-142820120D01*
X105819802Y-142883045D01*
X105886237Y-142904314D01*
X105886350Y-142904351D01*
X105946948Y-142914567D01*
X106028225Y-142928272D01*
X112382815Y-143082323D01*
X112382815Y-143082322D01*
X112382819Y-143082323D01*
X112422683Y-143078933D01*
X112492452Y-143073001D01*
X112517599Y-143068063D01*
X112545100Y-143062665D01*
X112545104Y-143062664D01*
X112545105Y-143062663D01*
X112545108Y-143062663D01*
X112650133Y-143029839D01*
X112672794Y-143015796D01*
X112772427Y-142954055D01*
X112772430Y-142954052D01*
X112772434Y-142954050D01*
X112825982Y-142909169D01*
X112830298Y-142904351D01*
X112921971Y-142802004D01*
X112921971Y-142802002D01*
X112921974Y-142802000D01*
X112927159Y-142791122D01*
X112973773Y-142739079D01*
X113041126Y-142720498D01*
X113107833Y-142741280D01*
X113143022Y-142776847D01*
X113159393Y-142802004D01*
X113165011Y-142810636D01*
X113211067Y-142863177D01*
X113211070Y-142863180D01*
X113259137Y-142904350D01*
X113320343Y-142956775D01*
X113320344Y-142956775D01*
X113320346Y-142956777D01*
X113451564Y-143015796D01*
X113518715Y-143035096D01*
X113661244Y-143054756D01*
X139600287Y-142906194D01*
X139601878Y-142906018D01*
X139602233Y-142906081D01*
X139603516Y-142906007D01*
X139603533Y-142906311D01*
X139670673Y-142918218D01*
X139721952Y-142965675D01*
X139739500Y-143029267D01*
X139739500Y-146345500D01*
X139719815Y-146412539D01*
X139667011Y-146458294D01*
X139615500Y-146469500D01*
X88724500Y-146469500D01*
X88657461Y-146449815D01*
X88611706Y-146397011D01*
X88600500Y-146345500D01*
X88600500Y-122944500D01*
X88620185Y-122877461D01*
X88672989Y-122831706D01*
X88724500Y-122820500D01*
X139615500Y-122820500D01*
X139682539Y-122840185D01*
G37*
%TD.AperFunction*%
%TD*%
M02*
