%TF.GenerationSoftware,KiCad,Pcbnew,8.0.7*%
%TF.CreationDate,2026-09-19T18:29:20+03:00*%
%TF.ProjectId,DC_DC_Power_Supply_5V_3.3V,44435f44-435f-4506-9f77-65725f537570,rev?*%
%TF.SameCoordinates,Original*%
%TF.FileFunction,Legend,Top*%
%TF.FilePolarity,Positive*%
%FSLAX46Y46*%
G04 Gerber Fmt 4.6, Leading zero omitted, Abs format (unit mm)*
G04 Created by KiCad (PCBNEW 8.0.7) date 2026-09-19 18:29:20*
%MOMM*%
%LPD*%
G01*
G04 APERTURE LIST*
%ADD10C,0.100000*%
%ADD11C,0.160000*%
%ADD12C,0.150000*%
%ADD13C,0.120000*%
G04 APERTURE END LIST*
D10*
X113183809Y-145306895D02*
X112802857Y-145306895D01*
X112802857Y-145306895D02*
X112764761Y-145687847D01*
X112764761Y-145687847D02*
X112802857Y-145649752D01*
X112802857Y-145649752D02*
X112879047Y-145611657D01*
X112879047Y-145611657D02*
X113069523Y-145611657D01*
X113069523Y-145611657D02*
X113145714Y-145649752D01*
X113145714Y-145649752D02*
X113183809Y-145687847D01*
X113183809Y-145687847D02*
X113221904Y-145764038D01*
X113221904Y-145764038D02*
X113221904Y-145954514D01*
X113221904Y-145954514D02*
X113183809Y-146030704D01*
X113183809Y-146030704D02*
X113145714Y-146068800D01*
X113145714Y-146068800D02*
X113069523Y-146106895D01*
X113069523Y-146106895D02*
X112879047Y-146106895D01*
X112879047Y-146106895D02*
X112802857Y-146068800D01*
X112802857Y-146068800D02*
X112764761Y-146030704D01*
X113488571Y-145573561D02*
X113679047Y-146106895D01*
X113679047Y-146106895D02*
X113869524Y-145573561D01*
X114783810Y-145802133D02*
X115393334Y-145802133D01*
X116307619Y-145306895D02*
X116802857Y-145306895D01*
X116802857Y-145306895D02*
X116536191Y-145611657D01*
X116536191Y-145611657D02*
X116650476Y-145611657D01*
X116650476Y-145611657D02*
X116726667Y-145649752D01*
X116726667Y-145649752D02*
X116764762Y-145687847D01*
X116764762Y-145687847D02*
X116802857Y-145764038D01*
X116802857Y-145764038D02*
X116802857Y-145954514D01*
X116802857Y-145954514D02*
X116764762Y-146030704D01*
X116764762Y-146030704D02*
X116726667Y-146068800D01*
X116726667Y-146068800D02*
X116650476Y-146106895D01*
X116650476Y-146106895D02*
X116421905Y-146106895D01*
X116421905Y-146106895D02*
X116345714Y-146068800D01*
X116345714Y-146068800D02*
X116307619Y-146030704D01*
X117145715Y-146030704D02*
X117183810Y-146068800D01*
X117183810Y-146068800D02*
X117145715Y-146106895D01*
X117145715Y-146106895D02*
X117107619Y-146068800D01*
X117107619Y-146068800D02*
X117145715Y-146030704D01*
X117145715Y-146030704D02*
X117145715Y-146106895D01*
X117450476Y-145306895D02*
X117945714Y-145306895D01*
X117945714Y-145306895D02*
X117679048Y-145611657D01*
X117679048Y-145611657D02*
X117793333Y-145611657D01*
X117793333Y-145611657D02*
X117869524Y-145649752D01*
X117869524Y-145649752D02*
X117907619Y-145687847D01*
X117907619Y-145687847D02*
X117945714Y-145764038D01*
X117945714Y-145764038D02*
X117945714Y-145954514D01*
X117945714Y-145954514D02*
X117907619Y-146030704D01*
X117907619Y-146030704D02*
X117869524Y-146068800D01*
X117869524Y-146068800D02*
X117793333Y-146106895D01*
X117793333Y-146106895D02*
X117564762Y-146106895D01*
X117564762Y-146106895D02*
X117488571Y-146068800D01*
X117488571Y-146068800D02*
X117450476Y-146030704D01*
X118212381Y-145573561D02*
X118402857Y-146106895D01*
X118402857Y-146106895D02*
X118593334Y-145573561D01*
D11*
G36*
X117225237Y-143919693D02*
G01*
X117225237Y-144392237D01*
X117191114Y-144409299D01*
X117038408Y-144409299D01*
X116971674Y-144375932D01*
X116942414Y-144346671D01*
X116909047Y-144279937D01*
X116909047Y-144031993D01*
X116942413Y-143965260D01*
X116971674Y-143935998D01*
X117038408Y-143902632D01*
X117191114Y-143902632D01*
X117225237Y-143919693D01*
G37*
G36*
X121606190Y-143919693D02*
G01*
X121606190Y-144392237D01*
X121572067Y-144409299D01*
X121419361Y-144409299D01*
X121352627Y-144375932D01*
X121323367Y-144346671D01*
X121290000Y-144279937D01*
X121290000Y-144031993D01*
X121323366Y-143965260D01*
X121352627Y-143935998D01*
X121419361Y-143902632D01*
X121572067Y-143902632D01*
X121606190Y-143919693D01*
G37*
G36*
X110400701Y-143935998D02*
G01*
X110429963Y-143965259D01*
X110463330Y-144031993D01*
X110463330Y-144279937D01*
X110429962Y-144346671D01*
X110400702Y-144375932D01*
X110333969Y-144409299D01*
X110181263Y-144409299D01*
X110147140Y-144392237D01*
X110147140Y-143919693D01*
X110181263Y-143902632D01*
X110333969Y-143902632D01*
X110400701Y-143935998D01*
G37*
G36*
X111817035Y-143929879D02*
G01*
X111844283Y-143984374D01*
X111844283Y-143995143D01*
X111528093Y-144058381D01*
X111528093Y-143984374D01*
X111555340Y-143929879D01*
X111609835Y-143902632D01*
X111762541Y-143902632D01*
X111817035Y-143929879D01*
G37*
G36*
X114305464Y-143935998D02*
G01*
X114334726Y-143965259D01*
X114368093Y-144031993D01*
X114368093Y-144279937D01*
X114334725Y-144346671D01*
X114305465Y-144375932D01*
X114238732Y-144409299D01*
X114133645Y-144409299D01*
X114066911Y-144375932D01*
X114037651Y-144346671D01*
X114004284Y-144279937D01*
X114004284Y-144031993D01*
X114037650Y-143965260D01*
X114066911Y-143935998D01*
X114133645Y-143902632D01*
X114238732Y-143902632D01*
X114305464Y-143935998D01*
G37*
G36*
X116320475Y-144392237D02*
G01*
X116286352Y-144409299D01*
X116086027Y-144409299D01*
X116031532Y-144382051D01*
X116004285Y-144327556D01*
X116004285Y-144270088D01*
X116031532Y-144215593D01*
X116086027Y-144188346D01*
X116305237Y-144188346D01*
X116320475Y-144186845D01*
X116320475Y-144392237D01*
G37*
G36*
X118102751Y-143929879D02*
G01*
X118129999Y-143984374D01*
X118129999Y-143995143D01*
X117813809Y-144058381D01*
X117813809Y-143984374D01*
X117841056Y-143929879D01*
X117895551Y-143902632D01*
X118048257Y-143902632D01*
X118102751Y-143929879D01*
G37*
G36*
X120721799Y-143929879D02*
G01*
X120749047Y-143984374D01*
X120749047Y-143995143D01*
X120432857Y-144058381D01*
X120432857Y-143984374D01*
X120460104Y-143929879D01*
X120514599Y-143902632D01*
X120667305Y-143902632D01*
X120721799Y-143929879D01*
G37*
G36*
X123939524Y-144392237D02*
G01*
X123905401Y-144409299D01*
X123705076Y-144409299D01*
X123650581Y-144382051D01*
X123623334Y-144327556D01*
X123623334Y-144270088D01*
X123650581Y-144215593D01*
X123705076Y-144188346D01*
X123924286Y-144188346D01*
X123939524Y-144186845D01*
X123939524Y-144392237D01*
G37*
G36*
X125400705Y-143935998D02*
G01*
X125429967Y-143965259D01*
X125463334Y-144031993D01*
X125463334Y-144279937D01*
X125429966Y-144346671D01*
X125400706Y-144375932D01*
X125333973Y-144409299D01*
X125228886Y-144409299D01*
X125162152Y-144375932D01*
X125132892Y-144346671D01*
X125099525Y-144279937D01*
X125099525Y-144031993D01*
X125132891Y-143965260D01*
X125162152Y-143935998D01*
X125228886Y-143902632D01*
X125333973Y-143902632D01*
X125400705Y-143935998D01*
G37*
G36*
X119829275Y-143602665D02*
G01*
X119858537Y-143631926D01*
X119891904Y-143698660D01*
X119891904Y-143803747D01*
X119858537Y-143870480D01*
X119829275Y-143899741D01*
X119762543Y-143933108D01*
X119480476Y-143933108D01*
X119480476Y-143569299D01*
X119762543Y-143569299D01*
X119829275Y-143602665D01*
G37*
G36*
X126447194Y-145013743D02*
G01*
X107066506Y-145013743D01*
X107066506Y-143679775D01*
X107177617Y-143679775D01*
X107177617Y-143775013D01*
X107179154Y-143790620D01*
X107180254Y-143793276D01*
X107180458Y-143796143D01*
X107186063Y-143810790D01*
X107233682Y-143906028D01*
X107237908Y-143912742D01*
X107238718Y-143914697D01*
X107240523Y-143916896D01*
X107242036Y-143919300D01*
X107243630Y-143920682D01*
X107248667Y-143926820D01*
X107296286Y-143974438D01*
X107302420Y-143979472D01*
X107303806Y-143981070D01*
X107306214Y-143982585D01*
X107308409Y-143984387D01*
X107310359Y-143985194D01*
X107317078Y-143989424D01*
X107412316Y-144037043D01*
X107413457Y-144037479D01*
X107413922Y-144037824D01*
X107420462Y-144040160D01*
X107426962Y-144042648D01*
X107427539Y-144042689D01*
X107428690Y-144043100D01*
X107610646Y-144088589D01*
X107686416Y-144126474D01*
X107715678Y-144155735D01*
X107749045Y-144222469D01*
X107749045Y-144279937D01*
X107715677Y-144346671D01*
X107686417Y-144375932D01*
X107619684Y-144409299D01*
X107413457Y-144409299D01*
X107282915Y-144365785D01*
X107267623Y-144362308D01*
X107236487Y-144364520D01*
X107208568Y-144378480D01*
X107188116Y-144402062D01*
X107178245Y-144431674D01*
X107180457Y-144462810D01*
X107194417Y-144490729D01*
X107217999Y-144511181D01*
X107232319Y-144517575D01*
X107375175Y-144565194D01*
X107382917Y-144566954D01*
X107384867Y-144567762D01*
X107387693Y-144568040D01*
X107390467Y-144568671D01*
X107392575Y-144568521D01*
X107400474Y-144569299D01*
X107638569Y-144569299D01*
X107654176Y-144567762D01*
X107656832Y-144566661D01*
X107659699Y-144566458D01*
X107674346Y-144560853D01*
X107769584Y-144513234D01*
X107776301Y-144509005D01*
X107778254Y-144508197D01*
X107780451Y-144506393D01*
X107782856Y-144504880D01*
X107784240Y-144503283D01*
X107790376Y-144498248D01*
X107837995Y-144450628D01*
X107843028Y-144444494D01*
X107844626Y-144443109D01*
X107846141Y-144440701D01*
X107847944Y-144438505D01*
X107848752Y-144436553D01*
X107852980Y-144429837D01*
X107900599Y-144334599D01*
X107906204Y-144319953D01*
X107906407Y-144317085D01*
X107907508Y-144314429D01*
X107909045Y-144298822D01*
X107909045Y-144203584D01*
X107907508Y-144187977D01*
X107906407Y-144185320D01*
X107906204Y-144182453D01*
X107900599Y-144167807D01*
X107852980Y-144072569D01*
X107848750Y-144065850D01*
X107847943Y-144063900D01*
X107846141Y-144061705D01*
X107844626Y-144059297D01*
X107843028Y-144057911D01*
X107837994Y-144051777D01*
X107790376Y-144004158D01*
X107784238Y-143999121D01*
X107782856Y-143997527D01*
X107780452Y-143996014D01*
X107778253Y-143994209D01*
X107776298Y-143993399D01*
X107769584Y-143989173D01*
X107674346Y-143941554D01*
X107673204Y-143941117D01*
X107672740Y-143940773D01*
X107666191Y-143938433D01*
X107659699Y-143935949D01*
X107659122Y-143935908D01*
X107657972Y-143935497D01*
X107476016Y-143890008D01*
X107400244Y-143852122D01*
X107370983Y-143822860D01*
X107370869Y-143822632D01*
X108177617Y-143822632D01*
X108177617Y-144489299D01*
X108179154Y-144504906D01*
X108191099Y-144533745D01*
X108213171Y-144555817D01*
X108242010Y-144567762D01*
X108273224Y-144567762D01*
X108302063Y-144555817D01*
X108324135Y-144533745D01*
X108336080Y-144504906D01*
X108337617Y-144489299D01*
X108337617Y-143822632D01*
X108653807Y-143822632D01*
X108653807Y-144489299D01*
X108655344Y-144504906D01*
X108667289Y-144533745D01*
X108689361Y-144555817D01*
X108718200Y-144567762D01*
X108749414Y-144567762D01*
X108778253Y-144555817D01*
X108800325Y-144533745D01*
X108812270Y-144504906D01*
X108813807Y-144489299D01*
X108813807Y-143951007D01*
X108828815Y-143935998D01*
X108895549Y-143902632D01*
X109000636Y-143902632D01*
X109055130Y-143929879D01*
X109082378Y-143984374D01*
X109082378Y-144489299D01*
X109083915Y-144504906D01*
X109095860Y-144533745D01*
X109117932Y-144555817D01*
X109146771Y-144567762D01*
X109177985Y-144567762D01*
X109206824Y-144555817D01*
X109228896Y-144533745D01*
X109240841Y-144504906D01*
X109242378Y-144489299D01*
X109242378Y-143984374D01*
X109269625Y-143929879D01*
X109324120Y-143902632D01*
X109429207Y-143902632D01*
X109483702Y-143929879D01*
X109510950Y-143984374D01*
X109510950Y-144489299D01*
X109512487Y-144504906D01*
X109524432Y-144533745D01*
X109546504Y-144555817D01*
X109575343Y-144567762D01*
X109606557Y-144567762D01*
X109635396Y-144555817D01*
X109657468Y-144533745D01*
X109669413Y-144504906D01*
X109670950Y-144489299D01*
X109670950Y-143965489D01*
X109669413Y-143949882D01*
X109668312Y-143947225D01*
X109668109Y-143944358D01*
X109662504Y-143929712D01*
X109614885Y-143834474D01*
X109613243Y-143831865D01*
X109612832Y-143830632D01*
X109611499Y-143829096D01*
X109607431Y-143822632D01*
X109987140Y-143822632D01*
X109987140Y-144822632D01*
X109988677Y-144838239D01*
X110000622Y-144867078D01*
X110022694Y-144889150D01*
X110051533Y-144901095D01*
X110082747Y-144901095D01*
X110111586Y-144889150D01*
X110133658Y-144867078D01*
X110145603Y-144838239D01*
X110147140Y-144822632D01*
X110147140Y-144567798D01*
X110162378Y-144569299D01*
X110352854Y-144569299D01*
X110368461Y-144567762D01*
X110371117Y-144566661D01*
X110373984Y-144566458D01*
X110388631Y-144560853D01*
X110483869Y-144513234D01*
X110490586Y-144509005D01*
X110492539Y-144508197D01*
X110494736Y-144506393D01*
X110497141Y-144504880D01*
X110498525Y-144503283D01*
X110504661Y-144498248D01*
X110552280Y-144450628D01*
X110557313Y-144444494D01*
X110558911Y-144443109D01*
X110560426Y-144440701D01*
X110562229Y-144438505D01*
X110563037Y-144436553D01*
X110567265Y-144429837D01*
X110614884Y-144334599D01*
X110620489Y-144319953D01*
X110620692Y-144317085D01*
X110621793Y-144314429D01*
X110623330Y-144298822D01*
X110623330Y-144013108D01*
X110621793Y-143997501D01*
X110620692Y-143994844D01*
X110620489Y-143991977D01*
X110614884Y-143977331D01*
X110567265Y-143882093D01*
X110563035Y-143875374D01*
X110562228Y-143873424D01*
X110560426Y-143871229D01*
X110558911Y-143868821D01*
X110557313Y-143867435D01*
X110552279Y-143861301D01*
X110504661Y-143813682D01*
X110498523Y-143808645D01*
X110497141Y-143807051D01*
X110494737Y-143805538D01*
X110492538Y-143803733D01*
X110490583Y-143802923D01*
X110483869Y-143798697D01*
X110388631Y-143751078D01*
X110373984Y-143745473D01*
X110371117Y-143745269D01*
X110368461Y-143744169D01*
X110352854Y-143742632D01*
X110162378Y-143742632D01*
X110146771Y-143744169D01*
X110144114Y-143745269D01*
X110141247Y-143745473D01*
X110126601Y-143751078D01*
X110113233Y-143757761D01*
X110111586Y-143756114D01*
X110082747Y-143744169D01*
X110051533Y-143744169D01*
X110022694Y-143756114D01*
X110000622Y-143778186D01*
X109988677Y-143807025D01*
X109987140Y-143822632D01*
X109607431Y-143822632D01*
X109606531Y-143821202D01*
X109598952Y-143814629D01*
X109592380Y-143807051D01*
X109584485Y-143802082D01*
X109582950Y-143800750D01*
X109581716Y-143800338D01*
X109579108Y-143798697D01*
X109483869Y-143751078D01*
X109469222Y-143745473D01*
X109466355Y-143745269D01*
X109463699Y-143744169D01*
X109448092Y-143742632D01*
X109305235Y-143742632D01*
X109289628Y-143744169D01*
X109286971Y-143745269D01*
X109284104Y-143745473D01*
X109269458Y-143751078D01*
X109174220Y-143798697D01*
X109171611Y-143800338D01*
X109170378Y-143800750D01*
X109168842Y-143802082D01*
X109162378Y-143806150D01*
X109155913Y-143802082D01*
X109154378Y-143800750D01*
X109153144Y-143800338D01*
X109150536Y-143798697D01*
X109055298Y-143751078D01*
X109040651Y-143745473D01*
X109037784Y-143745269D01*
X109035128Y-143744169D01*
X109019521Y-143742632D01*
X108876664Y-143742632D01*
X108861057Y-143744169D01*
X108858400Y-143745269D01*
X108855533Y-143745473D01*
X108840887Y-143751078D01*
X108795773Y-143773634D01*
X108778253Y-143756114D01*
X108749414Y-143744169D01*
X108718200Y-143744169D01*
X108689361Y-143756114D01*
X108667289Y-143778186D01*
X108655344Y-143807025D01*
X108653807Y-143822632D01*
X108337617Y-143822632D01*
X108336080Y-143807025D01*
X108324135Y-143778186D01*
X108302063Y-143756114D01*
X108273224Y-143744169D01*
X108242010Y-143744169D01*
X108213171Y-143756114D01*
X108191099Y-143778186D01*
X108179154Y-143807025D01*
X108177617Y-143822632D01*
X107370869Y-143822632D01*
X107337617Y-143756128D01*
X107337617Y-143698660D01*
X107370983Y-143631927D01*
X107400244Y-143602665D01*
X107466978Y-143569299D01*
X107673205Y-143569299D01*
X107803746Y-143612813D01*
X107819038Y-143616290D01*
X107850175Y-143614077D01*
X107878094Y-143600118D01*
X107898546Y-143576536D01*
X107908416Y-143546924D01*
X107906596Y-143521311D01*
X108131535Y-143521311D01*
X108131535Y-143552525D01*
X108143480Y-143581364D01*
X108153429Y-143593487D01*
X108201048Y-143641105D01*
X108213165Y-143651049D01*
X108213171Y-143651055D01*
X108231493Y-143658644D01*
X108242009Y-143663000D01*
X108242010Y-143663000D01*
X108273224Y-143663000D01*
X108302063Y-143651055D01*
X108302064Y-143651054D01*
X108314186Y-143641106D01*
X108361804Y-143593487D01*
X108371753Y-143581364D01*
X108383699Y-143552526D01*
X108383699Y-143521311D01*
X108381411Y-143515788D01*
X108371753Y-143492472D01*
X108369149Y-143489299D01*
X110891902Y-143489299D01*
X110891902Y-144346441D01*
X110893439Y-144362048D01*
X110894539Y-144364704D01*
X110894743Y-144367571D01*
X110900348Y-144382218D01*
X110947967Y-144477457D01*
X110949608Y-144480065D01*
X110950020Y-144481299D01*
X110951352Y-144482834D01*
X110956321Y-144490729D01*
X110963899Y-144497301D01*
X110970472Y-144504880D01*
X110978366Y-144509848D01*
X110979902Y-144511181D01*
X110981135Y-144511592D01*
X110983744Y-144513234D01*
X111078982Y-144560853D01*
X111093628Y-144566458D01*
X111124765Y-144568671D01*
X111154377Y-144558800D01*
X111177958Y-144538348D01*
X111191918Y-144510429D01*
X111194131Y-144479293D01*
X111184260Y-144449680D01*
X111163808Y-144426099D01*
X111150536Y-144417745D01*
X111079149Y-144382051D01*
X111051902Y-144327556D01*
X111051902Y-143965489D01*
X111368093Y-143965489D01*
X111368093Y-144346441D01*
X111369630Y-144362048D01*
X111370730Y-144364704D01*
X111370934Y-144367571D01*
X111376539Y-144382218D01*
X111424158Y-144477457D01*
X111425799Y-144480065D01*
X111426211Y-144481299D01*
X111427543Y-144482834D01*
X111432512Y-144490729D01*
X111440090Y-144497301D01*
X111446663Y-144504880D01*
X111454557Y-144509848D01*
X111456093Y-144511181D01*
X111457326Y-144511592D01*
X111459935Y-144513234D01*
X111555173Y-144560853D01*
X111569819Y-144566458D01*
X111572686Y-144566661D01*
X111575343Y-144567762D01*
X111590950Y-144569299D01*
X111781426Y-144569299D01*
X111797033Y-144567762D01*
X111799689Y-144566661D01*
X111802556Y-144566458D01*
X111817203Y-144560853D01*
X111912441Y-144513234D01*
X111925713Y-144504880D01*
X111946165Y-144481299D01*
X111956036Y-144451686D01*
X111953823Y-144420550D01*
X111939863Y-144392631D01*
X111916282Y-144372179D01*
X111886670Y-144362308D01*
X111855533Y-144364521D01*
X111840887Y-144370126D01*
X111762541Y-144409299D01*
X111609835Y-144409299D01*
X111555340Y-144382051D01*
X111528093Y-144327556D01*
X111528093Y-144221548D01*
X111939972Y-144139174D01*
X111954974Y-144134606D01*
X111961486Y-144130244D01*
X111968729Y-144127245D01*
X111974329Y-144121644D01*
X111980911Y-144117237D01*
X111985258Y-144110715D01*
X111990801Y-144105173D01*
X111993832Y-144097854D01*
X111998225Y-144091265D01*
X111999745Y-144083577D01*
X112002746Y-144076334D01*
X112004283Y-144060727D01*
X112004283Y-143965489D01*
X112002746Y-143949882D01*
X112001645Y-143947225D01*
X112001442Y-143944358D01*
X111995837Y-143929712D01*
X111948218Y-143834474D01*
X111946576Y-143831865D01*
X111946165Y-143830632D01*
X111944832Y-143829096D01*
X111939864Y-143821202D01*
X111932285Y-143814629D01*
X111925713Y-143807051D01*
X111917818Y-143802082D01*
X111916283Y-143800750D01*
X111915049Y-143800338D01*
X111912441Y-143798697D01*
X111817203Y-143751078D01*
X111802556Y-143745473D01*
X111799689Y-143745269D01*
X111797033Y-143744169D01*
X111781426Y-143742632D01*
X111590950Y-143742632D01*
X111575343Y-143744169D01*
X111572686Y-143745269D01*
X111569819Y-143745473D01*
X111555173Y-143751078D01*
X111459935Y-143798697D01*
X111457326Y-143800338D01*
X111456093Y-143800750D01*
X111454557Y-143802082D01*
X111446663Y-143807051D01*
X111440090Y-143814629D01*
X111432512Y-143821202D01*
X111427543Y-143829096D01*
X111426211Y-143830632D01*
X111425799Y-143831865D01*
X111424158Y-143834474D01*
X111376539Y-143929712D01*
X111370934Y-143944359D01*
X111370730Y-143947225D01*
X111369630Y-143949882D01*
X111368093Y-143965489D01*
X111051902Y-143965489D01*
X111051902Y-143499305D01*
X112892531Y-143499305D01*
X112896008Y-143514597D01*
X113229341Y-144514597D01*
X113235735Y-144528917D01*
X113239479Y-144533234D01*
X113242036Y-144538348D01*
X113249611Y-144544918D01*
X113256186Y-144552499D01*
X113261302Y-144555056D01*
X113265618Y-144558800D01*
X113275130Y-144561970D01*
X113284105Y-144566458D01*
X113289806Y-144566863D01*
X113295230Y-144568671D01*
X113305242Y-144567959D01*
X113315242Y-144568670D01*
X113320659Y-144566864D01*
X113326366Y-144566459D01*
X113335344Y-144561969D01*
X113344854Y-144558800D01*
X113349170Y-144555056D01*
X113354285Y-144552499D01*
X113360857Y-144544920D01*
X113368436Y-144538348D01*
X113370992Y-144533234D01*
X113374737Y-144528917D01*
X113381131Y-144514597D01*
X113548294Y-144013108D01*
X113844284Y-144013108D01*
X113844284Y-144298822D01*
X113845821Y-144314429D01*
X113846921Y-144317085D01*
X113847125Y-144319952D01*
X113852730Y-144334599D01*
X113900349Y-144429837D01*
X113904576Y-144436553D01*
X113905385Y-144438505D01*
X113907187Y-144440701D01*
X113908703Y-144443109D01*
X113910300Y-144444494D01*
X113915334Y-144450628D01*
X113962953Y-144498248D01*
X113969088Y-144503283D01*
X113970473Y-144504880D01*
X113972877Y-144506393D01*
X113975075Y-144508197D01*
X113977027Y-144509005D01*
X113983745Y-144513234D01*
X114078983Y-144560853D01*
X114093629Y-144566458D01*
X114096496Y-144566661D01*
X114099153Y-144567762D01*
X114114760Y-144569299D01*
X114257617Y-144569299D01*
X114273224Y-144567762D01*
X114275880Y-144566661D01*
X114278747Y-144566458D01*
X114293394Y-144560853D01*
X114388632Y-144513234D01*
X114395349Y-144509005D01*
X114397302Y-144508197D01*
X114399499Y-144506393D01*
X114401904Y-144504880D01*
X114403288Y-144503283D01*
X114409424Y-144498248D01*
X114457043Y-144450628D01*
X114462076Y-144444494D01*
X114463674Y-144443109D01*
X114465189Y-144440701D01*
X114466992Y-144438505D01*
X114467800Y-144436553D01*
X114472028Y-144429837D01*
X114519647Y-144334599D01*
X114525252Y-144319953D01*
X114525455Y-144317085D01*
X114526556Y-144314429D01*
X114528093Y-144298822D01*
X114528093Y-144013108D01*
X114526556Y-143997501D01*
X114525455Y-143994844D01*
X114525252Y-143991977D01*
X114519647Y-143977331D01*
X114472028Y-143882093D01*
X114467798Y-143875374D01*
X114466991Y-143873424D01*
X114465189Y-143871229D01*
X114463674Y-143868821D01*
X114462076Y-143867435D01*
X114457042Y-143861301D01*
X114409424Y-143813682D01*
X114403286Y-143808645D01*
X114401904Y-143807051D01*
X114399500Y-143805538D01*
X114397301Y-143803733D01*
X114395346Y-143802923D01*
X114388632Y-143798697D01*
X114293394Y-143751078D01*
X114278747Y-143745473D01*
X114275880Y-143745269D01*
X114273224Y-143744169D01*
X114257617Y-143742632D01*
X114114760Y-143742632D01*
X114099153Y-143744169D01*
X114096496Y-143745269D01*
X114093629Y-143745473D01*
X114078983Y-143751078D01*
X113983745Y-143798697D01*
X113977026Y-143802926D01*
X113975076Y-143803734D01*
X113972881Y-143805535D01*
X113970473Y-143807051D01*
X113969087Y-143808648D01*
X113962953Y-143813683D01*
X113915334Y-143861301D01*
X113910297Y-143867438D01*
X113908703Y-143868821D01*
X113907190Y-143871224D01*
X113905385Y-143873424D01*
X113904575Y-143875378D01*
X113900349Y-143882093D01*
X113852730Y-143977331D01*
X113847125Y-143991978D01*
X113846921Y-143994844D01*
X113845821Y-143997501D01*
X113844284Y-144013108D01*
X113548294Y-144013108D01*
X113714464Y-143514598D01*
X113717941Y-143499305D01*
X113717230Y-143489299D01*
X114796665Y-143489299D01*
X114796665Y-144346441D01*
X114798202Y-144362048D01*
X114799302Y-144364704D01*
X114799506Y-144367571D01*
X114805111Y-144382218D01*
X114852730Y-144477457D01*
X114854371Y-144480065D01*
X114854783Y-144481299D01*
X114856115Y-144482834D01*
X114861084Y-144490729D01*
X114868662Y-144497301D01*
X114875235Y-144504880D01*
X114883129Y-144509848D01*
X114884665Y-144511181D01*
X114885898Y-144511592D01*
X114888507Y-144513234D01*
X114983745Y-144560853D01*
X114998391Y-144566458D01*
X115029528Y-144568671D01*
X115059140Y-144558800D01*
X115082721Y-144538348D01*
X115096681Y-144510429D01*
X115098894Y-144479293D01*
X115089023Y-144449680D01*
X115068571Y-144426099D01*
X115055299Y-144417745D01*
X114983912Y-144382051D01*
X114956665Y-144327556D01*
X114956665Y-143807025D01*
X115179155Y-143807025D01*
X115179155Y-143838239D01*
X115191100Y-143867078D01*
X115213172Y-143889150D01*
X115242011Y-143901095D01*
X115257618Y-143902632D01*
X115320475Y-143902632D01*
X115320475Y-144346441D01*
X115322012Y-144362048D01*
X115323112Y-144364704D01*
X115323316Y-144367571D01*
X115328921Y-144382218D01*
X115376540Y-144477457D01*
X115378181Y-144480065D01*
X115378593Y-144481299D01*
X115379925Y-144482834D01*
X115384894Y-144490729D01*
X115392472Y-144497301D01*
X115399045Y-144504880D01*
X115406939Y-144509848D01*
X115408475Y-144511181D01*
X115409708Y-144511592D01*
X115412317Y-144513234D01*
X115507555Y-144560853D01*
X115522201Y-144566458D01*
X115525068Y-144566661D01*
X115527725Y-144567762D01*
X115543332Y-144569299D01*
X115638570Y-144569299D01*
X115654177Y-144567762D01*
X115683016Y-144555817D01*
X115705088Y-144533745D01*
X115717033Y-144504906D01*
X115717033Y-144473692D01*
X115705088Y-144444853D01*
X115683016Y-144422781D01*
X115654177Y-144410836D01*
X115638570Y-144409299D01*
X115562217Y-144409299D01*
X115507722Y-144382051D01*
X115480475Y-144327556D01*
X115480475Y-144251203D01*
X115844285Y-144251203D01*
X115844285Y-144346441D01*
X115845822Y-144362048D01*
X115846922Y-144364704D01*
X115847126Y-144367571D01*
X115852731Y-144382218D01*
X115900350Y-144477457D01*
X115901991Y-144480065D01*
X115902403Y-144481299D01*
X115903735Y-144482834D01*
X115908704Y-144490729D01*
X115916282Y-144497301D01*
X115922855Y-144504880D01*
X115930749Y-144509848D01*
X115932285Y-144511181D01*
X115933518Y-144511592D01*
X115936127Y-144513234D01*
X116031365Y-144560853D01*
X116046011Y-144566458D01*
X116048878Y-144566661D01*
X116051535Y-144567762D01*
X116067142Y-144569299D01*
X116305237Y-144569299D01*
X116320844Y-144567762D01*
X116323500Y-144566661D01*
X116326367Y-144566458D01*
X116341014Y-144560853D01*
X116354381Y-144554169D01*
X116356029Y-144555817D01*
X116384868Y-144567762D01*
X116416082Y-144567762D01*
X116444921Y-144555817D01*
X116466993Y-144533745D01*
X116478938Y-144504906D01*
X116480475Y-144489299D01*
X116480475Y-144013108D01*
X116749047Y-144013108D01*
X116749047Y-144298822D01*
X116750584Y-144314429D01*
X116751684Y-144317085D01*
X116751888Y-144319952D01*
X116757493Y-144334599D01*
X116805112Y-144429837D01*
X116809339Y-144436553D01*
X116810148Y-144438505D01*
X116811950Y-144440701D01*
X116813466Y-144443109D01*
X116815063Y-144444494D01*
X116820097Y-144450628D01*
X116867716Y-144498248D01*
X116873851Y-144503283D01*
X116875236Y-144504880D01*
X116877640Y-144506393D01*
X116879838Y-144508197D01*
X116881790Y-144509005D01*
X116888508Y-144513234D01*
X116983746Y-144560853D01*
X116998392Y-144566458D01*
X117001259Y-144566661D01*
X117003916Y-144567762D01*
X117019523Y-144569299D01*
X117209999Y-144569299D01*
X117225237Y-144567798D01*
X117225237Y-144613271D01*
X117191870Y-144680004D01*
X117162608Y-144709265D01*
X117095876Y-144742632D01*
X116990789Y-144742632D01*
X116912443Y-144703459D01*
X116897796Y-144697854D01*
X116866660Y-144695641D01*
X116837047Y-144705512D01*
X116813466Y-144725964D01*
X116799507Y-144753883D01*
X116797294Y-144785019D01*
X116807165Y-144814632D01*
X116827617Y-144838213D01*
X116840889Y-144846567D01*
X116936127Y-144894186D01*
X116950773Y-144899791D01*
X116953640Y-144899994D01*
X116956297Y-144901095D01*
X116971904Y-144902632D01*
X117114761Y-144902632D01*
X117130368Y-144901095D01*
X117133024Y-144899994D01*
X117135891Y-144899791D01*
X117150538Y-144894186D01*
X117245776Y-144846567D01*
X117252490Y-144842340D01*
X117254445Y-144841531D01*
X117256644Y-144839725D01*
X117259048Y-144838213D01*
X117260430Y-144836618D01*
X117266568Y-144831582D01*
X117314186Y-144783963D01*
X117319220Y-144777828D01*
X117320818Y-144776443D01*
X117322333Y-144774034D01*
X117324135Y-144771840D01*
X117324942Y-144769889D01*
X117329172Y-144763171D01*
X117376791Y-144667933D01*
X117382396Y-144653287D01*
X117382599Y-144650419D01*
X117383700Y-144647763D01*
X117385237Y-144632156D01*
X117385237Y-143965489D01*
X117653809Y-143965489D01*
X117653809Y-144346441D01*
X117655346Y-144362048D01*
X117656446Y-144364704D01*
X117656650Y-144367571D01*
X117662255Y-144382218D01*
X117709874Y-144477457D01*
X117711515Y-144480065D01*
X117711927Y-144481299D01*
X117713259Y-144482834D01*
X117718228Y-144490729D01*
X117725806Y-144497301D01*
X117732379Y-144504880D01*
X117740273Y-144509848D01*
X117741809Y-144511181D01*
X117743042Y-144511592D01*
X117745651Y-144513234D01*
X117840889Y-144560853D01*
X117855535Y-144566458D01*
X117858402Y-144566661D01*
X117861059Y-144567762D01*
X117876666Y-144569299D01*
X118067142Y-144569299D01*
X118082749Y-144567762D01*
X118085405Y-144566661D01*
X118088272Y-144566458D01*
X118102919Y-144560853D01*
X118198157Y-144513234D01*
X118211429Y-144504880D01*
X118231881Y-144481299D01*
X118241752Y-144451686D01*
X118239539Y-144420550D01*
X118225579Y-144392631D01*
X118201998Y-144372179D01*
X118172386Y-144362308D01*
X118141249Y-144364521D01*
X118126603Y-144370126D01*
X118048257Y-144409299D01*
X117895551Y-144409299D01*
X117841056Y-144382051D01*
X117813809Y-144327556D01*
X117813809Y-144221548D01*
X118225688Y-144139174D01*
X118240690Y-144134606D01*
X118247202Y-144130244D01*
X118254445Y-144127245D01*
X118260045Y-144121644D01*
X118266627Y-144117237D01*
X118270974Y-144110715D01*
X118276517Y-144105173D01*
X118279548Y-144097854D01*
X118283941Y-144091265D01*
X118285461Y-144083577D01*
X118288462Y-144076334D01*
X118289999Y-144060727D01*
X118289999Y-143965489D01*
X118288462Y-143949882D01*
X118287361Y-143947225D01*
X118287158Y-143944358D01*
X118281553Y-143929712D01*
X118233934Y-143834474D01*
X118232292Y-143831865D01*
X118231881Y-143830632D01*
X118230548Y-143829096D01*
X118225580Y-143821202D01*
X118218001Y-143814629D01*
X118211429Y-143807051D01*
X118203534Y-143802082D01*
X118201999Y-143800750D01*
X118200765Y-143800338D01*
X118198157Y-143798697D01*
X118102919Y-143751078D01*
X118088272Y-143745473D01*
X118085405Y-143745269D01*
X118082749Y-143744169D01*
X118067142Y-143742632D01*
X117876666Y-143742632D01*
X117861059Y-143744169D01*
X117858402Y-143745269D01*
X117855535Y-143745473D01*
X117840889Y-143751078D01*
X117745651Y-143798697D01*
X117743042Y-143800338D01*
X117741809Y-143800750D01*
X117740273Y-143802082D01*
X117732379Y-143807051D01*
X117725806Y-143814629D01*
X117718228Y-143821202D01*
X117713259Y-143829096D01*
X117711927Y-143830632D01*
X117711515Y-143831865D01*
X117709874Y-143834474D01*
X117662255Y-143929712D01*
X117656650Y-143944359D01*
X117656446Y-143947225D01*
X117655346Y-143949882D01*
X117653809Y-143965489D01*
X117385237Y-143965489D01*
X117385237Y-143822632D01*
X117383700Y-143807025D01*
X117371755Y-143778186D01*
X117349683Y-143756114D01*
X117320844Y-143744169D01*
X117289630Y-143744169D01*
X117260791Y-143756114D01*
X117259143Y-143757761D01*
X117245776Y-143751078D01*
X117231129Y-143745473D01*
X117228262Y-143745269D01*
X117225606Y-143744169D01*
X117209999Y-143742632D01*
X117019523Y-143742632D01*
X117003916Y-143744169D01*
X117001259Y-143745269D01*
X116998392Y-143745473D01*
X116983746Y-143751078D01*
X116888508Y-143798697D01*
X116881789Y-143802926D01*
X116879839Y-143803734D01*
X116877644Y-143805535D01*
X116875236Y-143807051D01*
X116873850Y-143808648D01*
X116867716Y-143813683D01*
X116820097Y-143861301D01*
X116815060Y-143867438D01*
X116813466Y-143868821D01*
X116811953Y-143871224D01*
X116810148Y-143873424D01*
X116809338Y-143875378D01*
X116805112Y-143882093D01*
X116757493Y-143977331D01*
X116751888Y-143991978D01*
X116751684Y-143994844D01*
X116750584Y-143997501D01*
X116749047Y-144013108D01*
X116480475Y-144013108D01*
X116480475Y-143965489D01*
X116478938Y-143949882D01*
X116477837Y-143947225D01*
X116477634Y-143944358D01*
X116472029Y-143929712D01*
X116424410Y-143834474D01*
X116422768Y-143831865D01*
X116422357Y-143830632D01*
X116421024Y-143829096D01*
X116416056Y-143821202D01*
X116408477Y-143814629D01*
X116401905Y-143807051D01*
X116394010Y-143802082D01*
X116392475Y-143800750D01*
X116391241Y-143800338D01*
X116388633Y-143798697D01*
X116293395Y-143751078D01*
X116278748Y-143745473D01*
X116275881Y-143745269D01*
X116273225Y-143744169D01*
X116257618Y-143742632D01*
X116067142Y-143742632D01*
X116051535Y-143744169D01*
X116048878Y-143745269D01*
X116046011Y-143745473D01*
X116031365Y-143751078D01*
X115936127Y-143798697D01*
X115922855Y-143807051D01*
X115902403Y-143830632D01*
X115892532Y-143860245D01*
X115894745Y-143891381D01*
X115908704Y-143919300D01*
X115932285Y-143939752D01*
X115961898Y-143949623D01*
X115993034Y-143947410D01*
X116007681Y-143941805D01*
X116086027Y-143902632D01*
X116238733Y-143902632D01*
X116293227Y-143929879D01*
X116320475Y-143984374D01*
X116320475Y-144011284D01*
X116286352Y-144028346D01*
X116067142Y-144028346D01*
X116051535Y-144029883D01*
X116048878Y-144030983D01*
X116046011Y-144031187D01*
X116031365Y-144036792D01*
X115936127Y-144084411D01*
X115933518Y-144086052D01*
X115932285Y-144086464D01*
X115930749Y-144087796D01*
X115922855Y-144092765D01*
X115916282Y-144100343D01*
X115908704Y-144106916D01*
X115903735Y-144114810D01*
X115902403Y-144116346D01*
X115901991Y-144117579D01*
X115900350Y-144120188D01*
X115852731Y-144215426D01*
X115847126Y-144230073D01*
X115846922Y-144232939D01*
X115845822Y-144235596D01*
X115844285Y-144251203D01*
X115480475Y-144251203D01*
X115480475Y-143902632D01*
X115638570Y-143902632D01*
X115654177Y-143901095D01*
X115683016Y-143889150D01*
X115705088Y-143867078D01*
X115717033Y-143838239D01*
X115717033Y-143807025D01*
X115705088Y-143778186D01*
X115683016Y-143756114D01*
X115654177Y-143744169D01*
X115638570Y-143742632D01*
X115480475Y-143742632D01*
X115480475Y-143489299D01*
X119320476Y-143489299D01*
X119320476Y-144489299D01*
X119322013Y-144504906D01*
X119333958Y-144533745D01*
X119356030Y-144555817D01*
X119384869Y-144567762D01*
X119416083Y-144567762D01*
X119444922Y-144555817D01*
X119466994Y-144533745D01*
X119478939Y-144504906D01*
X119480476Y-144489299D01*
X119480476Y-144093108D01*
X119596918Y-144093108D01*
X119906366Y-144535176D01*
X119916575Y-144547080D01*
X119942898Y-144563856D01*
X119973638Y-144569281D01*
X120004114Y-144562529D01*
X120029685Y-144544629D01*
X120046461Y-144518305D01*
X120051886Y-144487565D01*
X120045134Y-144457089D01*
X120037443Y-144443422D01*
X119791527Y-144092113D01*
X119797035Y-144091571D01*
X119799691Y-144090470D01*
X119802558Y-144090267D01*
X119817205Y-144084662D01*
X119912443Y-144037043D01*
X119919157Y-144032816D01*
X119921112Y-144032007D01*
X119923311Y-144030201D01*
X119925715Y-144028689D01*
X119927097Y-144027094D01*
X119933235Y-144022058D01*
X119980853Y-143974439D01*
X119985887Y-143968304D01*
X119987485Y-143966919D01*
X119988384Y-143965489D01*
X120272857Y-143965489D01*
X120272857Y-144346441D01*
X120274394Y-144362048D01*
X120275494Y-144364704D01*
X120275698Y-144367571D01*
X120281303Y-144382218D01*
X120328922Y-144477457D01*
X120330563Y-144480065D01*
X120330975Y-144481299D01*
X120332307Y-144482834D01*
X120337276Y-144490729D01*
X120344854Y-144497301D01*
X120351427Y-144504880D01*
X120359321Y-144509848D01*
X120360857Y-144511181D01*
X120362090Y-144511592D01*
X120364699Y-144513234D01*
X120459937Y-144560853D01*
X120474583Y-144566458D01*
X120477450Y-144566661D01*
X120480107Y-144567762D01*
X120495714Y-144569299D01*
X120686190Y-144569299D01*
X120701797Y-144567762D01*
X120704453Y-144566661D01*
X120707320Y-144566458D01*
X120721967Y-144560853D01*
X120817205Y-144513234D01*
X120830477Y-144504880D01*
X120850929Y-144481299D01*
X120860800Y-144451686D01*
X120858587Y-144420550D01*
X120844627Y-144392631D01*
X120821046Y-144372179D01*
X120791434Y-144362308D01*
X120760297Y-144364521D01*
X120745651Y-144370126D01*
X120667305Y-144409299D01*
X120514599Y-144409299D01*
X120460104Y-144382051D01*
X120432857Y-144327556D01*
X120432857Y-144221548D01*
X120844736Y-144139174D01*
X120859738Y-144134606D01*
X120866250Y-144130244D01*
X120873493Y-144127245D01*
X120879093Y-144121644D01*
X120885675Y-144117237D01*
X120890022Y-144110715D01*
X120895565Y-144105173D01*
X120898596Y-144097854D01*
X120902989Y-144091265D01*
X120904509Y-144083577D01*
X120907510Y-144076334D01*
X120909047Y-144060727D01*
X120909047Y-144013108D01*
X121130000Y-144013108D01*
X121130000Y-144298822D01*
X121131537Y-144314429D01*
X121132637Y-144317085D01*
X121132841Y-144319952D01*
X121138446Y-144334599D01*
X121186065Y-144429837D01*
X121190292Y-144436553D01*
X121191101Y-144438505D01*
X121192903Y-144440701D01*
X121194419Y-144443109D01*
X121196016Y-144444494D01*
X121201050Y-144450628D01*
X121248669Y-144498248D01*
X121254804Y-144503283D01*
X121256189Y-144504880D01*
X121258593Y-144506393D01*
X121260791Y-144508197D01*
X121262743Y-144509005D01*
X121269461Y-144513234D01*
X121364699Y-144560853D01*
X121379345Y-144566458D01*
X121382212Y-144566661D01*
X121384869Y-144567762D01*
X121400476Y-144569299D01*
X121590952Y-144569299D01*
X121606190Y-144567798D01*
X121606190Y-144613271D01*
X121572823Y-144680004D01*
X121543561Y-144709265D01*
X121476829Y-144742632D01*
X121371742Y-144742632D01*
X121293396Y-144703459D01*
X121278749Y-144697854D01*
X121247613Y-144695641D01*
X121218000Y-144705512D01*
X121194419Y-144725964D01*
X121180460Y-144753883D01*
X121178247Y-144785019D01*
X121188118Y-144814632D01*
X121208570Y-144838213D01*
X121221842Y-144846567D01*
X121317080Y-144894186D01*
X121331726Y-144899791D01*
X121334593Y-144899994D01*
X121337250Y-144901095D01*
X121352857Y-144902632D01*
X121495714Y-144902632D01*
X121511321Y-144901095D01*
X121513977Y-144899994D01*
X121516844Y-144899791D01*
X121531491Y-144894186D01*
X121626729Y-144846567D01*
X121633443Y-144842340D01*
X121635398Y-144841531D01*
X121637597Y-144839725D01*
X121640001Y-144838213D01*
X121641383Y-144836618D01*
X121647521Y-144831582D01*
X121695139Y-144783963D01*
X121700173Y-144777828D01*
X121701771Y-144776443D01*
X121703286Y-144774034D01*
X121705088Y-144771840D01*
X121705895Y-144769889D01*
X121710125Y-144763171D01*
X121757744Y-144667933D01*
X121763349Y-144653287D01*
X121763552Y-144650419D01*
X121764653Y-144647763D01*
X121766190Y-144632156D01*
X121766190Y-143822632D01*
X122082381Y-143822632D01*
X122082381Y-144346441D01*
X122083918Y-144362048D01*
X122085018Y-144364704D01*
X122085222Y-144367571D01*
X122090827Y-144382218D01*
X122138446Y-144477457D01*
X122140087Y-144480065D01*
X122140499Y-144481299D01*
X122141831Y-144482834D01*
X122146800Y-144490729D01*
X122154378Y-144497301D01*
X122160951Y-144504880D01*
X122168845Y-144509848D01*
X122170381Y-144511181D01*
X122171614Y-144511592D01*
X122174223Y-144513234D01*
X122269461Y-144560853D01*
X122284107Y-144566458D01*
X122286974Y-144566661D01*
X122289631Y-144567762D01*
X122305238Y-144569299D01*
X122448095Y-144569299D01*
X122463702Y-144567762D01*
X122466358Y-144566661D01*
X122469225Y-144566458D01*
X122483872Y-144560853D01*
X122528985Y-144538296D01*
X122546506Y-144555817D01*
X122575345Y-144567762D01*
X122606559Y-144567762D01*
X122635398Y-144555817D01*
X122657470Y-144533745D01*
X122669415Y-144504906D01*
X122670952Y-144489299D01*
X122670952Y-143822632D01*
X122669415Y-143807025D01*
X122657470Y-143778186D01*
X122635398Y-143756114D01*
X122606559Y-143744169D01*
X122575345Y-143744169D01*
X122546506Y-143756114D01*
X122524434Y-143778186D01*
X122512489Y-143807025D01*
X122510952Y-143822632D01*
X122510952Y-144360923D01*
X122495943Y-144375932D01*
X122429210Y-144409299D01*
X122324123Y-144409299D01*
X122269628Y-144382051D01*
X122242381Y-144327556D01*
X122242381Y-143822632D01*
X122240844Y-143807025D01*
X122228899Y-143778186D01*
X122206827Y-143756114D01*
X122177988Y-143744169D01*
X122146774Y-143744169D01*
X122117935Y-143756114D01*
X122095863Y-143778186D01*
X122083918Y-143807025D01*
X122082381Y-143822632D01*
X121766190Y-143822632D01*
X121764653Y-143807025D01*
X121752708Y-143778186D01*
X121730636Y-143756114D01*
X121701797Y-143744169D01*
X121670583Y-143744169D01*
X121641744Y-143756114D01*
X121640096Y-143757761D01*
X121626729Y-143751078D01*
X121612082Y-143745473D01*
X121609215Y-143745269D01*
X121606559Y-143744169D01*
X121590952Y-143742632D01*
X121400476Y-143742632D01*
X121384869Y-143744169D01*
X121382212Y-143745269D01*
X121379345Y-143745473D01*
X121364699Y-143751078D01*
X121269461Y-143798697D01*
X121262742Y-143802926D01*
X121260792Y-143803734D01*
X121258597Y-143805535D01*
X121256189Y-143807051D01*
X121254803Y-143808648D01*
X121248669Y-143813683D01*
X121201050Y-143861301D01*
X121196013Y-143867438D01*
X121194419Y-143868821D01*
X121192906Y-143871224D01*
X121191101Y-143873424D01*
X121190291Y-143875378D01*
X121186065Y-143882093D01*
X121138446Y-143977331D01*
X121132841Y-143991978D01*
X121132637Y-143994844D01*
X121131537Y-143997501D01*
X121130000Y-144013108D01*
X120909047Y-144013108D01*
X120909047Y-143965489D01*
X120907510Y-143949882D01*
X120906409Y-143947225D01*
X120906206Y-143944358D01*
X120900601Y-143929712D01*
X120852982Y-143834474D01*
X120851340Y-143831865D01*
X120850929Y-143830632D01*
X120849596Y-143829096D01*
X120844628Y-143821202D01*
X120837049Y-143814629D01*
X120830477Y-143807051D01*
X120822582Y-143802082D01*
X120821047Y-143800750D01*
X120819813Y-143800338D01*
X120817205Y-143798697D01*
X120721967Y-143751078D01*
X120707320Y-143745473D01*
X120704453Y-143745269D01*
X120701797Y-143744169D01*
X120686190Y-143742632D01*
X120495714Y-143742632D01*
X120480107Y-143744169D01*
X120477450Y-143745269D01*
X120474583Y-143745473D01*
X120459937Y-143751078D01*
X120364699Y-143798697D01*
X120362090Y-143800338D01*
X120360857Y-143800750D01*
X120359321Y-143802082D01*
X120351427Y-143807051D01*
X120344854Y-143814629D01*
X120337276Y-143821202D01*
X120332307Y-143829096D01*
X120330975Y-143830632D01*
X120330563Y-143831865D01*
X120328922Y-143834474D01*
X120281303Y-143929712D01*
X120275698Y-143944359D01*
X120275494Y-143947225D01*
X120274394Y-143949882D01*
X120272857Y-143965489D01*
X119988384Y-143965489D01*
X119989000Y-143964510D01*
X119990802Y-143962316D01*
X119991609Y-143960365D01*
X119995839Y-143953647D01*
X120043458Y-143858409D01*
X120049063Y-143843763D01*
X120049266Y-143840895D01*
X120050367Y-143838239D01*
X120051904Y-143822632D01*
X120051904Y-143679775D01*
X120050367Y-143664168D01*
X120049266Y-143661511D01*
X120049063Y-143658644D01*
X120043458Y-143643998D01*
X119995839Y-143548760D01*
X119991609Y-143542041D01*
X119990802Y-143540091D01*
X119989000Y-143537896D01*
X119987485Y-143535488D01*
X119985887Y-143534102D01*
X119980853Y-143527968D01*
X119942185Y-143489299D01*
X122987143Y-143489299D01*
X122987143Y-144346441D01*
X122988680Y-144362048D01*
X122989780Y-144364704D01*
X122989984Y-144367571D01*
X122995589Y-144382218D01*
X123043208Y-144477457D01*
X123044849Y-144480065D01*
X123045261Y-144481299D01*
X123046593Y-144482834D01*
X123051562Y-144490729D01*
X123059140Y-144497301D01*
X123065713Y-144504880D01*
X123073607Y-144509848D01*
X123075143Y-144511181D01*
X123076376Y-144511592D01*
X123078985Y-144513234D01*
X123174223Y-144560853D01*
X123188869Y-144566458D01*
X123220006Y-144568671D01*
X123249618Y-144558800D01*
X123273199Y-144538348D01*
X123287159Y-144510429D01*
X123289372Y-144479293D01*
X123279501Y-144449680D01*
X123259049Y-144426099D01*
X123245777Y-144417745D01*
X123174390Y-144382051D01*
X123147143Y-144327556D01*
X123147143Y-144251203D01*
X123463334Y-144251203D01*
X123463334Y-144346441D01*
X123464871Y-144362048D01*
X123465971Y-144364704D01*
X123466175Y-144367571D01*
X123471780Y-144382218D01*
X123519399Y-144477457D01*
X123521040Y-144480065D01*
X123521452Y-144481299D01*
X123522784Y-144482834D01*
X123527753Y-144490729D01*
X123535331Y-144497301D01*
X123541904Y-144504880D01*
X123549798Y-144509848D01*
X123551334Y-144511181D01*
X123552567Y-144511592D01*
X123555176Y-144513234D01*
X123650414Y-144560853D01*
X123665060Y-144566458D01*
X123667927Y-144566661D01*
X123670584Y-144567762D01*
X123686191Y-144569299D01*
X123924286Y-144569299D01*
X123939893Y-144567762D01*
X123942549Y-144566661D01*
X123945416Y-144566458D01*
X123960063Y-144560853D01*
X123973430Y-144554169D01*
X123975078Y-144555817D01*
X124003917Y-144567762D01*
X124035131Y-144567762D01*
X124063970Y-144555817D01*
X124086042Y-144533745D01*
X124097987Y-144504906D01*
X124099524Y-144489299D01*
X124099524Y-143965489D01*
X124097987Y-143949882D01*
X124096886Y-143947225D01*
X124096683Y-143944358D01*
X124091078Y-143929712D01*
X124043459Y-143834474D01*
X124041817Y-143831865D01*
X124041406Y-143830632D01*
X124040073Y-143829096D01*
X124035105Y-143821202D01*
X124027526Y-143814629D01*
X124020954Y-143807051D01*
X124020913Y-143807025D01*
X124274395Y-143807025D01*
X124274395Y-143838239D01*
X124286340Y-143867078D01*
X124308412Y-143889150D01*
X124337251Y-143901095D01*
X124352858Y-143902632D01*
X124415715Y-143902632D01*
X124415715Y-144346441D01*
X124417252Y-144362048D01*
X124418352Y-144364704D01*
X124418556Y-144367571D01*
X124424161Y-144382218D01*
X124471780Y-144477457D01*
X124473421Y-144480065D01*
X124473833Y-144481299D01*
X124475165Y-144482834D01*
X124480134Y-144490729D01*
X124487712Y-144497301D01*
X124494285Y-144504880D01*
X124502179Y-144509848D01*
X124503715Y-144511181D01*
X124504948Y-144511592D01*
X124507557Y-144513234D01*
X124602795Y-144560853D01*
X124617441Y-144566458D01*
X124620308Y-144566661D01*
X124622965Y-144567762D01*
X124638572Y-144569299D01*
X124733810Y-144569299D01*
X124749417Y-144567762D01*
X124778256Y-144555817D01*
X124800328Y-144533745D01*
X124812273Y-144504906D01*
X124812273Y-144473692D01*
X124800328Y-144444853D01*
X124778256Y-144422781D01*
X124749417Y-144410836D01*
X124733810Y-144409299D01*
X124657457Y-144409299D01*
X124602962Y-144382051D01*
X124575715Y-144327556D01*
X124575715Y-144013108D01*
X124939525Y-144013108D01*
X124939525Y-144298822D01*
X124941062Y-144314429D01*
X124942162Y-144317085D01*
X124942366Y-144319952D01*
X124947971Y-144334599D01*
X124995590Y-144429837D01*
X124999817Y-144436553D01*
X125000626Y-144438505D01*
X125002428Y-144440701D01*
X125003944Y-144443109D01*
X125005541Y-144444494D01*
X125010575Y-144450628D01*
X125058194Y-144498248D01*
X125064329Y-144503283D01*
X125065714Y-144504880D01*
X125068118Y-144506393D01*
X125070316Y-144508197D01*
X125072268Y-144509005D01*
X125078986Y-144513234D01*
X125174224Y-144560853D01*
X125188870Y-144566458D01*
X125191737Y-144566661D01*
X125194394Y-144567762D01*
X125210001Y-144569299D01*
X125352858Y-144569299D01*
X125368465Y-144567762D01*
X125371121Y-144566661D01*
X125373988Y-144566458D01*
X125388635Y-144560853D01*
X125483873Y-144513234D01*
X125490590Y-144509005D01*
X125492543Y-144508197D01*
X125494740Y-144506393D01*
X125497145Y-144504880D01*
X125498529Y-144503283D01*
X125504665Y-144498248D01*
X125552284Y-144450628D01*
X125557317Y-144444494D01*
X125558915Y-144443109D01*
X125560430Y-144440701D01*
X125562233Y-144438505D01*
X125563041Y-144436553D01*
X125567269Y-144429837D01*
X125614888Y-144334599D01*
X125620493Y-144319953D01*
X125620696Y-144317085D01*
X125621797Y-144314429D01*
X125623334Y-144298822D01*
X125623334Y-144013108D01*
X125621797Y-143997501D01*
X125620696Y-143994844D01*
X125620493Y-143991977D01*
X125614888Y-143977331D01*
X125567269Y-143882093D01*
X125563039Y-143875374D01*
X125562232Y-143873424D01*
X125560430Y-143871229D01*
X125558915Y-143868821D01*
X125557317Y-143867435D01*
X125552283Y-143861301D01*
X125513615Y-143822632D01*
X125891906Y-143822632D01*
X125891906Y-144489299D01*
X125893443Y-144504906D01*
X125905388Y-144533745D01*
X125927460Y-144555817D01*
X125956299Y-144567762D01*
X125987513Y-144567762D01*
X126016352Y-144555817D01*
X126038424Y-144533745D01*
X126050369Y-144504906D01*
X126051906Y-144489299D01*
X126051906Y-144031993D01*
X126085272Y-143965260D01*
X126114533Y-143935998D01*
X126181267Y-143902632D01*
X126257620Y-143902632D01*
X126273227Y-143901095D01*
X126302066Y-143889150D01*
X126324138Y-143867078D01*
X126336083Y-143838239D01*
X126336083Y-143807025D01*
X126324138Y-143778186D01*
X126302066Y-143756114D01*
X126273227Y-143744169D01*
X126257620Y-143742632D01*
X126162382Y-143742632D01*
X126146775Y-143744169D01*
X126144118Y-143745269D01*
X126141251Y-143745473D01*
X126126605Y-143751078D01*
X126044251Y-143792254D01*
X126038424Y-143778186D01*
X126016352Y-143756114D01*
X125987513Y-143744169D01*
X125956299Y-143744169D01*
X125927460Y-143756114D01*
X125905388Y-143778186D01*
X125893443Y-143807025D01*
X125891906Y-143822632D01*
X125513615Y-143822632D01*
X125504665Y-143813682D01*
X125498527Y-143808645D01*
X125497145Y-143807051D01*
X125494741Y-143805538D01*
X125492542Y-143803733D01*
X125490587Y-143802923D01*
X125483873Y-143798697D01*
X125388635Y-143751078D01*
X125373988Y-143745473D01*
X125371121Y-143745269D01*
X125368465Y-143744169D01*
X125352858Y-143742632D01*
X125210001Y-143742632D01*
X125194394Y-143744169D01*
X125191737Y-143745269D01*
X125188870Y-143745473D01*
X125174224Y-143751078D01*
X125078986Y-143798697D01*
X125072267Y-143802926D01*
X125070317Y-143803734D01*
X125068122Y-143805535D01*
X125065714Y-143807051D01*
X125064328Y-143808648D01*
X125058194Y-143813683D01*
X125010575Y-143861301D01*
X125005538Y-143867438D01*
X125003944Y-143868821D01*
X125002431Y-143871224D01*
X125000626Y-143873424D01*
X124999816Y-143875378D01*
X124995590Y-143882093D01*
X124947971Y-143977331D01*
X124942366Y-143991978D01*
X124942162Y-143994844D01*
X124941062Y-143997501D01*
X124939525Y-144013108D01*
X124575715Y-144013108D01*
X124575715Y-143902632D01*
X124733810Y-143902632D01*
X124749417Y-143901095D01*
X124778256Y-143889150D01*
X124800328Y-143867078D01*
X124812273Y-143838239D01*
X124812273Y-143807025D01*
X124800328Y-143778186D01*
X124778256Y-143756114D01*
X124749417Y-143744169D01*
X124733810Y-143742632D01*
X124575715Y-143742632D01*
X124575715Y-143489299D01*
X124574178Y-143473692D01*
X124562233Y-143444853D01*
X124540161Y-143422781D01*
X124511322Y-143410836D01*
X124480108Y-143410836D01*
X124451269Y-143422781D01*
X124429197Y-143444853D01*
X124417252Y-143473692D01*
X124415715Y-143489299D01*
X124415715Y-143742632D01*
X124352858Y-143742632D01*
X124337251Y-143744169D01*
X124308412Y-143756114D01*
X124286340Y-143778186D01*
X124274395Y-143807025D01*
X124020913Y-143807025D01*
X124013059Y-143802082D01*
X124011524Y-143800750D01*
X124010290Y-143800338D01*
X124007682Y-143798697D01*
X123912444Y-143751078D01*
X123897797Y-143745473D01*
X123894930Y-143745269D01*
X123892274Y-143744169D01*
X123876667Y-143742632D01*
X123686191Y-143742632D01*
X123670584Y-143744169D01*
X123667927Y-143745269D01*
X123665060Y-143745473D01*
X123650414Y-143751078D01*
X123555176Y-143798697D01*
X123541904Y-143807051D01*
X123521452Y-143830632D01*
X123511581Y-143860245D01*
X123513794Y-143891381D01*
X123527753Y-143919300D01*
X123551334Y-143939752D01*
X123580947Y-143949623D01*
X123612083Y-143947410D01*
X123626730Y-143941805D01*
X123705076Y-143902632D01*
X123857782Y-143902632D01*
X123912276Y-143929879D01*
X123939524Y-143984374D01*
X123939524Y-144011284D01*
X123905401Y-144028346D01*
X123686191Y-144028346D01*
X123670584Y-144029883D01*
X123667927Y-144030983D01*
X123665060Y-144031187D01*
X123650414Y-144036792D01*
X123555176Y-144084411D01*
X123552567Y-144086052D01*
X123551334Y-144086464D01*
X123549798Y-144087796D01*
X123541904Y-144092765D01*
X123535331Y-144100343D01*
X123527753Y-144106916D01*
X123522784Y-144114810D01*
X123521452Y-144116346D01*
X123521040Y-144117579D01*
X123519399Y-144120188D01*
X123471780Y-144215426D01*
X123466175Y-144230073D01*
X123465971Y-144232939D01*
X123464871Y-144235596D01*
X123463334Y-144251203D01*
X123147143Y-144251203D01*
X123147143Y-143489299D01*
X123145606Y-143473692D01*
X123133661Y-143444853D01*
X123111589Y-143422781D01*
X123082750Y-143410836D01*
X123051536Y-143410836D01*
X123022697Y-143422781D01*
X123000625Y-143444853D01*
X122988680Y-143473692D01*
X122987143Y-143489299D01*
X119942185Y-143489299D01*
X119933235Y-143480349D01*
X119927097Y-143475312D01*
X119925715Y-143473718D01*
X119923311Y-143472205D01*
X119921112Y-143470400D01*
X119919157Y-143469590D01*
X119912443Y-143465364D01*
X119817205Y-143417745D01*
X119802558Y-143412140D01*
X119799691Y-143411936D01*
X119797035Y-143410836D01*
X119781428Y-143409299D01*
X119400476Y-143409299D01*
X119384869Y-143410836D01*
X119356030Y-143422781D01*
X119333958Y-143444853D01*
X119322013Y-143473692D01*
X119320476Y-143489299D01*
X115480475Y-143489299D01*
X115478938Y-143473692D01*
X115466993Y-143444853D01*
X115444921Y-143422781D01*
X115416082Y-143410836D01*
X115384868Y-143410836D01*
X115356029Y-143422781D01*
X115333957Y-143444853D01*
X115322012Y-143473692D01*
X115320475Y-143489299D01*
X115320475Y-143742632D01*
X115257618Y-143742632D01*
X115242011Y-143744169D01*
X115213172Y-143756114D01*
X115191100Y-143778186D01*
X115179155Y-143807025D01*
X114956665Y-143807025D01*
X114956665Y-143489299D01*
X114955128Y-143473692D01*
X114943183Y-143444853D01*
X114921111Y-143422781D01*
X114892272Y-143410836D01*
X114861058Y-143410836D01*
X114832219Y-143422781D01*
X114810147Y-143444853D01*
X114798202Y-143473692D01*
X114796665Y-143489299D01*
X113717230Y-143489299D01*
X113715728Y-143468169D01*
X113701769Y-143440250D01*
X113678187Y-143419798D01*
X113648575Y-143409928D01*
X113617438Y-143412140D01*
X113589519Y-143426099D01*
X113569068Y-143449681D01*
X113562674Y-143464001D01*
X113305236Y-144236315D01*
X113047798Y-143464001D01*
X113041404Y-143449681D01*
X113020952Y-143426099D01*
X112993033Y-143412139D01*
X112961897Y-143409927D01*
X112932285Y-143419798D01*
X112908703Y-143440250D01*
X112894743Y-143468169D01*
X112892531Y-143499305D01*
X111051902Y-143499305D01*
X111051902Y-143489299D01*
X111050365Y-143473692D01*
X111038420Y-143444853D01*
X111016348Y-143422781D01*
X110987509Y-143410836D01*
X110956295Y-143410836D01*
X110927456Y-143422781D01*
X110905384Y-143444853D01*
X110893439Y-143473692D01*
X110891902Y-143489299D01*
X108369149Y-143489299D01*
X108361804Y-143480349D01*
X108314186Y-143432730D01*
X108302063Y-143422781D01*
X108273224Y-143410836D01*
X108242009Y-143410836D01*
X108235810Y-143413404D01*
X108213171Y-143422781D01*
X108213165Y-143422786D01*
X108201048Y-143432731D01*
X108153429Y-143480349D01*
X108143480Y-143492472D01*
X108131535Y-143521311D01*
X107906596Y-143521311D01*
X107906204Y-143515788D01*
X107892245Y-143487868D01*
X107868663Y-143467417D01*
X107854343Y-143461023D01*
X107711486Y-143413404D01*
X107703746Y-143411644D01*
X107701795Y-143410836D01*
X107698966Y-143410557D01*
X107696194Y-143409927D01*
X107694085Y-143410076D01*
X107686188Y-143409299D01*
X107448093Y-143409299D01*
X107432486Y-143410836D01*
X107429829Y-143411936D01*
X107426962Y-143412140D01*
X107412316Y-143417745D01*
X107317078Y-143465364D01*
X107310359Y-143469593D01*
X107308409Y-143470401D01*
X107306214Y-143472202D01*
X107303806Y-143473718D01*
X107302420Y-143475315D01*
X107296286Y-143480350D01*
X107248667Y-143527968D01*
X107243630Y-143534105D01*
X107242036Y-143535488D01*
X107240523Y-143537891D01*
X107238718Y-143540091D01*
X107237908Y-143542045D01*
X107233682Y-143548760D01*
X107186063Y-143643998D01*
X107180458Y-143658645D01*
X107180254Y-143661511D01*
X107179154Y-143664168D01*
X107177617Y-143679775D01*
X107066506Y-143679775D01*
X107066506Y-143298188D01*
X126447194Y-143298188D01*
X126447194Y-145013743D01*
G37*
D12*
X106909580Y-139226666D02*
X106957200Y-139274285D01*
X106957200Y-139274285D02*
X107004819Y-139417142D01*
X107004819Y-139417142D02*
X107004819Y-139512380D01*
X107004819Y-139512380D02*
X106957200Y-139655237D01*
X106957200Y-139655237D02*
X106861961Y-139750475D01*
X106861961Y-139750475D02*
X106766723Y-139798094D01*
X106766723Y-139798094D02*
X106576247Y-139845713D01*
X106576247Y-139845713D02*
X106433390Y-139845713D01*
X106433390Y-139845713D02*
X106242914Y-139798094D01*
X106242914Y-139798094D02*
X106147676Y-139750475D01*
X106147676Y-139750475D02*
X106052438Y-139655237D01*
X106052438Y-139655237D02*
X106004819Y-139512380D01*
X106004819Y-139512380D02*
X106004819Y-139417142D01*
X106004819Y-139417142D02*
X106052438Y-139274285D01*
X106052438Y-139274285D02*
X106100057Y-139226666D01*
X106004819Y-138893332D02*
X106004819Y-138274285D01*
X106004819Y-138274285D02*
X106385771Y-138607618D01*
X106385771Y-138607618D02*
X106385771Y-138464761D01*
X106385771Y-138464761D02*
X106433390Y-138369523D01*
X106433390Y-138369523D02*
X106481009Y-138321904D01*
X106481009Y-138321904D02*
X106576247Y-138274285D01*
X106576247Y-138274285D02*
X106814342Y-138274285D01*
X106814342Y-138274285D02*
X106909580Y-138321904D01*
X106909580Y-138321904D02*
X106957200Y-138369523D01*
X106957200Y-138369523D02*
X107004819Y-138464761D01*
X107004819Y-138464761D02*
X107004819Y-138750475D01*
X107004819Y-138750475D02*
X106957200Y-138845713D01*
X106957200Y-138845713D02*
X106909580Y-138893332D01*
X118889580Y-135066666D02*
X118937200Y-135114285D01*
X118937200Y-135114285D02*
X118984819Y-135257142D01*
X118984819Y-135257142D02*
X118984819Y-135352380D01*
X118984819Y-135352380D02*
X118937200Y-135495237D01*
X118937200Y-135495237D02*
X118841961Y-135590475D01*
X118841961Y-135590475D02*
X118746723Y-135638094D01*
X118746723Y-135638094D02*
X118556247Y-135685713D01*
X118556247Y-135685713D02*
X118413390Y-135685713D01*
X118413390Y-135685713D02*
X118222914Y-135638094D01*
X118222914Y-135638094D02*
X118127676Y-135590475D01*
X118127676Y-135590475D02*
X118032438Y-135495237D01*
X118032438Y-135495237D02*
X117984819Y-135352380D01*
X117984819Y-135352380D02*
X117984819Y-135257142D01*
X117984819Y-135257142D02*
X118032438Y-135114285D01*
X118032438Y-135114285D02*
X118080057Y-135066666D01*
X117984819Y-134161904D02*
X117984819Y-134638094D01*
X117984819Y-134638094D02*
X118461009Y-134685713D01*
X118461009Y-134685713D02*
X118413390Y-134638094D01*
X118413390Y-134638094D02*
X118365771Y-134542856D01*
X118365771Y-134542856D02*
X118365771Y-134304761D01*
X118365771Y-134304761D02*
X118413390Y-134209523D01*
X118413390Y-134209523D02*
X118461009Y-134161904D01*
X118461009Y-134161904D02*
X118556247Y-134114285D01*
X118556247Y-134114285D02*
X118794342Y-134114285D01*
X118794342Y-134114285D02*
X118889580Y-134161904D01*
X118889580Y-134161904D02*
X118937200Y-134209523D01*
X118937200Y-134209523D02*
X118984819Y-134304761D01*
X118984819Y-134304761D02*
X118984819Y-134542856D01*
X118984819Y-134542856D02*
X118937200Y-134638094D01*
X118937200Y-134638094D02*
X118889580Y-134685713D01*
X104199580Y-145186666D02*
X104247200Y-145234285D01*
X104247200Y-145234285D02*
X104294819Y-145377142D01*
X104294819Y-145377142D02*
X104294819Y-145472380D01*
X104294819Y-145472380D02*
X104247200Y-145615237D01*
X104247200Y-145615237D02*
X104151961Y-145710475D01*
X104151961Y-145710475D02*
X104056723Y-145758094D01*
X104056723Y-145758094D02*
X103866247Y-145805713D01*
X103866247Y-145805713D02*
X103723390Y-145805713D01*
X103723390Y-145805713D02*
X103532914Y-145758094D01*
X103532914Y-145758094D02*
X103437676Y-145710475D01*
X103437676Y-145710475D02*
X103342438Y-145615237D01*
X103342438Y-145615237D02*
X103294819Y-145472380D01*
X103294819Y-145472380D02*
X103294819Y-145377142D01*
X103294819Y-145377142D02*
X103342438Y-145234285D01*
X103342438Y-145234285D02*
X103390057Y-145186666D01*
X103628152Y-144329523D02*
X104294819Y-144329523D01*
X103247200Y-144567618D02*
X103961485Y-144805713D01*
X103961485Y-144805713D02*
X103961485Y-144186666D01*
X105999580Y-128066666D02*
X106047200Y-128114285D01*
X106047200Y-128114285D02*
X106094819Y-128257142D01*
X106094819Y-128257142D02*
X106094819Y-128352380D01*
X106094819Y-128352380D02*
X106047200Y-128495237D01*
X106047200Y-128495237D02*
X105951961Y-128590475D01*
X105951961Y-128590475D02*
X105856723Y-128638094D01*
X105856723Y-128638094D02*
X105666247Y-128685713D01*
X105666247Y-128685713D02*
X105523390Y-128685713D01*
X105523390Y-128685713D02*
X105332914Y-128638094D01*
X105332914Y-128638094D02*
X105237676Y-128590475D01*
X105237676Y-128590475D02*
X105142438Y-128495237D01*
X105142438Y-128495237D02*
X105094819Y-128352380D01*
X105094819Y-128352380D02*
X105094819Y-128257142D01*
X105094819Y-128257142D02*
X105142438Y-128114285D01*
X105142438Y-128114285D02*
X105190057Y-128066666D01*
X105190057Y-127685713D02*
X105142438Y-127638094D01*
X105142438Y-127638094D02*
X105094819Y-127542856D01*
X105094819Y-127542856D02*
X105094819Y-127304761D01*
X105094819Y-127304761D02*
X105142438Y-127209523D01*
X105142438Y-127209523D02*
X105190057Y-127161904D01*
X105190057Y-127161904D02*
X105285295Y-127114285D01*
X105285295Y-127114285D02*
X105380533Y-127114285D01*
X105380533Y-127114285D02*
X105523390Y-127161904D01*
X105523390Y-127161904D02*
X106094819Y-127733332D01*
X106094819Y-127733332D02*
X106094819Y-127114285D01*
X96769580Y-127206666D02*
X96817200Y-127254285D01*
X96817200Y-127254285D02*
X96864819Y-127397142D01*
X96864819Y-127397142D02*
X96864819Y-127492380D01*
X96864819Y-127492380D02*
X96817200Y-127635237D01*
X96817200Y-127635237D02*
X96721961Y-127730475D01*
X96721961Y-127730475D02*
X96626723Y-127778094D01*
X96626723Y-127778094D02*
X96436247Y-127825713D01*
X96436247Y-127825713D02*
X96293390Y-127825713D01*
X96293390Y-127825713D02*
X96102914Y-127778094D01*
X96102914Y-127778094D02*
X96007676Y-127730475D01*
X96007676Y-127730475D02*
X95912438Y-127635237D01*
X95912438Y-127635237D02*
X95864819Y-127492380D01*
X95864819Y-127492380D02*
X95864819Y-127397142D01*
X95864819Y-127397142D02*
X95912438Y-127254285D01*
X95912438Y-127254285D02*
X95960057Y-127206666D01*
X96864819Y-126254285D02*
X96864819Y-126825713D01*
X96864819Y-126539999D02*
X95864819Y-126539999D01*
X95864819Y-126539999D02*
X96007676Y-126635237D01*
X96007676Y-126635237D02*
X96102914Y-126730475D01*
X96102914Y-126730475D02*
X96150533Y-126825713D01*
X127889819Y-135238333D02*
X128604104Y-135238333D01*
X128604104Y-135238333D02*
X128746961Y-135285952D01*
X128746961Y-135285952D02*
X128842200Y-135381190D01*
X128842200Y-135381190D02*
X128889819Y-135524047D01*
X128889819Y-135524047D02*
X128889819Y-135619285D01*
X128889819Y-134238333D02*
X128889819Y-134809761D01*
X128889819Y-134524047D02*
X127889819Y-134524047D01*
X127889819Y-134524047D02*
X128032676Y-134619285D01*
X128032676Y-134619285D02*
X128127914Y-134714523D01*
X128127914Y-134714523D02*
X128175533Y-134809761D01*
X95254819Y-135233333D02*
X95969104Y-135233333D01*
X95969104Y-135233333D02*
X96111961Y-135280952D01*
X96111961Y-135280952D02*
X96207200Y-135376190D01*
X96207200Y-135376190D02*
X96254819Y-135519047D01*
X96254819Y-135519047D02*
X96254819Y-135614285D01*
X95350057Y-134804761D02*
X95302438Y-134757142D01*
X95302438Y-134757142D02*
X95254819Y-134661904D01*
X95254819Y-134661904D02*
X95254819Y-134423809D01*
X95254819Y-134423809D02*
X95302438Y-134328571D01*
X95302438Y-134328571D02*
X95350057Y-134280952D01*
X95350057Y-134280952D02*
X95445295Y-134233333D01*
X95445295Y-134233333D02*
X95540533Y-134233333D01*
X95540533Y-134233333D02*
X95683390Y-134280952D01*
X95683390Y-134280952D02*
X96254819Y-134852380D01*
X96254819Y-134852380D02*
X96254819Y-134233333D01*
X112028095Y-128774819D02*
X112028095Y-129584342D01*
X112028095Y-129584342D02*
X112075714Y-129679580D01*
X112075714Y-129679580D02*
X112123333Y-129727200D01*
X112123333Y-129727200D02*
X112218571Y-129774819D01*
X112218571Y-129774819D02*
X112409047Y-129774819D01*
X112409047Y-129774819D02*
X112504285Y-129727200D01*
X112504285Y-129727200D02*
X112551904Y-129679580D01*
X112551904Y-129679580D02*
X112599523Y-129584342D01*
X112599523Y-129584342D02*
X112599523Y-128774819D01*
X113028095Y-128870057D02*
X113075714Y-128822438D01*
X113075714Y-128822438D02*
X113170952Y-128774819D01*
X113170952Y-128774819D02*
X113409047Y-128774819D01*
X113409047Y-128774819D02*
X113504285Y-128822438D01*
X113504285Y-128822438D02*
X113551904Y-128870057D01*
X113551904Y-128870057D02*
X113599523Y-128965295D01*
X113599523Y-128965295D02*
X113599523Y-129060533D01*
X113599523Y-129060533D02*
X113551904Y-129203390D01*
X113551904Y-129203390D02*
X112980476Y-129774819D01*
X112980476Y-129774819D02*
X113599523Y-129774819D01*
D13*
%TO.C,C3*%
X104930000Y-137602164D02*
X104930000Y-137817836D01*
X105650000Y-137602164D02*
X105650000Y-137817836D01*
%TO.C,C5*%
X119470000Y-131490000D02*
X121820000Y-131490000D01*
X119470000Y-137245563D02*
X119470000Y-131490000D01*
X120534437Y-138310000D02*
X119470000Y-137245563D01*
X120534437Y-138310000D02*
X121820000Y-138310000D01*
X120638750Y-138943750D02*
X121426250Y-138943750D01*
X121032500Y-139337500D02*
X121032500Y-138550000D01*
X125225563Y-138310000D02*
X123940000Y-138310000D01*
X125225563Y-138310000D02*
X126290000Y-137245563D01*
X126290000Y-131490000D02*
X123940000Y-131490000D01*
X126290000Y-137245563D02*
X126290000Y-131490000D01*
%TO.C,C4*%
X97500000Y-137664437D02*
X97500000Y-143420000D01*
X97500000Y-143420000D02*
X99850000Y-143420000D01*
X98564437Y-136600000D02*
X97500000Y-137664437D01*
X98564437Y-136600000D02*
X99850000Y-136600000D01*
X102757500Y-135572500D02*
X102757500Y-136360000D01*
X103151250Y-135966250D02*
X102363750Y-135966250D01*
X103255563Y-136600000D02*
X101970000Y-136600000D01*
X103255563Y-136600000D02*
X104320000Y-137664437D01*
X104320000Y-137664437D02*
X104320000Y-143420000D01*
X104320000Y-143420000D02*
X101970000Y-143420000D01*
%TO.C,C2*%
X105110000Y-130397836D02*
X105110000Y-130182164D01*
X105830000Y-130397836D02*
X105830000Y-130182164D01*
%TO.C,C1*%
X97420000Y-126320000D02*
X99770000Y-126320000D01*
X97420000Y-132075563D02*
X97420000Y-126320000D01*
X98484437Y-133140000D02*
X97420000Y-132075563D01*
X98484437Y-133140000D02*
X99770000Y-133140000D01*
X98588750Y-133773750D02*
X99376250Y-133773750D01*
X98982500Y-134167500D02*
X98982500Y-133380000D01*
X103175563Y-133140000D02*
X101890000Y-133140000D01*
X103175563Y-133140000D02*
X104240000Y-132075563D01*
X104240000Y-126320000D02*
X101890000Y-126320000D01*
X104240000Y-132075563D02*
X104240000Y-126320000D01*
%TO.C,J1*%
X129434000Y-129765000D02*
X139355000Y-129765000D01*
X129434000Y-140045000D02*
X129434000Y-129765000D01*
X129434000Y-140045000D02*
X139355000Y-140045000D01*
X132394000Y-140045000D02*
X132394000Y-129765000D01*
X133420000Y-131295000D02*
X133456000Y-131330000D01*
X133626000Y-131090000D02*
X133672000Y-131137000D01*
X135718000Y-133592000D02*
X135764000Y-133639000D01*
X135934000Y-133399000D02*
X135969000Y-133434000D01*
X137295000Y-140045000D02*
X137295000Y-129765000D01*
X138795000Y-140045000D02*
X138795000Y-129765000D01*
X138855000Y-140285000D02*
X139595000Y-140285000D01*
X139355000Y-140045000D02*
X139355000Y-129765000D01*
X139595000Y-140285000D02*
X139595000Y-139785000D01*
X133159573Y-138128042D02*
G75*
G02*
X133160000Y-136761000I1535420J683041D01*
G01*
X134011958Y-135909573D02*
G75*
G02*
X135379000Y-135910000I683042J-1535427D01*
G01*
X135378042Y-138980427D02*
G75*
G02*
X134011000Y-138980000I-683041J1535420D01*
G01*
X136229756Y-136761682D02*
G75*
G02*
X136375000Y-137445000I-1534756J-683318D01*
G01*
X136375253Y-137416195D02*
G75*
G02*
X136230000Y-138129000I-1680254J-28806D01*
G01*
X136375000Y-132365000D02*
G75*
G02*
X133015000Y-132365000I-1680000J0D01*
G01*
X133015000Y-132365000D02*
G75*
G02*
X136375000Y-132365000I1680000J0D01*
G01*
%TO.C,J2*%
X89900000Y-131090000D02*
X90160000Y-131090000D01*
X90160000Y-138710000D02*
X89900000Y-138710000D01*
X92440000Y-131090000D02*
X94210000Y-131090000D01*
X94210000Y-131090000D02*
X94210000Y-131470000D01*
X94210000Y-138710000D02*
X92440000Y-138710000D01*
X94210000Y-138710000D02*
X94210000Y-138330000D01*
%TO.C,U2*%
X109480000Y-130370000D02*
X109480000Y-130640000D01*
X109480000Y-137270000D02*
X109480000Y-137000000D01*
X115900000Y-130370000D02*
X109480000Y-130370000D01*
X115900000Y-137270000D02*
X109480000Y-137270000D01*
X107750000Y-130680000D02*
X107410000Y-130210000D01*
X108090000Y-130210000D01*
X107750000Y-130680000D01*
G36*
X107750000Y-130680000D02*
G01*
X107410000Y-130210000D01*
X108090000Y-130210000D01*
X107750000Y-130680000D01*
G37*
%TD*%
M02*
