%TF.GenerationSoftware,KiCad,Pcbnew,8.0.7*%
%TF.CreationDate,2026-09-19T18:29:20+03:00*%
%TF.ProjectId,DC_DC_Power_Supply_5V_3.3V,44435f44-435f-4506-9f77-65725f537570,rev?*%
%TF.SameCoordinates,Original*%
%TF.FileFunction,Copper,L2,Bot*%
%TF.FilePolarity,Positive*%
%FSLAX46Y46*%
G04 Gerber Fmt 4.6, Leading zero omitted, Abs format (unit mm)*
G04 Created by KiCad (PCBNEW 8.0.7) date 2026-09-19 18:29:20*
%MOMM*%
%LPD*%
G01*
G04 APERTURE LIST*
%TA.AperFunction,ComponentPad*%
%ADD10R,2.600000X2.600000*%
%TD*%
%TA.AperFunction,ComponentPad*%
%ADD11C,2.600000*%
%TD*%
%TA.AperFunction,ViaPad*%
%ADD12C,0.800000*%
%TD*%
G04 APERTURE END LIST*
D10*
%TO.P,J1,1,Pin_1*%
%TO.N,+3.3V*%
X134695000Y-137445000D03*
D11*
%TO.P,J1,2,Pin_2*%
%TO.N,GND*%
X134695000Y-132365000D03*
%TD*%
D12*
%TO.N,GND*%
X105860000Y-146030000D03*
X136991301Y-133578772D03*
X130161369Y-131452899D03*
X93863335Y-143770000D03*
X103800000Y-140210000D03*
X138235162Y-131973059D03*
X90783333Y-140230000D03*
X102363332Y-124480000D03*
X92786665Y-125600000D03*
X95850000Y-123440000D03*
X107503335Y-126720000D03*
X94029999Y-140230000D03*
X93903335Y-142650000D03*
X96120000Y-146030000D03*
X104910000Y-139400000D03*
X100939999Y-145180000D03*
X105610000Y-124480000D03*
X131766666Y-130120000D03*
X93989999Y-141350000D03*
X130143333Y-130120000D03*
X136968685Y-132108753D03*
X131721850Y-131498130D03*
X104186665Y-145180000D03*
X106773333Y-128750000D03*
X135113332Y-128600000D03*
X130243333Y-128600000D03*
X99610000Y-142810000D03*
X94370000Y-126720000D03*
X130753333Y-145750000D03*
X138870000Y-145750000D03*
X105810000Y-145180000D03*
X120230000Y-132380000D03*
X100989999Y-146030000D03*
X97693333Y-145180000D03*
X131586666Y-126410000D03*
X89370000Y-128250000D03*
X128340000Y-126410000D03*
X133719999Y-143560000D03*
X89160000Y-140230000D03*
X135013332Y-130120000D03*
X133489999Y-128600000D03*
X108483333Y-123420000D03*
X108383333Y-124730000D03*
X135623332Y-145750000D03*
X108496666Y-127440000D03*
X99366666Y-146030000D03*
X131495694Y-133669234D03*
X103966665Y-123440000D03*
X96070000Y-145180000D03*
X89120000Y-141350000D03*
X99116666Y-124480000D03*
X102563332Y-145180000D03*
X129963333Y-126410000D03*
X92746665Y-126720000D03*
X137246665Y-145750000D03*
X125410000Y-132450000D03*
X99316666Y-145180000D03*
X136636665Y-130120000D03*
X106940000Y-129750000D03*
X136736665Y-128600000D03*
X102660000Y-141660000D03*
X138080000Y-126410000D03*
X128850000Y-143560000D03*
X106760000Y-124730000D03*
X136966665Y-143560000D03*
X129130000Y-145750000D03*
X104236665Y-146030000D03*
X132096666Y-143560000D03*
X130048291Y-132583682D03*
X131337384Y-132538451D03*
X138590000Y-143560000D03*
X90953333Y-129370000D03*
X94410000Y-125600000D03*
X103986665Y-124480000D03*
X108396666Y-128750000D03*
X108670000Y-130230000D03*
X129870000Y-133960000D03*
X94199999Y-129370000D03*
X134833332Y-126410000D03*
X103760000Y-142760000D03*
X133999999Y-145750000D03*
X103160000Y-127020000D03*
X136456665Y-126410000D03*
X138506550Y-133307384D03*
X92576666Y-129370000D03*
X98380000Y-127500000D03*
X99096666Y-123440000D03*
X105590000Y-123440000D03*
X92366666Y-141350000D03*
X128520000Y-130120000D03*
X89330000Y-129370000D03*
X106860000Y-123420000D03*
X131866666Y-128600000D03*
X103060000Y-128750000D03*
X92240000Y-143770000D03*
X90743333Y-141350000D03*
X94239999Y-128250000D03*
X133389999Y-130120000D03*
X105250000Y-127440000D03*
X97493333Y-124480000D03*
X92280000Y-142650000D03*
X100719999Y-123440000D03*
X97743333Y-146030000D03*
X105980000Y-125410000D03*
X106873333Y-127440000D03*
X97473333Y-123440000D03*
X128620000Y-128600000D03*
X132376666Y-145750000D03*
X90993333Y-128250000D03*
X138360000Y-128600000D03*
X138260000Y-130120000D03*
X102343332Y-123440000D03*
X107603335Y-125410000D03*
X92406666Y-140230000D03*
X105150000Y-128750000D03*
X133209999Y-126410000D03*
X104930000Y-140740000D03*
X132920481Y-133895391D03*
X105880000Y-126720000D03*
X125410000Y-134080000D03*
X102613332Y-146030000D03*
X95870000Y-124480000D03*
X100739999Y-124480000D03*
X92616666Y-128250000D03*
X135343332Y-143560000D03*
X130473333Y-143560000D03*
%TD*%
%TA.AperFunction,Conductor*%
%TO.N,GND*%
G36*
X139682539Y-122840185D02*
G01*
X139728294Y-122892989D01*
X139739500Y-122944500D01*
X139739500Y-146345500D01*
X139719815Y-146412539D01*
X139667011Y-146458294D01*
X139615500Y-146469500D01*
X88724500Y-146469500D01*
X88657461Y-146449815D01*
X88611706Y-146397011D01*
X88600500Y-146345500D01*
X88600500Y-136097135D01*
X132894500Y-136097135D01*
X132894500Y-138792870D01*
X132894501Y-138792876D01*
X132900908Y-138852483D01*
X132951202Y-138987328D01*
X132951206Y-138987335D01*
X133037452Y-139102544D01*
X133037455Y-139102547D01*
X133152664Y-139188793D01*
X133152671Y-139188797D01*
X133287517Y-139239091D01*
X133287516Y-139239091D01*
X133294444Y-139239835D01*
X133347127Y-139245500D01*
X136042872Y-139245499D01*
X136102483Y-139239091D01*
X136237331Y-139188796D01*
X136352546Y-139102546D01*
X136438796Y-138987331D01*
X136489091Y-138852483D01*
X136495500Y-138792873D01*
X136495499Y-136097128D01*
X136489091Y-136037517D01*
X136438796Y-135902669D01*
X136438795Y-135902668D01*
X136438793Y-135902664D01*
X136352547Y-135787455D01*
X136352544Y-135787452D01*
X136237335Y-135701206D01*
X136237328Y-135701202D01*
X136102482Y-135650908D01*
X136102483Y-135650908D01*
X136042883Y-135644501D01*
X136042881Y-135644500D01*
X136042873Y-135644500D01*
X136042864Y-135644500D01*
X133347129Y-135644500D01*
X133347123Y-135644501D01*
X133287516Y-135650908D01*
X133152671Y-135701202D01*
X133152664Y-135701206D01*
X133037455Y-135787452D01*
X133037452Y-135787455D01*
X132951206Y-135902664D01*
X132951202Y-135902671D01*
X132900908Y-136037517D01*
X132894501Y-136097116D01*
X132894501Y-136097123D01*
X132894500Y-136097135D01*
X88600500Y-136097135D01*
X88600500Y-122944500D01*
X88620185Y-122877461D01*
X88672989Y-122831706D01*
X88724500Y-122820500D01*
X139615500Y-122820500D01*
X139682539Y-122840185D01*
G37*
%TD.AperFunction*%
%TD*%
M02*
