%TF.GenerationSoftware,KiCad,Pcbnew,8.0.7*%
%TF.CreationDate,2026-10-07T13:15:29+03:00*%
%TF.ProjectId,Assignment_1_Power_Supply,41737369-676e-46d6-956e-745f315f506f,rev?*%
%TF.SameCoordinates,Original*%
%TF.FileFunction,Legend,Top*%
%TF.FilePolarity,Positive*%
%FSLAX46Y46*%
G04 Gerber Fmt 4.6, Leading zero omitted, Abs format (unit mm)*
G04 Created by KiCad (PCBNEW 8.0.7) date 2026-10-07 13:15:29*
%MOMM*%
%LPD*%
G01*
G04 APERTURE LIST*
%ADD10C,0.100000*%
%ADD11C,0.150000*%
%ADD12C,0.120000*%
G04 APERTURE END LIST*
D10*
X59385789Y-158265405D02*
X59052455Y-158265405D01*
X59052455Y-158265405D02*
X59019122Y-158551119D01*
X59019122Y-158551119D02*
X59052455Y-158522548D01*
X59052455Y-158522548D02*
X59119122Y-158493976D01*
X59119122Y-158493976D02*
X59285789Y-158493976D01*
X59285789Y-158493976D02*
X59352455Y-158522548D01*
X59352455Y-158522548D02*
X59385789Y-158551119D01*
X59385789Y-158551119D02*
X59419122Y-158608262D01*
X59419122Y-158608262D02*
X59419122Y-158751119D01*
X59419122Y-158751119D02*
X59385789Y-158808262D01*
X59385789Y-158808262D02*
X59352455Y-158836834D01*
X59352455Y-158836834D02*
X59285789Y-158865405D01*
X59285789Y-158865405D02*
X59119122Y-158865405D01*
X59119122Y-158865405D02*
X59052455Y-158836834D01*
X59052455Y-158836834D02*
X59019122Y-158808262D01*
X59752456Y-158836834D02*
X59752456Y-158865405D01*
X59752456Y-158865405D02*
X59719122Y-158922548D01*
X59719122Y-158922548D02*
X59685789Y-158951119D01*
X59985789Y-158265405D02*
X60419122Y-158265405D01*
X60419122Y-158265405D02*
X60185789Y-158493976D01*
X60185789Y-158493976D02*
X60285789Y-158493976D01*
X60285789Y-158493976D02*
X60352455Y-158522548D01*
X60352455Y-158522548D02*
X60385789Y-158551119D01*
X60385789Y-158551119D02*
X60419122Y-158608262D01*
X60419122Y-158608262D02*
X60419122Y-158751119D01*
X60419122Y-158751119D02*
X60385789Y-158808262D01*
X60385789Y-158808262D02*
X60352455Y-158836834D01*
X60352455Y-158836834D02*
X60285789Y-158865405D01*
X60285789Y-158865405D02*
X60085789Y-158865405D01*
X60085789Y-158865405D02*
X60019122Y-158836834D01*
X60019122Y-158836834D02*
X59985789Y-158808262D01*
X60719122Y-158808262D02*
X60752456Y-158836834D01*
X60752456Y-158836834D02*
X60719122Y-158865405D01*
X60719122Y-158865405D02*
X60685789Y-158836834D01*
X60685789Y-158836834D02*
X60719122Y-158808262D01*
X60719122Y-158808262D02*
X60719122Y-158865405D01*
X60985789Y-158265405D02*
X61419122Y-158265405D01*
X61419122Y-158265405D02*
X61185789Y-158493976D01*
X61185789Y-158493976D02*
X61285789Y-158493976D01*
X61285789Y-158493976D02*
X61352455Y-158522548D01*
X61352455Y-158522548D02*
X61385789Y-158551119D01*
X61385789Y-158551119D02*
X61419122Y-158608262D01*
X61419122Y-158608262D02*
X61419122Y-158751119D01*
X61419122Y-158751119D02*
X61385789Y-158808262D01*
X61385789Y-158808262D02*
X61352455Y-158836834D01*
X61352455Y-158836834D02*
X61285789Y-158865405D01*
X61285789Y-158865405D02*
X61085789Y-158865405D01*
X61085789Y-158865405D02*
X61019122Y-158836834D01*
X61019122Y-158836834D02*
X60985789Y-158808262D01*
X62152455Y-158265405D02*
X62385789Y-158865405D01*
X62385789Y-158865405D02*
X62619122Y-158265405D01*
X62852455Y-158865405D02*
X62852455Y-158265405D01*
X62852455Y-158265405D02*
X63019122Y-158265405D01*
X63019122Y-158265405D02*
X63119122Y-158293976D01*
X63119122Y-158293976D02*
X63185789Y-158351119D01*
X63185789Y-158351119D02*
X63219122Y-158408262D01*
X63219122Y-158408262D02*
X63252455Y-158522548D01*
X63252455Y-158522548D02*
X63252455Y-158608262D01*
X63252455Y-158608262D02*
X63219122Y-158722548D01*
X63219122Y-158722548D02*
X63185789Y-158779691D01*
X63185789Y-158779691D02*
X63119122Y-158836834D01*
X63119122Y-158836834D02*
X63019122Y-158865405D01*
X63019122Y-158865405D02*
X62852455Y-158865405D01*
X63952455Y-158808262D02*
X63919122Y-158836834D01*
X63919122Y-158836834D02*
X63819122Y-158865405D01*
X63819122Y-158865405D02*
X63752455Y-158865405D01*
X63752455Y-158865405D02*
X63652455Y-158836834D01*
X63652455Y-158836834D02*
X63585789Y-158779691D01*
X63585789Y-158779691D02*
X63552455Y-158722548D01*
X63552455Y-158722548D02*
X63519122Y-158608262D01*
X63519122Y-158608262D02*
X63519122Y-158522548D01*
X63519122Y-158522548D02*
X63552455Y-158408262D01*
X63552455Y-158408262D02*
X63585789Y-158351119D01*
X63585789Y-158351119D02*
X63652455Y-158293976D01*
X63652455Y-158293976D02*
X63752455Y-158265405D01*
X63752455Y-158265405D02*
X63819122Y-158265405D01*
X63819122Y-158265405D02*
X63919122Y-158293976D01*
X63919122Y-158293976D02*
X63952455Y-158322548D01*
X59185789Y-159231371D02*
X59319122Y-159231371D01*
X59319122Y-159231371D02*
X59385789Y-159259942D01*
X59385789Y-159259942D02*
X59452455Y-159317085D01*
X59452455Y-159317085D02*
X59485789Y-159431371D01*
X59485789Y-159431371D02*
X59485789Y-159631371D01*
X59485789Y-159631371D02*
X59452455Y-159745657D01*
X59452455Y-159745657D02*
X59385789Y-159802800D01*
X59385789Y-159802800D02*
X59319122Y-159831371D01*
X59319122Y-159831371D02*
X59185789Y-159831371D01*
X59185789Y-159831371D02*
X59119122Y-159802800D01*
X59119122Y-159802800D02*
X59052455Y-159745657D01*
X59052455Y-159745657D02*
X59019122Y-159631371D01*
X59019122Y-159631371D02*
X59019122Y-159431371D01*
X59019122Y-159431371D02*
X59052455Y-159317085D01*
X59052455Y-159317085D02*
X59119122Y-159259942D01*
X59119122Y-159259942D02*
X59185789Y-159231371D01*
X60085788Y-159431371D02*
X60085788Y-159831371D01*
X59785788Y-159431371D02*
X59785788Y-159745657D01*
X59785788Y-159745657D02*
X59819122Y-159802800D01*
X59819122Y-159802800D02*
X59885788Y-159831371D01*
X59885788Y-159831371D02*
X59985788Y-159831371D01*
X59985788Y-159831371D02*
X60052455Y-159802800D01*
X60052455Y-159802800D02*
X60085788Y-159774228D01*
X60319121Y-159431371D02*
X60585788Y-159431371D01*
X60419121Y-159231371D02*
X60419121Y-159745657D01*
X60419121Y-159745657D02*
X60452455Y-159802800D01*
X60452455Y-159802800D02*
X60519121Y-159831371D01*
X60519121Y-159831371D02*
X60585788Y-159831371D01*
X60819121Y-159431371D02*
X60819121Y-160031371D01*
X60819121Y-159459942D02*
X60885788Y-159431371D01*
X60885788Y-159431371D02*
X61019121Y-159431371D01*
X61019121Y-159431371D02*
X61085788Y-159459942D01*
X61085788Y-159459942D02*
X61119121Y-159488514D01*
X61119121Y-159488514D02*
X61152455Y-159545657D01*
X61152455Y-159545657D02*
X61152455Y-159717085D01*
X61152455Y-159717085D02*
X61119121Y-159774228D01*
X61119121Y-159774228D02*
X61085788Y-159802800D01*
X61085788Y-159802800D02*
X61019121Y-159831371D01*
X61019121Y-159831371D02*
X60885788Y-159831371D01*
X60885788Y-159831371D02*
X60819121Y-159802800D01*
X61752454Y-159431371D02*
X61752454Y-159831371D01*
X61452454Y-159431371D02*
X61452454Y-159745657D01*
X61452454Y-159745657D02*
X61485788Y-159802800D01*
X61485788Y-159802800D02*
X61552454Y-159831371D01*
X61552454Y-159831371D02*
X61652454Y-159831371D01*
X61652454Y-159831371D02*
X61719121Y-159802800D01*
X61719121Y-159802800D02*
X61752454Y-159774228D01*
X61985787Y-159431371D02*
X62252454Y-159431371D01*
X62085787Y-159231371D02*
X62085787Y-159745657D01*
X62085787Y-159745657D02*
X62119121Y-159802800D01*
X62119121Y-159802800D02*
X62185787Y-159831371D01*
X62185787Y-159831371D02*
X62252454Y-159831371D01*
X56376265Y-96997713D02*
X56423884Y-96950094D01*
X56423884Y-96950094D02*
X56519122Y-96902475D01*
X56519122Y-96902475D02*
X56757217Y-96902475D01*
X56757217Y-96902475D02*
X56852455Y-96950094D01*
X56852455Y-96950094D02*
X56900074Y-96997713D01*
X56900074Y-96997713D02*
X56947693Y-97092951D01*
X56947693Y-97092951D02*
X56947693Y-97188189D01*
X56947693Y-97188189D02*
X56900074Y-97331046D01*
X56900074Y-97331046D02*
X56328646Y-97902475D01*
X56328646Y-97902475D02*
X56947693Y-97902475D01*
X57328646Y-96997713D02*
X57376265Y-96950094D01*
X57376265Y-96950094D02*
X57471503Y-96902475D01*
X57471503Y-96902475D02*
X57709598Y-96902475D01*
X57709598Y-96902475D02*
X57804836Y-96950094D01*
X57804836Y-96950094D02*
X57852455Y-96997713D01*
X57852455Y-96997713D02*
X57900074Y-97092951D01*
X57900074Y-97092951D02*
X57900074Y-97188189D01*
X57900074Y-97188189D02*
X57852455Y-97331046D01*
X57852455Y-97331046D02*
X57281027Y-97902475D01*
X57281027Y-97902475D02*
X57900074Y-97902475D01*
X58519122Y-96902475D02*
X58614360Y-96902475D01*
X58614360Y-96902475D02*
X58709598Y-96950094D01*
X58709598Y-96950094D02*
X58757217Y-96997713D01*
X58757217Y-96997713D02*
X58804836Y-97092951D01*
X58804836Y-97092951D02*
X58852455Y-97283427D01*
X58852455Y-97283427D02*
X58852455Y-97521522D01*
X58852455Y-97521522D02*
X58804836Y-97711998D01*
X58804836Y-97711998D02*
X58757217Y-97807236D01*
X58757217Y-97807236D02*
X58709598Y-97854856D01*
X58709598Y-97854856D02*
X58614360Y-97902475D01*
X58614360Y-97902475D02*
X58519122Y-97902475D01*
X58519122Y-97902475D02*
X58423884Y-97854856D01*
X58423884Y-97854856D02*
X58376265Y-97807236D01*
X58376265Y-97807236D02*
X58328646Y-97711998D01*
X58328646Y-97711998D02*
X58281027Y-97521522D01*
X58281027Y-97521522D02*
X58281027Y-97283427D01*
X58281027Y-97283427D02*
X58328646Y-97092951D01*
X58328646Y-97092951D02*
X58376265Y-96997713D01*
X58376265Y-96997713D02*
X58423884Y-96950094D01*
X58423884Y-96950094D02*
X58519122Y-96902475D01*
X59995312Y-96854856D02*
X59138170Y-98140570D01*
X60852455Y-97902475D02*
X60281027Y-97902475D01*
X60566741Y-97902475D02*
X60566741Y-96902475D01*
X60566741Y-96902475D02*
X60471503Y-97045332D01*
X60471503Y-97045332D02*
X60376265Y-97140570D01*
X60376265Y-97140570D02*
X60281027Y-97188189D01*
X61233408Y-96997713D02*
X61281027Y-96950094D01*
X61281027Y-96950094D02*
X61376265Y-96902475D01*
X61376265Y-96902475D02*
X61614360Y-96902475D01*
X61614360Y-96902475D02*
X61709598Y-96950094D01*
X61709598Y-96950094D02*
X61757217Y-96997713D01*
X61757217Y-96997713D02*
X61804836Y-97092951D01*
X61804836Y-97092951D02*
X61804836Y-97188189D01*
X61804836Y-97188189D02*
X61757217Y-97331046D01*
X61757217Y-97331046D02*
X61185789Y-97902475D01*
X61185789Y-97902475D02*
X61804836Y-97902475D01*
X62852456Y-96902475D02*
X63185789Y-97902475D01*
X63185789Y-97902475D02*
X63519122Y-96902475D01*
X63804837Y-97616760D02*
X64281027Y-97616760D01*
X63709599Y-97902475D02*
X64042932Y-96902475D01*
X64042932Y-96902475D02*
X64376265Y-97902475D01*
X65281027Y-97807236D02*
X65233408Y-97854856D01*
X65233408Y-97854856D02*
X65090551Y-97902475D01*
X65090551Y-97902475D02*
X64995313Y-97902475D01*
X64995313Y-97902475D02*
X64852456Y-97854856D01*
X64852456Y-97854856D02*
X64757218Y-97759617D01*
X64757218Y-97759617D02*
X64709599Y-97664379D01*
X64709599Y-97664379D02*
X64661980Y-97473903D01*
X64661980Y-97473903D02*
X64661980Y-97331046D01*
X64661980Y-97331046D02*
X64709599Y-97140570D01*
X64709599Y-97140570D02*
X64757218Y-97045332D01*
X64757218Y-97045332D02*
X64852456Y-96950094D01*
X64852456Y-96950094D02*
X64995313Y-96902475D01*
X64995313Y-96902475D02*
X65090551Y-96902475D01*
X65090551Y-96902475D02*
X65233408Y-96950094D01*
X65233408Y-96950094D02*
X65281027Y-96997713D01*
X56423884Y-99512419D02*
X56423884Y-98512419D01*
X56900074Y-98845752D02*
X56900074Y-99512419D01*
X56900074Y-98940990D02*
X56947693Y-98893371D01*
X56947693Y-98893371D02*
X57042931Y-98845752D01*
X57042931Y-98845752D02*
X57185788Y-98845752D01*
X57185788Y-98845752D02*
X57281026Y-98893371D01*
X57281026Y-98893371D02*
X57328645Y-98988609D01*
X57328645Y-98988609D02*
X57328645Y-99512419D01*
X57804836Y-98845752D02*
X57804836Y-99845752D01*
X57804836Y-98893371D02*
X57900074Y-98845752D01*
X57900074Y-98845752D02*
X58090550Y-98845752D01*
X58090550Y-98845752D02*
X58185788Y-98893371D01*
X58185788Y-98893371D02*
X58233407Y-98940990D01*
X58233407Y-98940990D02*
X58281026Y-99036228D01*
X58281026Y-99036228D02*
X58281026Y-99321942D01*
X58281026Y-99321942D02*
X58233407Y-99417180D01*
X58233407Y-99417180D02*
X58185788Y-99464800D01*
X58185788Y-99464800D02*
X58090550Y-99512419D01*
X58090550Y-99512419D02*
X57900074Y-99512419D01*
X57900074Y-99512419D02*
X57804836Y-99464800D01*
X59138169Y-98845752D02*
X59138169Y-99512419D01*
X58709598Y-98845752D02*
X58709598Y-99369561D01*
X58709598Y-99369561D02*
X58757217Y-99464800D01*
X58757217Y-99464800D02*
X58852455Y-99512419D01*
X58852455Y-99512419D02*
X58995312Y-99512419D01*
X58995312Y-99512419D02*
X59090550Y-99464800D01*
X59090550Y-99464800D02*
X59138169Y-99417180D01*
X59471503Y-98845752D02*
X59852455Y-98845752D01*
X59614360Y-98512419D02*
X59614360Y-99369561D01*
X59614360Y-99369561D02*
X59661979Y-99464800D01*
X59661979Y-99464800D02*
X59757217Y-99512419D01*
X59757217Y-99512419D02*
X59852455Y-99512419D01*
D11*
X58231905Y-115512819D02*
X58231905Y-114512819D01*
X58231905Y-114512819D02*
X58470000Y-114512819D01*
X58470000Y-114512819D02*
X58612857Y-114560438D01*
X58612857Y-114560438D02*
X58708095Y-114655676D01*
X58708095Y-114655676D02*
X58755714Y-114750914D01*
X58755714Y-114750914D02*
X58803333Y-114941390D01*
X58803333Y-114941390D02*
X58803333Y-115084247D01*
X58803333Y-115084247D02*
X58755714Y-115274723D01*
X58755714Y-115274723D02*
X58708095Y-115369961D01*
X58708095Y-115369961D02*
X58612857Y-115465200D01*
X58612857Y-115465200D02*
X58470000Y-115512819D01*
X58470000Y-115512819D02*
X58231905Y-115512819D01*
X59755714Y-115512819D02*
X59184286Y-115512819D01*
X59470000Y-115512819D02*
X59470000Y-114512819D01*
X59470000Y-114512819D02*
X59374762Y-114655676D01*
X59374762Y-114655676D02*
X59279524Y-114750914D01*
X59279524Y-114750914D02*
X59184286Y-114798533D01*
X87673095Y-133354819D02*
X87673095Y-134164342D01*
X87673095Y-134164342D02*
X87720714Y-134259580D01*
X87720714Y-134259580D02*
X87768333Y-134307200D01*
X87768333Y-134307200D02*
X87863571Y-134354819D01*
X87863571Y-134354819D02*
X88054047Y-134354819D01*
X88054047Y-134354819D02*
X88149285Y-134307200D01*
X88149285Y-134307200D02*
X88196904Y-134259580D01*
X88196904Y-134259580D02*
X88244523Y-134164342D01*
X88244523Y-134164342D02*
X88244523Y-133354819D01*
X89244523Y-134354819D02*
X88673095Y-134354819D01*
X88958809Y-134354819D02*
X88958809Y-133354819D01*
X88958809Y-133354819D02*
X88863571Y-133497676D01*
X88863571Y-133497676D02*
X88768333Y-133592914D01*
X88768333Y-133592914D02*
X88673095Y-133640533D01*
X84250833Y-121939580D02*
X84203214Y-121987200D01*
X84203214Y-121987200D02*
X84060357Y-122034819D01*
X84060357Y-122034819D02*
X83965119Y-122034819D01*
X83965119Y-122034819D02*
X83822262Y-121987200D01*
X83822262Y-121987200D02*
X83727024Y-121891961D01*
X83727024Y-121891961D02*
X83679405Y-121796723D01*
X83679405Y-121796723D02*
X83631786Y-121606247D01*
X83631786Y-121606247D02*
X83631786Y-121463390D01*
X83631786Y-121463390D02*
X83679405Y-121272914D01*
X83679405Y-121272914D02*
X83727024Y-121177676D01*
X83727024Y-121177676D02*
X83822262Y-121082438D01*
X83822262Y-121082438D02*
X83965119Y-121034819D01*
X83965119Y-121034819D02*
X84060357Y-121034819D01*
X84060357Y-121034819D02*
X84203214Y-121082438D01*
X84203214Y-121082438D02*
X84250833Y-121130057D01*
X85155595Y-121034819D02*
X84679405Y-121034819D01*
X84679405Y-121034819D02*
X84631786Y-121511009D01*
X84631786Y-121511009D02*
X84679405Y-121463390D01*
X84679405Y-121463390D02*
X84774643Y-121415771D01*
X84774643Y-121415771D02*
X85012738Y-121415771D01*
X85012738Y-121415771D02*
X85107976Y-121463390D01*
X85107976Y-121463390D02*
X85155595Y-121511009D01*
X85155595Y-121511009D02*
X85203214Y-121606247D01*
X85203214Y-121606247D02*
X85203214Y-121844342D01*
X85203214Y-121844342D02*
X85155595Y-121939580D01*
X85155595Y-121939580D02*
X85107976Y-121987200D01*
X85107976Y-121987200D02*
X85012738Y-122034819D01*
X85012738Y-122034819D02*
X84774643Y-122034819D01*
X84774643Y-122034819D02*
X84679405Y-121987200D01*
X84679405Y-121987200D02*
X84631786Y-121939580D01*
X67117200Y-108513332D02*
X67164819Y-108370475D01*
X67164819Y-108370475D02*
X67164819Y-108132380D01*
X67164819Y-108132380D02*
X67117200Y-108037142D01*
X67117200Y-108037142D02*
X67069580Y-107989523D01*
X67069580Y-107989523D02*
X66974342Y-107941904D01*
X66974342Y-107941904D02*
X66879104Y-107941904D01*
X66879104Y-107941904D02*
X66783866Y-107989523D01*
X66783866Y-107989523D02*
X66736247Y-108037142D01*
X66736247Y-108037142D02*
X66688628Y-108132380D01*
X66688628Y-108132380D02*
X66641009Y-108322856D01*
X66641009Y-108322856D02*
X66593390Y-108418094D01*
X66593390Y-108418094D02*
X66545771Y-108465713D01*
X66545771Y-108465713D02*
X66450533Y-108513332D01*
X66450533Y-108513332D02*
X66355295Y-108513332D01*
X66355295Y-108513332D02*
X66260057Y-108465713D01*
X66260057Y-108465713D02*
X66212438Y-108418094D01*
X66212438Y-108418094D02*
X66164819Y-108322856D01*
X66164819Y-108322856D02*
X66164819Y-108084761D01*
X66164819Y-108084761D02*
X66212438Y-107941904D01*
X66164819Y-107608570D02*
X67164819Y-107370475D01*
X67164819Y-107370475D02*
X66450533Y-107179999D01*
X66450533Y-107179999D02*
X67164819Y-106989523D01*
X67164819Y-106989523D02*
X66164819Y-106751428D01*
X67164819Y-105846666D02*
X67164819Y-106418094D01*
X67164819Y-106132380D02*
X66164819Y-106132380D01*
X66164819Y-106132380D02*
X66307676Y-106227618D01*
X66307676Y-106227618D02*
X66402914Y-106322856D01*
X66402914Y-106322856D02*
X66450533Y-106418094D01*
X79929580Y-154546666D02*
X79977200Y-154594285D01*
X79977200Y-154594285D02*
X80024819Y-154737142D01*
X80024819Y-154737142D02*
X80024819Y-154832380D01*
X80024819Y-154832380D02*
X79977200Y-154975237D01*
X79977200Y-154975237D02*
X79881961Y-155070475D01*
X79881961Y-155070475D02*
X79786723Y-155118094D01*
X79786723Y-155118094D02*
X79596247Y-155165713D01*
X79596247Y-155165713D02*
X79453390Y-155165713D01*
X79453390Y-155165713D02*
X79262914Y-155118094D01*
X79262914Y-155118094D02*
X79167676Y-155070475D01*
X79167676Y-155070475D02*
X79072438Y-154975237D01*
X79072438Y-154975237D02*
X79024819Y-154832380D01*
X79024819Y-154832380D02*
X79024819Y-154737142D01*
X79024819Y-154737142D02*
X79072438Y-154594285D01*
X79072438Y-154594285D02*
X79120057Y-154546666D01*
X79120057Y-154165713D02*
X79072438Y-154118094D01*
X79072438Y-154118094D02*
X79024819Y-154022856D01*
X79024819Y-154022856D02*
X79024819Y-153784761D01*
X79024819Y-153784761D02*
X79072438Y-153689523D01*
X79072438Y-153689523D02*
X79120057Y-153641904D01*
X79120057Y-153641904D02*
X79215295Y-153594285D01*
X79215295Y-153594285D02*
X79310533Y-153594285D01*
X79310533Y-153594285D02*
X79453390Y-153641904D01*
X79453390Y-153641904D02*
X80024819Y-154213332D01*
X80024819Y-154213332D02*
X80024819Y-153594285D01*
X65999819Y-98963333D02*
X66714104Y-98963333D01*
X66714104Y-98963333D02*
X66856961Y-99010952D01*
X66856961Y-99010952D02*
X66952200Y-99106190D01*
X66952200Y-99106190D02*
X66999819Y-99249047D01*
X66999819Y-99249047D02*
X66999819Y-99344285D01*
X66999819Y-97963333D02*
X66999819Y-98534761D01*
X66999819Y-98249047D02*
X65999819Y-98249047D01*
X65999819Y-98249047D02*
X66142676Y-98344285D01*
X66142676Y-98344285D02*
X66237914Y-98439523D01*
X66237914Y-98439523D02*
X66285533Y-98534761D01*
X84158095Y-94984819D02*
X84729523Y-94984819D01*
X84443809Y-95984819D02*
X84443809Y-94984819D01*
X85586666Y-95984819D02*
X85015238Y-95984819D01*
X85300952Y-95984819D02*
X85300952Y-94984819D01*
X85300952Y-94984819D02*
X85205714Y-95127676D01*
X85205714Y-95127676D02*
X85110476Y-95222914D01*
X85110476Y-95222914D02*
X85015238Y-95270533D01*
X62902319Y-153821904D02*
X63711842Y-153821904D01*
X63711842Y-153821904D02*
X63807080Y-153774285D01*
X63807080Y-153774285D02*
X63854700Y-153726666D01*
X63854700Y-153726666D02*
X63902319Y-153631428D01*
X63902319Y-153631428D02*
X63902319Y-153440952D01*
X63902319Y-153440952D02*
X63854700Y-153345714D01*
X63854700Y-153345714D02*
X63807080Y-153298095D01*
X63807080Y-153298095D02*
X63711842Y-153250476D01*
X63711842Y-153250476D02*
X62902319Y-153250476D01*
X62997557Y-152821904D02*
X62949938Y-152774285D01*
X62949938Y-152774285D02*
X62902319Y-152679047D01*
X62902319Y-152679047D02*
X62902319Y-152440952D01*
X62902319Y-152440952D02*
X62949938Y-152345714D01*
X62949938Y-152345714D02*
X62997557Y-152298095D01*
X62997557Y-152298095D02*
X63092795Y-152250476D01*
X63092795Y-152250476D02*
X63188033Y-152250476D01*
X63188033Y-152250476D02*
X63330890Y-152298095D01*
X63330890Y-152298095D02*
X63902319Y-152869523D01*
X63902319Y-152869523D02*
X63902319Y-152250476D01*
X70480833Y-139109580D02*
X70433214Y-139157200D01*
X70433214Y-139157200D02*
X70290357Y-139204819D01*
X70290357Y-139204819D02*
X70195119Y-139204819D01*
X70195119Y-139204819D02*
X70052262Y-139157200D01*
X70052262Y-139157200D02*
X69957024Y-139061961D01*
X69957024Y-139061961D02*
X69909405Y-138966723D01*
X69909405Y-138966723D02*
X69861786Y-138776247D01*
X69861786Y-138776247D02*
X69861786Y-138633390D01*
X69861786Y-138633390D02*
X69909405Y-138442914D01*
X69909405Y-138442914D02*
X69957024Y-138347676D01*
X69957024Y-138347676D02*
X70052262Y-138252438D01*
X70052262Y-138252438D02*
X70195119Y-138204819D01*
X70195119Y-138204819D02*
X70290357Y-138204819D01*
X70290357Y-138204819D02*
X70433214Y-138252438D01*
X70433214Y-138252438D02*
X70480833Y-138300057D01*
X70814167Y-138204819D02*
X71433214Y-138204819D01*
X71433214Y-138204819D02*
X71099881Y-138585771D01*
X71099881Y-138585771D02*
X71242738Y-138585771D01*
X71242738Y-138585771D02*
X71337976Y-138633390D01*
X71337976Y-138633390D02*
X71385595Y-138681009D01*
X71385595Y-138681009D02*
X71433214Y-138776247D01*
X71433214Y-138776247D02*
X71433214Y-139014342D01*
X71433214Y-139014342D02*
X71385595Y-139109580D01*
X71385595Y-139109580D02*
X71337976Y-139157200D01*
X71337976Y-139157200D02*
X71242738Y-139204819D01*
X71242738Y-139204819D02*
X70957024Y-139204819D01*
X70957024Y-139204819D02*
X70861786Y-139157200D01*
X70861786Y-139157200D02*
X70814167Y-139109580D01*
X53699580Y-135376666D02*
X53747200Y-135424285D01*
X53747200Y-135424285D02*
X53794819Y-135567142D01*
X53794819Y-135567142D02*
X53794819Y-135662380D01*
X53794819Y-135662380D02*
X53747200Y-135805237D01*
X53747200Y-135805237D02*
X53651961Y-135900475D01*
X53651961Y-135900475D02*
X53556723Y-135948094D01*
X53556723Y-135948094D02*
X53366247Y-135995713D01*
X53366247Y-135995713D02*
X53223390Y-135995713D01*
X53223390Y-135995713D02*
X53032914Y-135948094D01*
X53032914Y-135948094D02*
X52937676Y-135900475D01*
X52937676Y-135900475D02*
X52842438Y-135805237D01*
X52842438Y-135805237D02*
X52794819Y-135662380D01*
X52794819Y-135662380D02*
X52794819Y-135567142D01*
X52794819Y-135567142D02*
X52842438Y-135424285D01*
X52842438Y-135424285D02*
X52890057Y-135376666D01*
X53128152Y-134519523D02*
X53794819Y-134519523D01*
X52747200Y-134757618D02*
X53461485Y-134995713D01*
X53461485Y-134995713D02*
X53461485Y-134376666D01*
X75334819Y-156763333D02*
X76049104Y-156763333D01*
X76049104Y-156763333D02*
X76191961Y-156810952D01*
X76191961Y-156810952D02*
X76287200Y-156906190D01*
X76287200Y-156906190D02*
X76334819Y-157049047D01*
X76334819Y-157049047D02*
X76334819Y-157144285D01*
X75430057Y-156334761D02*
X75382438Y-156287142D01*
X75382438Y-156287142D02*
X75334819Y-156191904D01*
X75334819Y-156191904D02*
X75334819Y-155953809D01*
X75334819Y-155953809D02*
X75382438Y-155858571D01*
X75382438Y-155858571D02*
X75430057Y-155810952D01*
X75430057Y-155810952D02*
X75525295Y-155763333D01*
X75525295Y-155763333D02*
X75620533Y-155763333D01*
X75620533Y-155763333D02*
X75763390Y-155810952D01*
X75763390Y-155810952D02*
X76334819Y-156382380D01*
X76334819Y-156382380D02*
X76334819Y-155763333D01*
X76089580Y-128204166D02*
X76137200Y-128251785D01*
X76137200Y-128251785D02*
X76184819Y-128394642D01*
X76184819Y-128394642D02*
X76184819Y-128489880D01*
X76184819Y-128489880D02*
X76137200Y-128632737D01*
X76137200Y-128632737D02*
X76041961Y-128727975D01*
X76041961Y-128727975D02*
X75946723Y-128775594D01*
X75946723Y-128775594D02*
X75756247Y-128823213D01*
X75756247Y-128823213D02*
X75613390Y-128823213D01*
X75613390Y-128823213D02*
X75422914Y-128775594D01*
X75422914Y-128775594D02*
X75327676Y-128727975D01*
X75327676Y-128727975D02*
X75232438Y-128632737D01*
X75232438Y-128632737D02*
X75184819Y-128489880D01*
X75184819Y-128489880D02*
X75184819Y-128394642D01*
X75184819Y-128394642D02*
X75232438Y-128251785D01*
X75232438Y-128251785D02*
X75280057Y-128204166D01*
X76184819Y-127251785D02*
X76184819Y-127823213D01*
X76184819Y-127537499D02*
X75184819Y-127537499D01*
X75184819Y-127537499D02*
X75327676Y-127632737D01*
X75327676Y-127632737D02*
X75422914Y-127727975D01*
X75422914Y-127727975D02*
X75470533Y-127823213D01*
D12*
%TO.C,D1*%
X54906000Y-117979000D02*
X54906000Y-123821000D01*
X56049000Y-116836000D02*
G75*
G02*
X54906000Y-123821000I2921000J-4064000D01*
G01*
%TO.C,U1*%
X83610000Y-135350000D02*
X83610000Y-137160000D01*
X83610000Y-145750000D02*
X83610000Y-143940000D01*
X84975000Y-135350000D02*
X83610000Y-135350000D01*
X84975000Y-145750000D02*
X83610000Y-145750000D01*
X80785000Y-137200000D02*
X80445000Y-136730000D01*
X81125000Y-136730000D01*
X80785000Y-137200000D01*
G36*
X80785000Y-137200000D02*
G01*
X80445000Y-136730000D01*
X81125000Y-136730000D01*
X80785000Y-137200000D01*
G37*
%TO.C,C5*%
X78917500Y-124270000D02*
X79917500Y-124270000D01*
X79417500Y-123770000D02*
X79417500Y-124770000D01*
X80157500Y-123584437D02*
X80157500Y-125270000D01*
X80157500Y-123584437D02*
X81221937Y-122520000D01*
X80157500Y-129975563D02*
X80157500Y-128290000D01*
X80157500Y-129975563D02*
X81221937Y-131040000D01*
X81221937Y-122520000D02*
X88677500Y-122520000D01*
X81221937Y-131040000D02*
X88677500Y-131040000D01*
X88677500Y-122520000D02*
X88677500Y-125270000D01*
X88677500Y-131040000D02*
X88677500Y-128290000D01*
%TO.C,SW1*%
X53810000Y-113980000D02*
X53810000Y-100380000D01*
X53810000Y-113980000D02*
X66010000Y-113980000D01*
X66010000Y-100380000D02*
X53810000Y-100380000D01*
X66010000Y-100380000D02*
X66010000Y-113980000D01*
%TO.C,C2*%
X80510000Y-150120000D02*
X83260000Y-150120000D01*
X80510000Y-157575563D02*
X80510000Y-150120000D01*
X81574437Y-158640000D02*
X80510000Y-157575563D01*
X81574437Y-158640000D02*
X83260000Y-158640000D01*
X81760000Y-159380000D02*
X82760000Y-159380000D01*
X82260000Y-159880000D02*
X82260000Y-158880000D01*
X87965563Y-158640000D02*
X86280000Y-158640000D01*
X87965563Y-158640000D02*
X89030000Y-157575563D01*
X89030000Y-150120000D02*
X86280000Y-150120000D01*
X89030000Y-157575563D02*
X89030000Y-150120000D01*
%TO.C,J1*%
X67545000Y-99960000D02*
X67545000Y-98630000D01*
X68875000Y-99960000D02*
X67545000Y-99960000D01*
X70145000Y-97300000D02*
X72745000Y-97300000D01*
X70145000Y-99960000D02*
X70145000Y-97300000D01*
X70145000Y-99960000D02*
X72745000Y-99960000D01*
X72745000Y-99960000D02*
X72745000Y-97300000D01*
%TO.C,T1*%
X75120000Y-96430000D02*
X94720000Y-96430000D01*
X75120000Y-116030000D02*
X75120000Y-96430000D01*
X94720000Y-96430000D02*
X94720000Y-116030000D01*
X94720000Y-116030000D02*
X75120000Y-116030000D01*
%TO.C,U2*%
X55497500Y-149750000D02*
X55767500Y-149750000D01*
X55497500Y-156170000D02*
X55497500Y-149750000D01*
X62397500Y-149750000D02*
X62127500Y-149750000D01*
X62397500Y-156170000D02*
X62397500Y-149750000D01*
X62557500Y-148360000D02*
X62087500Y-148020000D01*
X62557500Y-147680000D01*
X62557500Y-148360000D01*
G36*
X62557500Y-148360000D02*
G01*
X62087500Y-148020000D01*
X62557500Y-147680000D01*
X62557500Y-148360000D01*
G37*
%TO.C,C3*%
X65147500Y-141440000D02*
X66147500Y-141440000D01*
X65647500Y-140940000D02*
X65647500Y-141940000D01*
X66387500Y-140754437D02*
X66387500Y-142440000D01*
X66387500Y-140754437D02*
X67451937Y-139690000D01*
X66387500Y-147145563D02*
X66387500Y-145460000D01*
X66387500Y-147145563D02*
X67451937Y-148210000D01*
X67451937Y-139690000D02*
X74907500Y-139690000D01*
X67451937Y-148210000D02*
X74907500Y-148210000D01*
X74907500Y-139690000D02*
X74907500Y-142440000D01*
X74907500Y-148210000D02*
X74907500Y-145460000D01*
%TO.C,C4*%
X54280000Y-130950000D02*
X57030000Y-130950000D01*
X54280000Y-138405563D02*
X54280000Y-130950000D01*
X55344437Y-139470000D02*
X54280000Y-138405563D01*
X55344437Y-139470000D02*
X57030000Y-139470000D01*
X55530000Y-140210000D02*
X56530000Y-140210000D01*
X56030000Y-140710000D02*
X56030000Y-139710000D01*
X61735563Y-139470000D02*
X60050000Y-139470000D01*
X61735563Y-139470000D02*
X62800000Y-138405563D01*
X62800000Y-130950000D02*
X60050000Y-130950000D01*
X62800000Y-138405563D02*
X62800000Y-130950000D01*
%TO.C,J2*%
X67140000Y-155100000D02*
X67140000Y-157760000D01*
X67710000Y-155100000D02*
X67140000Y-155100000D01*
X70250000Y-155100000D02*
X67140000Y-155100000D01*
X72790000Y-157760000D02*
X69230000Y-157760000D01*
X74310000Y-157760000D02*
X74310000Y-159280000D01*
X74880000Y-155100000D02*
X71770000Y-155100000D01*
X74880000Y-155100000D02*
X74880000Y-157760000D01*
X74880000Y-157760000D02*
X74310000Y-157760000D01*
%TO.C,C1*%
X66270000Y-124841937D02*
X66270000Y-132297500D01*
X66270000Y-132297500D02*
X69020000Y-132297500D01*
X67334437Y-123777500D02*
X66270000Y-124841937D01*
X67334437Y-123777500D02*
X69020000Y-123777500D01*
X73040000Y-122537500D02*
X73040000Y-123537500D01*
X73540000Y-123037500D02*
X72540000Y-123037500D01*
X73725563Y-123777500D02*
X72040000Y-123777500D01*
X73725563Y-123777500D02*
X74790000Y-124841937D01*
X74790000Y-124841937D02*
X74790000Y-132297500D01*
X74790000Y-132297500D02*
X72040000Y-132297500D01*
%TD*%
M02*
