%TF.GenerationSoftware,KiCad,Pcbnew,8.0.7*%
%TF.CreationDate,2026-10-07T13:15:29+03:00*%
%TF.ProjectId,Assignment_1_Power_Supply,41737369-676e-46d6-956e-745f315f506f,rev?*%
%TF.SameCoordinates,Original*%
%TF.FileFunction,Copper,L2,Bot*%
%TF.FilePolarity,Positive*%
%FSLAX46Y46*%
G04 Gerber Fmt 4.6, Leading zero omitted, Abs format (unit mm)*
G04 Created by KiCad (PCBNEW 8.0.7) date 2026-10-07 13:15:29*
%MOMM*%
%LPD*%
G01*
G04 APERTURE LIST*
%TA.AperFunction,ComponentPad*%
%ADD10R,2.000000X2.000000*%
%TD*%
%TA.AperFunction,ComponentPad*%
%ADD11O,2.000000X2.000000*%
%TD*%
%TA.AperFunction,ComponentPad*%
%ADD12C,2.000000*%
%TD*%
%TA.AperFunction,ComponentPad*%
%ADD13R,1.700000X1.700000*%
%TD*%
%TA.AperFunction,ComponentPad*%
%ADD14O,1.700000X1.700000*%
%TD*%
%TA.AperFunction,ComponentPad*%
%ADD15R,1.520000X1.520000*%
%TD*%
%TA.AperFunction,ComponentPad*%
%ADD16C,1.520000*%
%TD*%
%TA.AperFunction,Conductor*%
%ADD17C,0.200000*%
%TD*%
G04 APERTURE END LIST*
D10*
%TO.P,D1,1,+*%
%TO.N,/12vDC*%
X56430000Y-118360000D03*
D11*
%TO.P,D1,2*%
%TO.N,/GND_12vAC*%
X56430000Y-123440000D03*
%TO.P,D1,3,-*%
%TO.N,/GND*%
X61510000Y-123440000D03*
%TO.P,D1,4*%
%TO.N,/12vAC*%
X61510000Y-118360000D03*
%TD*%
D10*
%TO.P,SW1,1,A*%
%TO.N,/220vAC*%
X62410000Y-103180000D03*
D12*
%TO.P,SW1,2,B*%
%TO.N,/220{slash}12 vAC*%
X62410000Y-107180000D03*
%TO.P,SW1,3,C*%
%TO.N,/12vAC*%
X62410000Y-111180000D03*
%TO.P,SW1,4,A*%
%TO.N,/GND_220vAC*%
X57410000Y-103180000D03*
%TO.P,SW1,5,B*%
%TO.N,/GND_AC*%
X57410000Y-107180000D03*
%TO.P,SW1,6,C*%
%TO.N,/GND_12vAC*%
X57410000Y-111180000D03*
%TD*%
D13*
%TO.P,J1,1,Pin_1*%
%TO.N,/220{slash}12 vAC*%
X68875000Y-98630000D03*
D14*
%TO.P,J1,2,Pin_2*%
%TO.N,/GND_AC*%
X71415000Y-98630000D03*
%TD*%
D15*
%TO.P,T1,1,AA*%
%TO.N,/220vAC*%
X89920000Y-101230000D03*
D16*
%TO.P,T1,2,AB*%
%TO.N,/GND_220vAC*%
X79920000Y-101230000D03*
%TO.P,T1,3,SA*%
%TO.N,/GND_12vAC*%
X89920000Y-111230000D03*
%TO.P,T1,4,SB*%
%TO.N,/12vAC*%
X79920000Y-111230000D03*
%TD*%
D17*
%TO.N,/12vAC*%
X63730000Y-112500000D02*
X69380000Y-112500000D01*
X65310000Y-118360000D02*
X61510000Y-118360000D01*
X79990000Y-110530000D02*
X69850000Y-110530000D01*
X69850000Y-110530000D02*
X69380000Y-111000000D01*
X62410000Y-111180000D02*
X63730000Y-112500000D01*
X69380000Y-114290000D02*
X65310000Y-118360000D01*
X69380000Y-111000000D02*
X69380000Y-112500000D01*
X69380000Y-112500000D02*
X69380000Y-114290000D01*
%TO.N,/GND_AC*%
X57250000Y-96570000D02*
X54940000Y-98880000D01*
X56940000Y-106710000D02*
X57410000Y-107180000D01*
X54940000Y-98880000D02*
X54940000Y-106020000D01*
X69355000Y-96570000D02*
X57250000Y-96570000D01*
X71415000Y-98630000D02*
X69355000Y-96570000D01*
X54940000Y-106020000D02*
X55630000Y-106710000D01*
X55630000Y-106710000D02*
X56940000Y-106710000D01*
%TO.N,/GND_220vAC*%
X59640000Y-108030000D02*
X59640000Y-106110000D01*
X57410000Y-103880000D02*
X57410000Y-103180000D01*
X59870000Y-108280000D02*
X59870000Y-108260000D01*
X60690000Y-109100000D02*
X59870000Y-108280000D01*
X66640000Y-107980000D02*
X65520000Y-109100000D01*
X79920000Y-101230000D02*
X82400000Y-98750000D01*
X65520000Y-109100000D02*
X60690000Y-109100000D01*
X92810000Y-107980000D02*
X66640000Y-107980000D01*
X91800000Y-98750000D02*
X94130000Y-101080000D01*
X59640000Y-106110000D02*
X57410000Y-103880000D01*
X94130000Y-101080000D02*
X94130000Y-106660000D01*
X59870000Y-108260000D02*
X59640000Y-108030000D01*
X94130000Y-106660000D02*
X92810000Y-107980000D01*
X82400000Y-98750000D02*
X91800000Y-98750000D01*
%TO.N,/220vAC*%
X62410000Y-103180000D02*
X64190000Y-104960000D01*
X88850000Y-105030000D02*
X89920000Y-103960000D01*
X89990000Y-100530000D02*
X89990000Y-101680000D01*
X64190000Y-104960000D02*
X88780000Y-104960000D01*
X89920000Y-103960000D02*
X89920000Y-101230000D01*
X88780000Y-104960000D02*
X88850000Y-105030000D01*
%TO.N,/220{slash}12 vAC*%
X60150000Y-104920000D02*
X62410000Y-107180000D01*
X61420000Y-98630000D02*
X60150000Y-99900000D01*
X68875000Y-98630000D02*
X61420000Y-98630000D01*
X60150000Y-99900000D02*
X60150000Y-104920000D01*
%TD*%
%TA.AperFunction,Conductor*%
%TO.N,/GND_12vAC*%
G36*
X95932539Y-95710185D02*
G01*
X95978294Y-95762989D01*
X95989500Y-95814500D01*
X95989500Y-161015500D01*
X95969815Y-161082539D01*
X95917011Y-161128294D01*
X95865500Y-161139500D01*
X52944500Y-161139500D01*
X52877461Y-161119815D01*
X52831706Y-161067011D01*
X52820500Y-161015500D01*
X52820500Y-123190000D01*
X54945960Y-123190000D01*
X55996988Y-123190000D01*
X55964075Y-123247007D01*
X55930000Y-123374174D01*
X55930000Y-123505826D01*
X55964075Y-123632993D01*
X55996988Y-123690000D01*
X54945960Y-123690000D01*
X55006411Y-123928716D01*
X55106267Y-124156367D01*
X55242232Y-124364478D01*
X55410592Y-124547364D01*
X55410602Y-124547373D01*
X55606762Y-124700051D01*
X55606771Y-124700057D01*
X55825385Y-124818364D01*
X55825396Y-124818369D01*
X56060507Y-124899083D01*
X56179999Y-124919023D01*
X56180000Y-124919022D01*
X56180000Y-123873012D01*
X56237007Y-123905925D01*
X56364174Y-123940000D01*
X56495826Y-123940000D01*
X56622993Y-123905925D01*
X56680000Y-123873012D01*
X56680000Y-124919023D01*
X56799492Y-124899083D01*
X57034603Y-124818369D01*
X57034614Y-124818364D01*
X57253228Y-124700057D01*
X57253237Y-124700051D01*
X57449397Y-124547373D01*
X57449407Y-124547364D01*
X57617767Y-124364478D01*
X57753732Y-124156367D01*
X57853588Y-123928716D01*
X57914040Y-123690000D01*
X56863012Y-123690000D01*
X56895925Y-123632993D01*
X56930000Y-123505826D01*
X56930000Y-123439994D01*
X60004357Y-123439994D01*
X60004357Y-123440005D01*
X60024890Y-123687812D01*
X60024892Y-123687824D01*
X60085936Y-123928881D01*
X60185826Y-124156606D01*
X60321833Y-124364782D01*
X60321836Y-124364785D01*
X60490256Y-124547738D01*
X60686491Y-124700474D01*
X60686493Y-124700475D01*
X60904332Y-124818364D01*
X60905190Y-124818828D01*
X61124141Y-124893994D01*
X61138964Y-124899083D01*
X61140386Y-124899571D01*
X61385665Y-124940500D01*
X61634335Y-124940500D01*
X61879614Y-124899571D01*
X62114810Y-124818828D01*
X62333509Y-124700474D01*
X62529744Y-124547738D01*
X62698164Y-124364785D01*
X62834173Y-124156607D01*
X62934063Y-123928881D01*
X62995108Y-123687821D01*
X63015643Y-123440000D01*
X62999651Y-123247007D01*
X62995109Y-123192187D01*
X62995107Y-123192175D01*
X62934063Y-122951118D01*
X62834173Y-122723393D01*
X62698166Y-122515217D01*
X62676557Y-122491744D01*
X62529744Y-122332262D01*
X62333509Y-122179526D01*
X62333507Y-122179525D01*
X62333506Y-122179524D01*
X62114811Y-122061172D01*
X62114802Y-122061169D01*
X61879616Y-121980429D01*
X61634335Y-121939500D01*
X61385665Y-121939500D01*
X61140383Y-121980429D01*
X60905197Y-122061169D01*
X60905188Y-122061172D01*
X60686493Y-122179524D01*
X60490257Y-122332261D01*
X60321833Y-122515217D01*
X60185826Y-122723393D01*
X60085936Y-122951118D01*
X60024892Y-123192175D01*
X60024890Y-123192187D01*
X60004357Y-123439994D01*
X56930000Y-123439994D01*
X56930000Y-123374174D01*
X56895925Y-123247007D01*
X56863012Y-123190000D01*
X57914040Y-123190000D01*
X57853588Y-122951283D01*
X57753732Y-122723632D01*
X57617767Y-122515521D01*
X57449407Y-122332635D01*
X57449397Y-122332626D01*
X57253237Y-122179948D01*
X57253228Y-122179942D01*
X57034614Y-122061635D01*
X57034603Y-122061630D01*
X56799492Y-121980916D01*
X56680000Y-121960976D01*
X56680000Y-123006988D01*
X56622993Y-122974075D01*
X56495826Y-122940000D01*
X56364174Y-122940000D01*
X56237007Y-122974075D01*
X56180000Y-123006988D01*
X56180000Y-121960976D01*
X56179999Y-121960976D01*
X56060507Y-121980916D01*
X55825396Y-122061630D01*
X55825385Y-122061635D01*
X55606771Y-122179942D01*
X55606762Y-122179948D01*
X55410602Y-122332626D01*
X55410592Y-122332635D01*
X55242232Y-122515521D01*
X55106267Y-122723632D01*
X55006411Y-122951283D01*
X54945960Y-123190000D01*
X52820500Y-123190000D01*
X52820500Y-117312135D01*
X54929500Y-117312135D01*
X54929500Y-119407870D01*
X54929501Y-119407876D01*
X54935908Y-119467483D01*
X54986202Y-119602328D01*
X54986206Y-119602335D01*
X55072452Y-119717544D01*
X55072455Y-119717547D01*
X55187664Y-119803793D01*
X55187671Y-119803797D01*
X55322517Y-119854091D01*
X55322516Y-119854091D01*
X55329444Y-119854835D01*
X55382127Y-119860500D01*
X57477872Y-119860499D01*
X57537483Y-119854091D01*
X57672331Y-119803796D01*
X57787546Y-119717546D01*
X57873796Y-119602331D01*
X57924091Y-119467483D01*
X57930500Y-119407873D01*
X57930499Y-117312128D01*
X57924091Y-117252517D01*
X57873796Y-117117669D01*
X57873795Y-117117668D01*
X57873793Y-117117664D01*
X57787547Y-117002455D01*
X57787544Y-117002452D01*
X57672335Y-116916206D01*
X57672328Y-116916202D01*
X57537482Y-116865908D01*
X57537483Y-116865908D01*
X57477883Y-116859501D01*
X57477881Y-116859500D01*
X57477873Y-116859500D01*
X57477864Y-116859500D01*
X55382129Y-116859500D01*
X55382123Y-116859501D01*
X55322516Y-116865908D01*
X55187671Y-116916202D01*
X55187664Y-116916206D01*
X55072455Y-117002452D01*
X55072452Y-117002455D01*
X54986206Y-117117664D01*
X54986202Y-117117671D01*
X54935908Y-117252517D01*
X54929501Y-117312116D01*
X54929501Y-117312123D01*
X54929500Y-117312135D01*
X52820500Y-117312135D01*
X52820500Y-111179994D01*
X55904859Y-111179994D01*
X55904859Y-111180005D01*
X55925385Y-111427729D01*
X55925387Y-111427738D01*
X55986412Y-111668717D01*
X56086267Y-111896367D01*
X56186562Y-112049881D01*
X56845387Y-111391058D01*
X56850889Y-111411591D01*
X56929881Y-111548408D01*
X57041592Y-111660119D01*
X57178409Y-111739111D01*
X57198940Y-111744612D01*
X56539943Y-112403609D01*
X56586768Y-112440055D01*
X56586771Y-112440057D01*
X56805385Y-112558364D01*
X56805396Y-112558369D01*
X57040506Y-112639083D01*
X57285707Y-112680000D01*
X57534293Y-112680000D01*
X57779493Y-112639083D01*
X58014603Y-112558369D01*
X58014614Y-112558364D01*
X58233230Y-112440056D01*
X58233236Y-112440051D01*
X58280055Y-112403610D01*
X58280056Y-112403609D01*
X57621058Y-111744612D01*
X57641591Y-111739111D01*
X57778408Y-111660119D01*
X57890119Y-111548408D01*
X57969111Y-111411591D01*
X57974612Y-111391059D01*
X58633435Y-112049882D01*
X58733733Y-111896364D01*
X58833587Y-111668717D01*
X58894612Y-111427738D01*
X58894614Y-111427729D01*
X58915141Y-111180005D01*
X58915141Y-111179994D01*
X58894614Y-110932270D01*
X58894612Y-110932261D01*
X58833587Y-110691282D01*
X58733732Y-110463632D01*
X58633435Y-110310116D01*
X57974612Y-110968940D01*
X57969111Y-110948409D01*
X57890119Y-110811592D01*
X57778408Y-110699881D01*
X57641591Y-110620889D01*
X57621058Y-110615387D01*
X58280055Y-109956389D01*
X58280055Y-109956388D01*
X58233236Y-109919947D01*
X58233231Y-109919944D01*
X58014614Y-109801635D01*
X58014603Y-109801630D01*
X57779493Y-109720916D01*
X57534293Y-109680000D01*
X57285707Y-109680000D01*
X57040506Y-109720916D01*
X56805396Y-109801630D01*
X56805385Y-109801635D01*
X56586770Y-109919943D01*
X56539943Y-109956389D01*
X57198941Y-110615387D01*
X57178409Y-110620889D01*
X57041592Y-110699881D01*
X56929881Y-110811592D01*
X56850889Y-110948409D01*
X56845387Y-110968941D01*
X56186563Y-110310117D01*
X56086267Y-110463633D01*
X56086265Y-110463637D01*
X55986412Y-110691282D01*
X55925387Y-110932261D01*
X55925385Y-110932270D01*
X55904859Y-111179994D01*
X52820500Y-111179994D01*
X52820500Y-106099054D01*
X54339498Y-106099054D01*
X54380423Y-106251787D01*
X54380425Y-106251790D01*
X54403227Y-106291283D01*
X54403228Y-106291285D01*
X54459475Y-106388709D01*
X54459481Y-106388717D01*
X54578349Y-106507585D01*
X54578355Y-106507590D01*
X55145139Y-107074374D01*
X55145149Y-107074385D01*
X55149479Y-107078715D01*
X55149480Y-107078716D01*
X55261284Y-107190520D01*
X55261286Y-107190521D01*
X55261290Y-107190524D01*
X55398209Y-107269573D01*
X55398216Y-107269577D01*
X55510019Y-107299534D01*
X55550942Y-107310500D01*
X55550943Y-107310500D01*
X55801020Y-107310500D01*
X55868059Y-107330185D01*
X55913814Y-107382989D01*
X55924596Y-107424254D01*
X55924891Y-107427818D01*
X55985936Y-107668881D01*
X56085826Y-107896606D01*
X56221833Y-108104782D01*
X56254245Y-108139991D01*
X56390256Y-108287738D01*
X56586491Y-108440474D01*
X56586493Y-108440475D01*
X56769613Y-108539575D01*
X56805190Y-108558828D01*
X57040386Y-108639571D01*
X57285665Y-108680500D01*
X57534335Y-108680500D01*
X57779614Y-108639571D01*
X58014810Y-108558828D01*
X58233509Y-108440474D01*
X58429744Y-108287738D01*
X58598164Y-108104785D01*
X58734173Y-107896607D01*
X58801944Y-107742105D01*
X58846900Y-107688619D01*
X58913636Y-107667929D01*
X58980964Y-107686604D01*
X59027507Y-107738714D01*
X59039500Y-107791915D01*
X59039500Y-107943330D01*
X59039499Y-107943348D01*
X59039499Y-108109054D01*
X59039498Y-108109054D01*
X59080424Y-108261787D01*
X59095406Y-108287736D01*
X59095407Y-108287738D01*
X59159477Y-108398712D01*
X59159481Y-108398717D01*
X59278349Y-108517585D01*
X59278355Y-108517590D01*
X59350614Y-108589849D01*
X59370320Y-108615530D01*
X59389480Y-108648716D01*
X59389482Y-108648718D01*
X59508349Y-108767585D01*
X59508355Y-108767590D01*
X60205139Y-109464374D01*
X60205149Y-109464385D01*
X60209479Y-109468715D01*
X60209480Y-109468716D01*
X60321284Y-109580520D01*
X60408095Y-109630639D01*
X60408097Y-109630641D01*
X60446151Y-109652611D01*
X60458215Y-109659577D01*
X60610943Y-109700500D01*
X61506697Y-109700500D01*
X61573736Y-109720185D01*
X61619491Y-109772989D01*
X61629435Y-109842147D01*
X61600410Y-109905703D01*
X61582865Y-109922347D01*
X61446537Y-110028457D01*
X61390257Y-110072261D01*
X61221833Y-110255217D01*
X61085826Y-110463393D01*
X60985936Y-110691118D01*
X60924892Y-110932175D01*
X60924890Y-110932187D01*
X60904357Y-111179994D01*
X60904357Y-111180005D01*
X60924890Y-111427812D01*
X60924892Y-111427824D01*
X60985936Y-111668881D01*
X61085826Y-111896606D01*
X61221833Y-112104782D01*
X61221836Y-112104785D01*
X61390256Y-112287738D01*
X61586491Y-112440474D01*
X61652304Y-112476090D01*
X61804332Y-112558364D01*
X61805190Y-112558828D01*
X61925216Y-112600033D01*
X62038964Y-112639083D01*
X62040386Y-112639571D01*
X62285665Y-112680500D01*
X62534335Y-112680500D01*
X62779608Y-112639572D01*
X62779607Y-112639572D01*
X62779614Y-112639571D01*
X62885607Y-112603182D01*
X62955402Y-112600033D01*
X63013548Y-112632783D01*
X63245139Y-112864374D01*
X63245149Y-112864385D01*
X63249479Y-112868715D01*
X63249480Y-112868716D01*
X63361284Y-112980520D01*
X63448095Y-113030639D01*
X63448097Y-113030641D01*
X63486151Y-113052611D01*
X63498215Y-113059577D01*
X63650943Y-113100501D01*
X63650946Y-113100501D01*
X63816653Y-113100501D01*
X63816669Y-113100500D01*
X68655500Y-113100500D01*
X68722539Y-113120185D01*
X68768294Y-113172989D01*
X68779500Y-113224500D01*
X68779500Y-113989903D01*
X68759815Y-114056942D01*
X68743181Y-114077584D01*
X65097584Y-117723181D01*
X65036261Y-117756666D01*
X65009903Y-117759500D01*
X62966116Y-117759500D01*
X62899077Y-117739815D01*
X62853322Y-117687011D01*
X62852560Y-117685311D01*
X62834172Y-117643391D01*
X62698166Y-117435217D01*
X62676557Y-117411744D01*
X62529744Y-117252262D01*
X62333509Y-117099526D01*
X62333507Y-117099525D01*
X62333506Y-117099524D01*
X62114811Y-116981172D01*
X62114802Y-116981169D01*
X61879616Y-116900429D01*
X61634335Y-116859500D01*
X61385665Y-116859500D01*
X61140383Y-116900429D01*
X60905197Y-116981169D01*
X60905188Y-116981172D01*
X60686493Y-117099524D01*
X60490257Y-117252261D01*
X60321833Y-117435217D01*
X60185826Y-117643393D01*
X60085936Y-117871118D01*
X60024892Y-118112175D01*
X60024890Y-118112187D01*
X60004357Y-118359994D01*
X60004357Y-118360005D01*
X60024890Y-118607812D01*
X60024892Y-118607824D01*
X60085936Y-118848881D01*
X60185826Y-119076606D01*
X60321833Y-119284782D01*
X60321836Y-119284785D01*
X60490256Y-119467738D01*
X60686491Y-119620474D01*
X60905190Y-119738828D01*
X61140386Y-119819571D01*
X61385665Y-119860500D01*
X61634335Y-119860500D01*
X61879614Y-119819571D01*
X62114810Y-119738828D01*
X62333509Y-119620474D01*
X62529744Y-119467738D01*
X62698164Y-119284785D01*
X62834173Y-119076607D01*
X62852560Y-119034689D01*
X62897517Y-118981204D01*
X62964253Y-118960514D01*
X62966116Y-118960500D01*
X65223331Y-118960500D01*
X65223347Y-118960501D01*
X65230943Y-118960501D01*
X65389054Y-118960501D01*
X65389057Y-118960501D01*
X65541785Y-118919577D01*
X65591904Y-118890639D01*
X65678716Y-118840520D01*
X65790520Y-118728716D01*
X65790520Y-118728714D01*
X65800728Y-118718507D01*
X65800730Y-118718504D01*
X69748713Y-114770521D01*
X69748716Y-114770520D01*
X69860520Y-114658716D01*
X69910639Y-114571904D01*
X69939577Y-114521785D01*
X69980500Y-114369058D01*
X69980500Y-114210943D01*
X69980500Y-112420943D01*
X69980500Y-111300097D01*
X70000185Y-111233058D01*
X70016819Y-111212416D01*
X70062416Y-111166819D01*
X70123739Y-111133334D01*
X70150097Y-111130500D01*
X78532355Y-111130500D01*
X78599394Y-111150185D01*
X78645149Y-111202989D01*
X78655883Y-111243693D01*
X78673907Y-111449714D01*
X78673909Y-111449724D01*
X78730990Y-111662755D01*
X78730995Y-111662769D01*
X78824203Y-111862654D01*
X78824207Y-111862662D01*
X78950712Y-112043330D01*
X79106669Y-112199287D01*
X79287337Y-112325792D01*
X79287339Y-112325793D01*
X79287342Y-112325795D01*
X79407603Y-112381873D01*
X79487230Y-112419004D01*
X79487232Y-112419004D01*
X79487237Y-112419007D01*
X79700280Y-112476092D01*
X79857222Y-112489822D01*
X79919998Y-112495315D01*
X79920000Y-112495315D01*
X79920002Y-112495315D01*
X79974930Y-112490509D01*
X80139720Y-112476092D01*
X80352763Y-112419007D01*
X80552658Y-112325795D01*
X80733329Y-112199288D01*
X80889288Y-112043329D01*
X81015795Y-111862658D01*
X81109007Y-111662763D01*
X81166092Y-111449720D01*
X81184117Y-111243693D01*
X81185315Y-111230001D01*
X81185315Y-111229998D01*
X88655187Y-111229998D01*
X88655187Y-111230001D01*
X88674401Y-111449626D01*
X88674402Y-111449634D01*
X88731463Y-111662587D01*
X88731466Y-111662593D01*
X88824638Y-111862402D01*
X88869694Y-111926750D01*
X89515000Y-111281445D01*
X89515000Y-111283319D01*
X89542600Y-111386324D01*
X89595919Y-111478676D01*
X89671324Y-111554081D01*
X89763676Y-111607400D01*
X89866681Y-111635000D01*
X89868553Y-111635000D01*
X89223247Y-112280304D01*
X89287593Y-112325359D01*
X89487406Y-112418533D01*
X89487412Y-112418536D01*
X89700365Y-112475597D01*
X89700373Y-112475598D01*
X89919998Y-112494813D01*
X89920002Y-112494813D01*
X90139626Y-112475598D01*
X90139634Y-112475597D01*
X90352587Y-112418536D01*
X90352598Y-112418532D01*
X90552402Y-112325362D01*
X90552410Y-112325358D01*
X90616751Y-112280305D01*
X90616751Y-112280304D01*
X89971448Y-111635000D01*
X89973319Y-111635000D01*
X90076324Y-111607400D01*
X90168676Y-111554081D01*
X90244081Y-111478676D01*
X90297400Y-111386324D01*
X90325000Y-111283319D01*
X90325000Y-111281447D01*
X90970304Y-111926751D01*
X90970305Y-111926751D01*
X91015358Y-111862410D01*
X91015362Y-111862402D01*
X91108532Y-111662598D01*
X91108536Y-111662587D01*
X91165597Y-111449634D01*
X91165598Y-111449626D01*
X91184813Y-111230001D01*
X91184813Y-111229998D01*
X91165598Y-111010373D01*
X91165597Y-111010366D01*
X91108533Y-110797404D01*
X91015361Y-110597596D01*
X90970303Y-110533247D01*
X90325000Y-111178551D01*
X90325000Y-111176681D01*
X90297400Y-111073676D01*
X90244081Y-110981324D01*
X90168676Y-110905919D01*
X90076324Y-110852600D01*
X89973319Y-110825000D01*
X89971447Y-110825000D01*
X90616751Y-110179694D01*
X90552402Y-110134638D01*
X90352593Y-110041466D01*
X90352587Y-110041463D01*
X90139634Y-109984402D01*
X90139626Y-109984401D01*
X89920002Y-109965187D01*
X89919998Y-109965187D01*
X89700373Y-109984401D01*
X89700366Y-109984402D01*
X89487404Y-110041466D01*
X89287595Y-110134639D01*
X89287593Y-110134640D01*
X89223248Y-110179695D01*
X89223247Y-110179695D01*
X89868554Y-110825000D01*
X89866681Y-110825000D01*
X89763676Y-110852600D01*
X89671324Y-110905919D01*
X89595919Y-110981324D01*
X89542600Y-111073676D01*
X89515000Y-111176681D01*
X89515000Y-111178552D01*
X88869695Y-110533247D01*
X88869695Y-110533248D01*
X88824640Y-110597593D01*
X88824639Y-110597595D01*
X88731466Y-110797404D01*
X88674402Y-111010366D01*
X88674401Y-111010373D01*
X88655187Y-111229998D01*
X81185315Y-111229998D01*
X81166100Y-111010373D01*
X81166092Y-111010280D01*
X81116446Y-110825000D01*
X81109009Y-110797244D01*
X81109008Y-110797243D01*
X81109007Y-110797237D01*
X81015795Y-110597343D01*
X80889288Y-110416671D01*
X80889286Y-110416668D01*
X80733330Y-110260712D01*
X80552662Y-110134207D01*
X80552654Y-110134203D01*
X80352767Y-110040994D01*
X80352764Y-110040993D01*
X80352479Y-110040916D01*
X80352204Y-110040843D01*
X80351139Y-110040402D01*
X80347677Y-110039142D01*
X80347732Y-110038990D01*
X80322303Y-110028457D01*
X80221786Y-109970424D01*
X80221785Y-109970423D01*
X80221784Y-109970423D01*
X80069057Y-109929500D01*
X69929057Y-109929500D01*
X69770942Y-109929500D01*
X69770940Y-109929500D01*
X69730019Y-109940464D01*
X69730019Y-109940465D01*
X69692751Y-109950451D01*
X69618214Y-109970423D01*
X69618209Y-109970426D01*
X69481290Y-110049475D01*
X69481282Y-110049481D01*
X69220648Y-110310116D01*
X69011286Y-110519478D01*
X69011284Y-110519480D01*
X68955381Y-110575383D01*
X68899478Y-110631285D01*
X68899478Y-110631286D01*
X68887073Y-110652774D01*
X68887071Y-110652778D01*
X68820423Y-110768215D01*
X68779499Y-110920943D01*
X68779499Y-110920945D01*
X68779499Y-111089046D01*
X68779500Y-111089059D01*
X68779500Y-111775500D01*
X68759815Y-111842539D01*
X68707011Y-111888294D01*
X68655500Y-111899500D01*
X64030097Y-111899500D01*
X63963058Y-111879815D01*
X63942416Y-111863181D01*
X63866516Y-111787281D01*
X63833031Y-111725958D01*
X63833992Y-111669159D01*
X63834061Y-111668884D01*
X63834063Y-111668881D01*
X63895108Y-111427821D01*
X63898547Y-111386324D01*
X63915643Y-111180005D01*
X63915643Y-111179994D01*
X63895109Y-110932187D01*
X63895107Y-110932175D01*
X63834063Y-110691118D01*
X63734173Y-110463393D01*
X63598166Y-110255217D01*
X63511694Y-110161284D01*
X63429744Y-110072262D01*
X63237139Y-109922351D01*
X63196328Y-109865643D01*
X63192653Y-109795870D01*
X63227284Y-109735187D01*
X63289226Y-109702860D01*
X63313303Y-109700500D01*
X65433331Y-109700500D01*
X65433347Y-109700501D01*
X65440943Y-109700501D01*
X65599054Y-109700501D01*
X65599057Y-109700501D01*
X65751785Y-109659577D01*
X65801904Y-109630639D01*
X65888716Y-109580520D01*
X66000520Y-109468716D01*
X66000520Y-109468714D01*
X66010728Y-109458507D01*
X66010729Y-109458504D01*
X66852416Y-108616819D01*
X66913739Y-108583334D01*
X66940097Y-108580500D01*
X92723331Y-108580500D01*
X92723347Y-108580501D01*
X92730943Y-108580501D01*
X92889054Y-108580501D01*
X92889057Y-108580501D01*
X93041785Y-108539577D01*
X93111200Y-108499500D01*
X93178716Y-108460520D01*
X93290520Y-108348716D01*
X93290520Y-108348714D01*
X93300724Y-108338511D01*
X93300728Y-108338506D01*
X94488506Y-107150728D01*
X94488511Y-107150724D01*
X94498714Y-107140520D01*
X94498716Y-107140520D01*
X94610520Y-107028716D01*
X94666255Y-106932179D01*
X94689577Y-106891785D01*
X94730501Y-106739057D01*
X94730501Y-106580943D01*
X94730501Y-106573348D01*
X94730500Y-106573330D01*
X94730500Y-101169060D01*
X94730501Y-101169047D01*
X94730501Y-101000944D01*
X94689576Y-100848214D01*
X94689573Y-100848209D01*
X94610524Y-100711290D01*
X94610518Y-100711282D01*
X93486719Y-99587483D01*
X92287589Y-98388354D01*
X92287588Y-98388352D01*
X92168717Y-98269481D01*
X92168716Y-98269480D01*
X92081904Y-98219360D01*
X92081904Y-98219359D01*
X92081900Y-98219358D01*
X92031785Y-98190423D01*
X91879057Y-98149499D01*
X91720943Y-98149499D01*
X91713347Y-98149499D01*
X91713331Y-98149500D01*
X82486670Y-98149500D01*
X82486654Y-98149499D01*
X82479058Y-98149499D01*
X82320943Y-98149499D01*
X82258078Y-98166344D01*
X82168214Y-98190423D01*
X82168209Y-98190426D01*
X82031290Y-98269475D01*
X82031282Y-98269481D01*
X80330045Y-99970718D01*
X80268722Y-100004203D01*
X80210271Y-100002812D01*
X80139725Y-99983909D01*
X80139721Y-99983908D01*
X80139720Y-99983908D01*
X80139719Y-99983907D01*
X80139714Y-99983907D01*
X79920002Y-99964685D01*
X79919998Y-99964685D01*
X79700285Y-99983907D01*
X79700275Y-99983909D01*
X79487244Y-100040990D01*
X79487235Y-100040994D01*
X79287344Y-100134204D01*
X79287342Y-100134205D01*
X79106668Y-100260713D01*
X78950713Y-100416668D01*
X78824205Y-100597342D01*
X78824204Y-100597344D01*
X78730994Y-100797235D01*
X78730990Y-100797244D01*
X78673909Y-101010275D01*
X78673907Y-101010285D01*
X78654685Y-101229998D01*
X78654685Y-101230001D01*
X78673907Y-101449714D01*
X78673909Y-101449724D01*
X78730990Y-101662755D01*
X78730995Y-101662769D01*
X78824203Y-101862654D01*
X78824207Y-101862662D01*
X78950712Y-102043330D01*
X79106669Y-102199287D01*
X79287337Y-102325792D01*
X79287339Y-102325793D01*
X79287342Y-102325795D01*
X79333990Y-102347547D01*
X79487230Y-102419004D01*
X79487232Y-102419004D01*
X79487237Y-102419007D01*
X79700280Y-102476092D01*
X79857222Y-102489822D01*
X79919998Y-102495315D01*
X79920000Y-102495315D01*
X79920002Y-102495315D01*
X79975059Y-102490498D01*
X80139720Y-102476092D01*
X80352763Y-102419007D01*
X80552658Y-102325795D01*
X80733329Y-102199288D01*
X80889288Y-102043329D01*
X81015795Y-101862658D01*
X81109007Y-101662763D01*
X81166092Y-101449720D01*
X81185315Y-101230000D01*
X81166092Y-101010280D01*
X81147187Y-100939726D01*
X81148850Y-100869877D01*
X81179279Y-100819954D01*
X82612417Y-99386819D01*
X82673740Y-99353334D01*
X82700098Y-99350500D01*
X91499903Y-99350500D01*
X91566942Y-99370185D01*
X91587584Y-99386819D01*
X93493181Y-101292416D01*
X93526666Y-101353739D01*
X93529500Y-101380097D01*
X93529500Y-106359903D01*
X93509815Y-106426942D01*
X93493181Y-106447584D01*
X92597584Y-107343181D01*
X92536261Y-107376666D01*
X92509903Y-107379500D01*
X66560942Y-107379500D01*
X66408213Y-107420423D01*
X66378289Y-107437701D01*
X66378288Y-107437701D01*
X66271287Y-107499477D01*
X66271282Y-107499481D01*
X66159478Y-107611286D01*
X65307584Y-108463181D01*
X65246261Y-108496666D01*
X65219903Y-108499500D01*
X63517493Y-108499500D01*
X63450454Y-108479815D01*
X63404699Y-108427011D01*
X63394755Y-108357853D01*
X63423780Y-108294297D01*
X63426431Y-108291659D01*
X63426270Y-108291511D01*
X63429741Y-108287739D01*
X63429744Y-108287738D01*
X63598164Y-108104785D01*
X63734173Y-107896607D01*
X63834063Y-107668881D01*
X63895108Y-107427821D01*
X63899347Y-107376666D01*
X63915643Y-107180005D01*
X63915643Y-107179994D01*
X63895109Y-106932187D01*
X63895107Y-106932178D01*
X63834063Y-106691119D01*
X63821201Y-106661797D01*
X63734173Y-106463393D01*
X63598166Y-106255217D01*
X63509681Y-106159097D01*
X63429744Y-106072262D01*
X63233509Y-105919526D01*
X63233507Y-105919525D01*
X63233506Y-105919524D01*
X63014811Y-105801172D01*
X63014802Y-105801169D01*
X62779616Y-105720429D01*
X62534335Y-105679500D01*
X62285665Y-105679500D01*
X62040382Y-105720429D01*
X62040380Y-105720429D01*
X61934393Y-105756815D01*
X61864595Y-105759965D01*
X61806450Y-105727215D01*
X60786819Y-104707583D01*
X60753334Y-104646260D01*
X60750500Y-104619902D01*
X60750500Y-104506744D01*
X60770185Y-104439705D01*
X60822989Y-104393950D01*
X60892147Y-104384006D01*
X60955703Y-104413031D01*
X60973763Y-104432429D01*
X61052454Y-104537546D01*
X61080882Y-104558827D01*
X61167664Y-104623793D01*
X61167671Y-104623797D01*
X61302517Y-104674091D01*
X61302516Y-104674091D01*
X61309444Y-104674835D01*
X61362127Y-104680500D01*
X63009902Y-104680499D01*
X63076941Y-104700184D01*
X63097583Y-104716818D01*
X63705139Y-105324374D01*
X63705149Y-105324385D01*
X63709479Y-105328715D01*
X63709480Y-105328716D01*
X63821284Y-105440520D01*
X63908095Y-105490639D01*
X63908097Y-105490641D01*
X63942525Y-105510518D01*
X63958215Y-105519577D01*
X64110943Y-105560500D01*
X88534627Y-105560500D01*
X88596624Y-105577111D01*
X88618215Y-105589577D01*
X88770943Y-105630501D01*
X88770946Y-105630501D01*
X88929054Y-105630501D01*
X88929057Y-105630501D01*
X89081785Y-105589577D01*
X89218716Y-105510519D01*
X89330519Y-105398716D01*
X89389078Y-105340157D01*
X89389090Y-105340144D01*
X90400520Y-104328716D01*
X90479577Y-104191784D01*
X90520501Y-104039057D01*
X90520501Y-103880942D01*
X90520501Y-103873347D01*
X90520500Y-103873329D01*
X90520500Y-102614499D01*
X90540185Y-102547460D01*
X90592989Y-102501705D01*
X90644500Y-102490499D01*
X90727871Y-102490499D01*
X90727872Y-102490499D01*
X90787483Y-102484091D01*
X90922331Y-102433796D01*
X91037546Y-102347546D01*
X91123796Y-102232331D01*
X91174091Y-102097483D01*
X91180500Y-102037873D01*
X91180499Y-100422128D01*
X91174091Y-100362517D01*
X91136120Y-100260712D01*
X91123797Y-100227671D01*
X91123793Y-100227664D01*
X91037547Y-100112455D01*
X91037544Y-100112452D01*
X90922335Y-100026206D01*
X90922328Y-100026202D01*
X90787482Y-99975908D01*
X90787483Y-99975908D01*
X90727883Y-99969501D01*
X90727881Y-99969500D01*
X90727873Y-99969500D01*
X90727865Y-99969500D01*
X90234665Y-99969500D01*
X90202572Y-99965275D01*
X90200356Y-99964681D01*
X90069057Y-99929500D01*
X89910943Y-99929500D01*
X89777426Y-99965275D01*
X89745333Y-99969500D01*
X89112129Y-99969500D01*
X89112123Y-99969501D01*
X89052516Y-99975908D01*
X88917671Y-100026202D01*
X88917664Y-100026206D01*
X88802455Y-100112452D01*
X88802452Y-100112455D01*
X88716206Y-100227664D01*
X88716202Y-100227671D01*
X88665908Y-100362517D01*
X88659501Y-100422116D01*
X88659501Y-100422123D01*
X88659500Y-100422135D01*
X88659500Y-102037870D01*
X88659501Y-102037876D01*
X88665908Y-102097483D01*
X88716202Y-102232328D01*
X88716206Y-102232335D01*
X88802452Y-102347544D01*
X88802455Y-102347547D01*
X88917664Y-102433793D01*
X88917671Y-102433797D01*
X88962618Y-102450561D01*
X89052517Y-102484091D01*
X89112127Y-102490500D01*
X89195501Y-102490499D01*
X89262538Y-102510183D01*
X89308294Y-102562986D01*
X89319500Y-102614499D01*
X89319500Y-103659902D01*
X89299815Y-103726941D01*
X89283181Y-103747583D01*
X88707584Y-104323181D01*
X88646261Y-104356666D01*
X88619903Y-104359500D01*
X64490097Y-104359500D01*
X64423058Y-104339815D01*
X64402416Y-104323181D01*
X63946818Y-103867583D01*
X63913333Y-103806260D01*
X63910499Y-103779902D01*
X63910499Y-102132129D01*
X63910498Y-102132123D01*
X63904091Y-102072516D01*
X63853797Y-101937671D01*
X63853793Y-101937664D01*
X63767547Y-101822455D01*
X63767544Y-101822452D01*
X63652335Y-101736206D01*
X63652328Y-101736202D01*
X63517482Y-101685908D01*
X63517483Y-101685908D01*
X63457883Y-101679501D01*
X63457881Y-101679500D01*
X63457873Y-101679500D01*
X63457864Y-101679500D01*
X61362129Y-101679500D01*
X61362123Y-101679501D01*
X61302516Y-101685908D01*
X61167671Y-101736202D01*
X61167664Y-101736206D01*
X61052455Y-101822452D01*
X60973766Y-101927567D01*
X60917832Y-101969437D01*
X60848141Y-101974421D01*
X60786818Y-101940935D01*
X60753334Y-101879612D01*
X60750500Y-101853255D01*
X60750500Y-100200097D01*
X60770185Y-100133058D01*
X60786819Y-100112416D01*
X61632416Y-99266819D01*
X61693739Y-99233334D01*
X61720097Y-99230500D01*
X67400501Y-99230500D01*
X67467540Y-99250185D01*
X67513295Y-99302989D01*
X67524501Y-99354500D01*
X67524501Y-99527876D01*
X67530908Y-99587483D01*
X67581202Y-99722328D01*
X67581206Y-99722335D01*
X67667452Y-99837544D01*
X67667455Y-99837547D01*
X67782664Y-99923793D01*
X67782671Y-99923797D01*
X67917517Y-99974091D01*
X67917516Y-99974091D01*
X67924444Y-99974835D01*
X67977127Y-99980500D01*
X69772872Y-99980499D01*
X69832483Y-99974091D01*
X69967331Y-99923796D01*
X70082546Y-99837546D01*
X70168796Y-99722331D01*
X70217810Y-99590916D01*
X70259681Y-99534984D01*
X70325145Y-99510566D01*
X70393418Y-99525417D01*
X70421673Y-99546569D01*
X70543599Y-99668495D01*
X70640384Y-99736265D01*
X70737165Y-99804032D01*
X70737167Y-99804033D01*
X70737170Y-99804035D01*
X70951337Y-99903903D01*
X71179592Y-99965063D01*
X71356034Y-99980500D01*
X71414999Y-99985659D01*
X71415000Y-99985659D01*
X71415001Y-99985659D01*
X71473966Y-99980500D01*
X71650408Y-99965063D01*
X71878663Y-99903903D01*
X72092830Y-99804035D01*
X72286401Y-99668495D01*
X72453495Y-99501401D01*
X72589035Y-99307830D01*
X72688903Y-99093663D01*
X72750063Y-98865408D01*
X72770659Y-98630000D01*
X72750063Y-98394592D01*
X72688903Y-98166337D01*
X72589035Y-97952171D01*
X72453495Y-97758599D01*
X72453494Y-97758597D01*
X72286402Y-97591506D01*
X72286395Y-97591501D01*
X72092834Y-97455967D01*
X72092830Y-97455965D01*
X71878663Y-97356097D01*
X71878659Y-97356096D01*
X71878655Y-97356094D01*
X71650413Y-97294938D01*
X71650403Y-97294936D01*
X71415001Y-97274341D01*
X71414999Y-97274341D01*
X71179596Y-97294936D01*
X71179583Y-97294939D01*
X71051241Y-97329327D01*
X70981392Y-97327664D01*
X70931468Y-97297233D01*
X69842590Y-96208355D01*
X69842588Y-96208352D01*
X69723717Y-96089481D01*
X69723716Y-96089480D01*
X69636904Y-96039360D01*
X69636904Y-96039359D01*
X69636900Y-96039358D01*
X69586785Y-96010423D01*
X69434057Y-95969499D01*
X69275943Y-95969499D01*
X69268347Y-95969499D01*
X69268331Y-95969500D01*
X57170940Y-95969500D01*
X57130019Y-95980464D01*
X57130019Y-95980465D01*
X57092751Y-95990451D01*
X57018214Y-96010423D01*
X57018209Y-96010426D01*
X56881290Y-96089475D01*
X56881282Y-96089481D01*
X54459481Y-98511282D01*
X54459479Y-98511285D01*
X54409361Y-98598094D01*
X54409359Y-98598096D01*
X54380425Y-98648209D01*
X54380424Y-98648210D01*
X54380423Y-98648215D01*
X54339499Y-98800943D01*
X54339499Y-98800945D01*
X54339499Y-98969046D01*
X54339500Y-98969059D01*
X54339500Y-105933330D01*
X54339499Y-105933348D01*
X54339499Y-106099054D01*
X54339498Y-106099054D01*
X52820500Y-106099054D01*
X52820500Y-95814500D01*
X52840185Y-95747461D01*
X52892989Y-95701706D01*
X52944500Y-95690500D01*
X95865500Y-95690500D01*
X95932539Y-95710185D01*
G37*
%TD.AperFunction*%
%TD*%
M02*
