%TF.GenerationSoftware,KiCad,Pcbnew,8.0.7*%
%TF.CreationDate,2026-10-07T13:15:29+03:00*%
%TF.ProjectId,Assignment_1_Power_Supply,41737369-676e-46d6-956e-745f315f506f,rev?*%
%TF.SameCoordinates,Original*%
%TF.FileFunction,Copper,L1,Top*%
%TF.FilePolarity,Positive*%
%FSLAX46Y46*%
G04 Gerber Fmt 4.6, Leading zero omitted, Abs format (unit mm)*
G04 Created by KiCad (PCBNEW 8.0.7) date 2026-10-07 13:15:29*
%MOMM*%
%LPD*%
G01*
G04 APERTURE LIST*
G04 Aperture macros list*
%AMRoundRect*
0 Rectangle with rounded corners*
0 $1 Rounding radius*
0 $2 $3 $4 $5 $6 $7 $8 $9 X,Y pos of 4 corners*
0 Add a 4 corners polygon primitive as box body*
4,1,4,$2,$3,$4,$5,$6,$7,$8,$9,$2,$3,0*
0 Add four circle primitives for the rounded corners*
1,1,$1+$1,$2,$3*
1,1,$1+$1,$4,$5*
1,1,$1+$1,$6,$7*
1,1,$1+$1,$8,$9*
0 Add four rect primitives between the rounded corners*
20,1,$1+$1,$2,$3,$4,$5,0*
20,1,$1+$1,$4,$5,$6,$7,0*
20,1,$1+$1,$6,$7,$8,$9,0*
20,1,$1+$1,$8,$9,$2,$3,0*%
G04 Aperture macros list end*
%TA.AperFunction,ComponentPad*%
%ADD10R,2.000000X2.000000*%
%TD*%
%TA.AperFunction,ComponentPad*%
%ADD11O,2.000000X2.000000*%
%TD*%
%TA.AperFunction,SMDPad,CuDef*%
%ADD12RoundRect,0.250000X-2.050000X-0.300000X2.050000X-0.300000X2.050000X0.300000X-2.050000X0.300000X0*%
%TD*%
%TA.AperFunction,SMDPad,CuDef*%
%ADD13RoundRect,0.250000X-2.025000X-2.375000X2.025000X-2.375000X2.025000X2.375000X-2.025000X2.375000X0*%
%TD*%
%TA.AperFunction,SMDPad,CuDef*%
%ADD14RoundRect,0.250002X-4.449998X-5.149998X4.449998X-5.149998X4.449998X5.149998X-4.449998X5.149998X0*%
%TD*%
%TA.AperFunction,SMDPad,CuDef*%
%ADD15RoundRect,0.250000X-1.750000X-1.000000X1.750000X-1.000000X1.750000X1.000000X-1.750000X1.000000X0*%
%TD*%
%TA.AperFunction,ComponentPad*%
%ADD16C,2.000000*%
%TD*%
%TA.AperFunction,SMDPad,CuDef*%
%ADD17RoundRect,0.250000X1.000000X-1.750000X1.000000X1.750000X-1.000000X1.750000X-1.000000X-1.750000X0*%
%TD*%
%TA.AperFunction,ComponentPad*%
%ADD18R,1.700000X1.700000*%
%TD*%
%TA.AperFunction,ComponentPad*%
%ADD19O,1.700000X1.700000*%
%TD*%
%TA.AperFunction,ComponentPad*%
%ADD20R,1.520000X1.520000*%
%TD*%
%TA.AperFunction,ComponentPad*%
%ADD21C,1.520000*%
%TD*%
%TA.AperFunction,SMDPad,CuDef*%
%ADD22RoundRect,0.250000X-0.350000X0.850000X-0.350000X-0.850000X0.350000X-0.850000X0.350000X0.850000X0*%
%TD*%
%TA.AperFunction,SMDPad,CuDef*%
%ADD23RoundRect,0.250000X-1.125000X1.275000X-1.125000X-1.275000X1.125000X-1.275000X1.125000X1.275000X0*%
%TD*%
%TA.AperFunction,SMDPad,CuDef*%
%ADD24RoundRect,0.249997X-2.650003X2.950003X-2.650003X-2.950003X2.650003X-2.950003X2.650003X2.950003X0*%
%TD*%
%TA.AperFunction,SMDPad,CuDef*%
%ADD25R,1.000000X2.510000*%
%TD*%
%TA.AperFunction,SMDPad,CuDef*%
%ADD26RoundRect,0.250000X-1.000000X1.750000X-1.000000X-1.750000X1.000000X-1.750000X1.000000X1.750000X0*%
%TD*%
%TA.AperFunction,Conductor*%
%ADD27C,0.200000*%
%TD*%
G04 APERTURE END LIST*
D10*
%TO.P,D1,1,+*%
%TO.N,/12vDC*%
X56430000Y-118360000D03*
D11*
%TO.P,D1,2*%
%TO.N,/GND_12vAC*%
X56430000Y-123440000D03*
%TO.P,D1,3,-*%
%TO.N,/GND*%
X61510000Y-123440000D03*
%TO.P,D1,4*%
%TO.N,/12vAC*%
X61510000Y-118360000D03*
%TD*%
D12*
%TO.P,U1,1,IN*%
%TO.N,/12vDC*%
X80785000Y-138010000D03*
%TO.P,U1,2,GND*%
%TO.N,/GND*%
X80785000Y-140550000D03*
D13*
X87510000Y-137775000D03*
X87510000Y-143325000D03*
D14*
X89935000Y-140550000D03*
D13*
X92360000Y-137775000D03*
X92360000Y-143325000D03*
D12*
%TO.P,U1,3,OUT*%
%TO.N,/5v_OUTPUT*%
X80785000Y-143090000D03*
%TD*%
D15*
%TO.P,C5,1*%
%TO.N,/5v_OUTPUT*%
X81367500Y-126780000D03*
%TO.P,C5,2*%
%TO.N,/GND*%
X87467500Y-126780000D03*
%TD*%
D10*
%TO.P,SW1,1,A*%
%TO.N,/220vAC*%
X62410000Y-103180000D03*
D16*
%TO.P,SW1,2,B*%
%TO.N,/220{slash}12 vAC*%
X62410000Y-107180000D03*
%TO.P,SW1,3,C*%
%TO.N,/12vAC*%
X62410000Y-111180000D03*
%TO.P,SW1,4,A*%
%TO.N,/GND_220vAC*%
X57410000Y-103180000D03*
%TO.P,SW1,5,B*%
%TO.N,/GND_AC*%
X57410000Y-107180000D03*
%TO.P,SW1,6,C*%
%TO.N,/GND_12vAC*%
X57410000Y-111180000D03*
%TD*%
D17*
%TO.P,C2,1*%
%TO.N,/3v3_OUTPUT*%
X84770000Y-157430000D03*
%TO.P,C2,2*%
%TO.N,/GND*%
X84770000Y-151330000D03*
%TD*%
D18*
%TO.P,J1,1,Pin_1*%
%TO.N,/220{slash}12 vAC*%
X68875000Y-98630000D03*
D19*
%TO.P,J1,2,Pin_2*%
%TO.N,/GND_AC*%
X71415000Y-98630000D03*
%TD*%
D20*
%TO.P,T1,1,AA*%
%TO.N,/220vAC*%
X89920000Y-101230000D03*
D21*
%TO.P,T1,2,AB*%
%TO.N,/GND_220vAC*%
X79920000Y-101230000D03*
%TO.P,T1,3,SA*%
%TO.N,/GND_12vAC*%
X89920000Y-111230000D03*
%TO.P,T1,4,SB*%
%TO.N,/12vAC*%
X79920000Y-111230000D03*
%TD*%
D22*
%TO.P,U2,1,GND*%
%TO.N,/GND*%
X61227500Y-148020000D03*
%TO.P,U2,2,VO*%
%TO.N,/3v3_OUTPUT*%
X58947500Y-148020000D03*
D23*
X60472500Y-152645000D03*
X57422500Y-152645000D03*
D24*
X58947500Y-154320000D03*
D23*
X60472500Y-155995000D03*
X57422500Y-155995000D03*
D22*
%TO.P,U2,3,VI*%
%TO.N,/5v_OUTPUT*%
X56667500Y-148020000D03*
%TD*%
D15*
%TO.P,C3,1*%
%TO.N,/3v3_OUTPUT*%
X67597500Y-143950000D03*
%TO.P,C3,2*%
%TO.N,/GND*%
X73697500Y-143950000D03*
%TD*%
D17*
%TO.P,C4,1*%
%TO.N,/5v_OUTPUT*%
X58540000Y-138260000D03*
%TO.P,C4,2*%
%TO.N,/GND*%
X58540000Y-132160000D03*
%TD*%
D25*
%TO.P,J2,1,Pin_1*%
%TO.N,/GND*%
X73550000Y-158085000D03*
%TO.P,J2,2,Pin_2*%
%TO.N,/5v_OUTPUT*%
X71010000Y-154775000D03*
%TO.P,J2,3,Pin_3*%
%TO.N,/3v3_OUTPUT*%
X68470000Y-158085000D03*
%TD*%
D26*
%TO.P,C1,1*%
%TO.N,/12vDC*%
X70530000Y-124987500D03*
%TO.P,C1,2*%
%TO.N,/GND*%
X70530000Y-131087500D03*
%TD*%
D27*
%TO.N,/3v3_OUTPUT*%
X58947500Y-154320000D02*
X58947500Y-148020000D01*
X70385000Y-160000000D02*
X82150000Y-160000000D01*
X68470000Y-158085000D02*
X70385000Y-160000000D01*
X82150000Y-160000000D02*
X83810000Y-158340000D01*
%TO.N,/12vDC*%
X56430000Y-118360000D02*
X56430000Y-115100000D01*
X70530000Y-115450000D02*
X70530000Y-124987500D01*
X76640000Y-124000000D02*
X76640000Y-131450000D01*
X76640000Y-131450000D02*
X79450000Y-134260000D01*
X56950000Y-114580000D02*
X69660000Y-114580000D01*
X70530000Y-124987500D02*
X72147500Y-123370000D01*
X80280000Y-134260000D02*
X80785000Y-134765000D01*
X72147500Y-123370000D02*
X76010000Y-123370000D01*
X76010000Y-123370000D02*
X76640000Y-124000000D01*
X79450000Y-134260000D02*
X80280000Y-134260000D01*
X69660000Y-114580000D02*
X70530000Y-115450000D01*
X80785000Y-134765000D02*
X80785000Y-138010000D01*
X56430000Y-115100000D02*
X56950000Y-114580000D01*
%TO.N,/GND*%
X80785000Y-140550000D02*
X84735000Y-140550000D01*
X84735000Y-140550000D02*
X87510000Y-137775000D01*
%TO.N,/3v3_OUTPUT*%
X64815000Y-158085000D02*
X62725000Y-155995000D01*
X61450000Y-143950000D02*
X60350000Y-145050000D01*
X60350000Y-145050000D02*
X60340000Y-145050000D01*
X60340000Y-145050000D02*
X58947500Y-146442500D01*
X67597500Y-143950000D02*
X61450000Y-143950000D01*
X68470000Y-158085000D02*
X64815000Y-158085000D01*
X62725000Y-155995000D02*
X60472500Y-155995000D01*
X58947500Y-146442500D02*
X58947500Y-148020000D01*
%TO.N,/5v_OUTPUT*%
X71010000Y-139110000D02*
X70160000Y-138260000D01*
X77510000Y-150460000D02*
X80785000Y-147185000D01*
X76580000Y-150460000D02*
X77510000Y-150460000D01*
X81920000Y-148320000D02*
X80785000Y-147185000D01*
X71010000Y-154775000D02*
X71010000Y-139110000D01*
X71010000Y-154775000D02*
X72265000Y-154775000D01*
X95320000Y-148320000D02*
X81920000Y-148320000D01*
X81367500Y-120012500D02*
X81390000Y-119990000D01*
X58540000Y-138260000D02*
X58540000Y-142030000D01*
X95670000Y-147970000D02*
X95320000Y-148320000D01*
X72265000Y-154775000D02*
X76580000Y-150460000D01*
X95670000Y-119990000D02*
X95670000Y-147970000D01*
X58540000Y-142030000D02*
X56667500Y-143902500D01*
X56667500Y-143902500D02*
X56667500Y-148020000D01*
X80785000Y-147185000D02*
X80785000Y-143090000D01*
X81390000Y-119990000D02*
X95670000Y-119990000D01*
X70160000Y-138260000D02*
X58540000Y-138260000D01*
X81367500Y-126780000D02*
X81367500Y-120012500D01*
%TD*%
%TA.AperFunction,Conductor*%
%TO.N,/GND*%
G36*
X95932539Y-95710185D02*
G01*
X95978294Y-95762989D01*
X95989500Y-95814500D01*
X95989500Y-119292326D01*
X95969815Y-119359365D01*
X95917011Y-119405120D01*
X95847853Y-119415064D01*
X95833408Y-119412101D01*
X95749058Y-119389500D01*
X95749057Y-119389500D01*
X81476670Y-119389500D01*
X81476654Y-119389499D01*
X81469058Y-119389499D01*
X81310943Y-119389499D01*
X81158215Y-119430423D01*
X81070501Y-119481065D01*
X81021281Y-119509482D01*
X80886981Y-119643782D01*
X80886980Y-119643784D01*
X80844394Y-119717546D01*
X80807923Y-119780715D01*
X80766999Y-119933443D01*
X80766999Y-119933445D01*
X80766999Y-120101546D01*
X80767000Y-120101559D01*
X80767000Y-124905500D01*
X80747315Y-124972539D01*
X80694511Y-125018294D01*
X80643000Y-125029500D01*
X79567498Y-125029500D01*
X79567481Y-125029501D01*
X79464703Y-125040000D01*
X79464700Y-125040001D01*
X79298168Y-125095185D01*
X79298163Y-125095187D01*
X79148842Y-125187289D01*
X79024789Y-125311342D01*
X78932687Y-125460663D01*
X78932685Y-125460668D01*
X78932615Y-125460880D01*
X78877501Y-125627203D01*
X78877501Y-125627204D01*
X78877500Y-125627204D01*
X78867000Y-125729983D01*
X78867000Y-127830001D01*
X78867001Y-127830018D01*
X78877500Y-127932796D01*
X78877501Y-127932799D01*
X78932615Y-128099119D01*
X78932686Y-128099334D01*
X79024788Y-128248656D01*
X79148844Y-128372712D01*
X79298166Y-128464814D01*
X79464703Y-128519999D01*
X79567491Y-128530500D01*
X83167508Y-128530499D01*
X83270297Y-128519999D01*
X83436834Y-128464814D01*
X83586156Y-128372712D01*
X83710212Y-128248656D01*
X83802314Y-128099334D01*
X83857499Y-127932797D01*
X83868000Y-127830009D01*
X83868000Y-127829986D01*
X84967501Y-127829986D01*
X84977994Y-127932697D01*
X85033141Y-128099119D01*
X85033143Y-128099124D01*
X85125184Y-128248345D01*
X85249154Y-128372315D01*
X85398375Y-128464356D01*
X85398380Y-128464358D01*
X85564802Y-128519505D01*
X85564809Y-128519506D01*
X85667519Y-128529999D01*
X87217499Y-128529999D01*
X87717500Y-128529999D01*
X89267472Y-128529999D01*
X89267486Y-128529998D01*
X89370197Y-128519505D01*
X89536619Y-128464358D01*
X89536624Y-128464356D01*
X89685845Y-128372315D01*
X89809815Y-128248345D01*
X89901856Y-128099124D01*
X89901858Y-128099119D01*
X89957005Y-127932697D01*
X89957006Y-127932690D01*
X89967499Y-127829986D01*
X89967500Y-127829973D01*
X89967500Y-127030000D01*
X87717500Y-127030000D01*
X87717500Y-128529999D01*
X87217499Y-128529999D01*
X87217500Y-128529998D01*
X87217500Y-127030000D01*
X84967501Y-127030000D01*
X84967501Y-127829986D01*
X83868000Y-127829986D01*
X83867999Y-125730013D01*
X84967500Y-125730013D01*
X84967500Y-126530000D01*
X87217500Y-126530000D01*
X87717500Y-126530000D01*
X89967499Y-126530000D01*
X89967499Y-125730028D01*
X89967498Y-125730013D01*
X89957005Y-125627302D01*
X89901858Y-125460880D01*
X89901856Y-125460875D01*
X89809815Y-125311654D01*
X89685845Y-125187684D01*
X89536624Y-125095643D01*
X89536619Y-125095641D01*
X89370197Y-125040494D01*
X89370190Y-125040493D01*
X89267486Y-125030000D01*
X87717500Y-125030000D01*
X87717500Y-126530000D01*
X87217500Y-126530000D01*
X87217500Y-125030000D01*
X85667528Y-125030000D01*
X85667512Y-125030001D01*
X85564802Y-125040494D01*
X85398380Y-125095641D01*
X85398375Y-125095643D01*
X85249154Y-125187684D01*
X85125184Y-125311654D01*
X85033143Y-125460875D01*
X85033141Y-125460880D01*
X84977994Y-125627302D01*
X84977993Y-125627309D01*
X84967500Y-125730013D01*
X83867999Y-125730013D01*
X83867999Y-125729992D01*
X83857499Y-125627203D01*
X83802314Y-125460666D01*
X83710212Y-125311344D01*
X83586156Y-125187288D01*
X83436834Y-125095186D01*
X83270297Y-125040001D01*
X83270295Y-125040000D01*
X83167516Y-125029500D01*
X83167509Y-125029500D01*
X82092000Y-125029500D01*
X82024961Y-125009815D01*
X81979206Y-124957011D01*
X81968000Y-124905500D01*
X81968000Y-120714500D01*
X81987685Y-120647461D01*
X82040489Y-120601706D01*
X82092000Y-120590500D01*
X94945500Y-120590500D01*
X95012539Y-120610185D01*
X95058294Y-120662989D01*
X95069500Y-120714500D01*
X95069500Y-134724477D01*
X95049815Y-134791516D01*
X94997011Y-134837271D01*
X94927853Y-134847215D01*
X94864297Y-134818190D01*
X94857819Y-134812158D01*
X94853345Y-134807684D01*
X94704124Y-134715643D01*
X94704119Y-134715641D01*
X94537697Y-134660494D01*
X94537690Y-134660493D01*
X94434986Y-134650000D01*
X92610000Y-134650000D01*
X92610000Y-146449999D01*
X94434972Y-146449999D01*
X94434986Y-146449998D01*
X94537697Y-146439505D01*
X94704119Y-146384358D01*
X94704124Y-146384356D01*
X94853345Y-146292315D01*
X94857819Y-146287842D01*
X94919142Y-146254357D01*
X94988834Y-146259341D01*
X95044767Y-146301213D01*
X95069184Y-146366677D01*
X95069500Y-146375523D01*
X95069500Y-147595500D01*
X95049815Y-147662539D01*
X94997011Y-147708294D01*
X94945500Y-147719500D01*
X82220097Y-147719500D01*
X82153058Y-147699815D01*
X82132416Y-147683181D01*
X81421819Y-146972584D01*
X81388334Y-146911261D01*
X81385500Y-146884903D01*
X81385500Y-145749986D01*
X84735001Y-145749986D01*
X84745494Y-145852697D01*
X84800641Y-146019119D01*
X84800643Y-146019124D01*
X84892684Y-146168345D01*
X85016654Y-146292315D01*
X85165875Y-146384356D01*
X85165880Y-146384358D01*
X85332302Y-146439505D01*
X85332310Y-146439506D01*
X85416954Y-146448154D01*
X85424263Y-146449999D01*
X85428695Y-146449999D01*
X85441310Y-146450642D01*
X85448462Y-146451373D01*
X85456420Y-146449999D01*
X87259999Y-146449999D01*
X87760000Y-146449999D01*
X89685000Y-146449999D01*
X90185000Y-146449999D01*
X92109999Y-146449999D01*
X92110000Y-146449998D01*
X92110000Y-143575000D01*
X90185000Y-143575000D01*
X90185000Y-146449999D01*
X89685000Y-146449999D01*
X89685000Y-143575000D01*
X87760000Y-143575000D01*
X87760000Y-146449999D01*
X87259999Y-146449999D01*
X87260000Y-146449998D01*
X87260000Y-143575000D01*
X84735001Y-143575000D01*
X84735001Y-145749986D01*
X81385500Y-145749986D01*
X81385500Y-144264499D01*
X81405185Y-144197460D01*
X81457989Y-144151705D01*
X81509500Y-144140499D01*
X82885002Y-144140499D01*
X82885008Y-144140499D01*
X82987797Y-144129999D01*
X83154334Y-144074814D01*
X83303656Y-143982712D01*
X83427712Y-143858656D01*
X83519814Y-143709334D01*
X83574999Y-143542797D01*
X83585500Y-143440009D01*
X83585499Y-143075000D01*
X84735000Y-143075000D01*
X87260000Y-143075000D01*
X87760000Y-143075000D01*
X89685000Y-143075000D01*
X90185000Y-143075000D01*
X92110000Y-143075000D01*
X92110000Y-138025000D01*
X90185000Y-138025000D01*
X90185000Y-143075000D01*
X89685000Y-143075000D01*
X89685000Y-140800000D01*
X87760000Y-140800000D01*
X87760000Y-143075000D01*
X87260000Y-143075000D01*
X87260000Y-140800000D01*
X84735000Y-140800000D01*
X84735000Y-143075000D01*
X83585499Y-143075000D01*
X83585499Y-142739992D01*
X83574999Y-142637203D01*
X83519814Y-142470666D01*
X83427712Y-142321344D01*
X83303656Y-142197288D01*
X83154334Y-142105186D01*
X82987797Y-142050001D01*
X82987795Y-142050000D01*
X82885010Y-142039500D01*
X78684998Y-142039500D01*
X78684981Y-142039501D01*
X78582203Y-142050000D01*
X78582200Y-142050001D01*
X78415668Y-142105185D01*
X78415663Y-142105187D01*
X78266342Y-142197289D01*
X78142289Y-142321342D01*
X78050187Y-142470663D01*
X78050185Y-142470668D01*
X78036979Y-142510521D01*
X77995001Y-142637203D01*
X77995001Y-142637204D01*
X77995000Y-142637204D01*
X77984500Y-142739983D01*
X77984500Y-143440001D01*
X77984501Y-143440019D01*
X77995000Y-143542796D01*
X77995001Y-143542799D01*
X78020781Y-143620596D01*
X78050186Y-143709334D01*
X78142288Y-143858656D01*
X78266344Y-143982712D01*
X78415666Y-144074814D01*
X78582203Y-144129999D01*
X78684991Y-144140500D01*
X80060500Y-144140499D01*
X80127539Y-144160184D01*
X80173294Y-144212987D01*
X80184500Y-144264499D01*
X80184500Y-146884903D01*
X80164815Y-146951942D01*
X80148181Y-146972584D01*
X77297584Y-149823181D01*
X77236261Y-149856666D01*
X77209903Y-149859500D01*
X76666670Y-149859500D01*
X76666654Y-149859499D01*
X76659058Y-149859499D01*
X76500943Y-149859499D01*
X76424579Y-149879961D01*
X76348214Y-149900423D01*
X76348209Y-149900426D01*
X76211290Y-149979475D01*
X76211282Y-149979481D01*
X72222180Y-153968584D01*
X72160857Y-154002069D01*
X72091165Y-153997085D01*
X72035232Y-153955213D01*
X72010815Y-153889749D01*
X72010499Y-153880903D01*
X72010499Y-153472129D01*
X72010498Y-153472123D01*
X72010497Y-153472116D01*
X72004091Y-153412517D01*
X71953796Y-153277669D01*
X71953795Y-153277668D01*
X71953793Y-153277664D01*
X71867547Y-153162455D01*
X71867544Y-153162452D01*
X71752335Y-153076206D01*
X71752328Y-153076202D01*
X71691167Y-153053391D01*
X71635233Y-153011520D01*
X71610816Y-152946056D01*
X71610500Y-152937209D01*
X71610500Y-145800153D01*
X71630185Y-145733114D01*
X71682989Y-145687359D01*
X71752147Y-145677415D01*
X71773506Y-145682448D01*
X71794800Y-145689504D01*
X71794809Y-145689506D01*
X71897519Y-145699999D01*
X73447499Y-145699999D01*
X73947500Y-145699999D01*
X75497472Y-145699999D01*
X75497486Y-145699998D01*
X75600197Y-145689505D01*
X75766619Y-145634358D01*
X75766624Y-145634356D01*
X75915845Y-145542315D01*
X76039815Y-145418345D01*
X76131856Y-145269124D01*
X76131858Y-145269119D01*
X76187005Y-145102697D01*
X76187006Y-145102690D01*
X76197499Y-144999986D01*
X76197500Y-144999973D01*
X76197500Y-144200000D01*
X73947500Y-144200000D01*
X73947500Y-145699999D01*
X73447499Y-145699999D01*
X73447500Y-145699998D01*
X73447500Y-143700000D01*
X73947500Y-143700000D01*
X76197499Y-143700000D01*
X76197499Y-142900028D01*
X76197498Y-142900013D01*
X76187005Y-142797302D01*
X76131858Y-142630880D01*
X76131856Y-142630875D01*
X76039815Y-142481654D01*
X75915845Y-142357684D01*
X75766624Y-142265643D01*
X75766619Y-142265641D01*
X75600197Y-142210494D01*
X75600190Y-142210493D01*
X75497486Y-142200000D01*
X73947500Y-142200000D01*
X73947500Y-143700000D01*
X73447500Y-143700000D01*
X73447500Y-142200000D01*
X71897528Y-142200000D01*
X71897512Y-142200001D01*
X71794801Y-142210494D01*
X71773501Y-142217552D01*
X71703672Y-142219952D01*
X71643631Y-142184219D01*
X71612441Y-142121697D01*
X71610500Y-142099845D01*
X71610500Y-140899986D01*
X77985001Y-140899986D01*
X77995494Y-141002697D01*
X78050641Y-141169119D01*
X78050643Y-141169124D01*
X78142684Y-141318345D01*
X78266654Y-141442315D01*
X78415875Y-141534356D01*
X78415880Y-141534358D01*
X78582302Y-141589505D01*
X78582309Y-141589506D01*
X78685019Y-141599999D01*
X80534999Y-141599999D01*
X81035000Y-141599999D01*
X82884972Y-141599999D01*
X82884986Y-141599998D01*
X82987697Y-141589505D01*
X83154119Y-141534358D01*
X83154124Y-141534356D01*
X83303345Y-141442315D01*
X83427315Y-141318345D01*
X83519356Y-141169124D01*
X83519358Y-141169119D01*
X83574505Y-141002697D01*
X83574506Y-141002690D01*
X83584999Y-140899986D01*
X83585000Y-140899973D01*
X83585000Y-140800000D01*
X81035000Y-140800000D01*
X81035000Y-141599999D01*
X80534999Y-141599999D01*
X80535000Y-141599998D01*
X80535000Y-140800000D01*
X77985001Y-140800000D01*
X77985001Y-140899986D01*
X71610500Y-140899986D01*
X71610500Y-140200013D01*
X77985000Y-140200013D01*
X77985000Y-140300000D01*
X80535000Y-140300000D01*
X81035000Y-140300000D01*
X83584999Y-140300000D01*
X84735000Y-140300000D01*
X87260000Y-140300000D01*
X87760000Y-140300000D01*
X89685000Y-140300000D01*
X89685000Y-138025000D01*
X87760000Y-138025000D01*
X87760000Y-140300000D01*
X87260000Y-140300000D01*
X87260000Y-138025000D01*
X84735000Y-138025000D01*
X84735000Y-140300000D01*
X83584999Y-140300000D01*
X83584999Y-140200028D01*
X83584998Y-140200013D01*
X83574505Y-140097302D01*
X83519358Y-139930880D01*
X83519356Y-139930875D01*
X83427315Y-139781654D01*
X83303345Y-139657684D01*
X83154124Y-139565643D01*
X83154119Y-139565641D01*
X82987697Y-139510494D01*
X82987690Y-139510493D01*
X82884986Y-139500000D01*
X81035000Y-139500000D01*
X81035000Y-140300000D01*
X80535000Y-140300000D01*
X80535000Y-139500000D01*
X78685028Y-139500000D01*
X78685012Y-139500001D01*
X78582302Y-139510494D01*
X78415880Y-139565641D01*
X78415875Y-139565643D01*
X78266654Y-139657684D01*
X78142684Y-139781654D01*
X78050643Y-139930875D01*
X78050641Y-139930880D01*
X77995494Y-140097302D01*
X77995493Y-140097309D01*
X77985000Y-140200013D01*
X71610500Y-140200013D01*
X71610500Y-139199060D01*
X71610501Y-139199047D01*
X71610501Y-139030944D01*
X71600820Y-138994814D01*
X71569577Y-138878216D01*
X71569573Y-138878209D01*
X71490524Y-138741290D01*
X71490518Y-138741282D01*
X70647590Y-137898355D01*
X70647588Y-137898352D01*
X70528717Y-137779481D01*
X70528716Y-137779480D01*
X70441904Y-137729360D01*
X70441904Y-137729359D01*
X70441900Y-137729358D01*
X70391785Y-137700423D01*
X70239057Y-137659499D01*
X70080943Y-137659499D01*
X70073347Y-137659499D01*
X70073331Y-137659500D01*
X60414499Y-137659500D01*
X60347460Y-137639815D01*
X60301705Y-137587011D01*
X60290499Y-137535500D01*
X60290499Y-136459998D01*
X60290498Y-136459981D01*
X60279999Y-136357203D01*
X60279998Y-136357200D01*
X60224814Y-136190666D01*
X60132712Y-136041344D01*
X60008656Y-135917288D01*
X59859334Y-135825186D01*
X59692797Y-135770001D01*
X59692795Y-135770000D01*
X59590010Y-135759500D01*
X57489998Y-135759500D01*
X57489981Y-135759501D01*
X57387203Y-135770000D01*
X57387200Y-135770001D01*
X57220668Y-135825185D01*
X57220663Y-135825187D01*
X57071342Y-135917289D01*
X56947289Y-136041342D01*
X56855187Y-136190663D01*
X56855186Y-136190666D01*
X56800001Y-136357203D01*
X56800001Y-136357204D01*
X56800000Y-136357204D01*
X56789500Y-136459983D01*
X56789500Y-140060001D01*
X56789501Y-140060018D01*
X56800000Y-140162796D01*
X56800001Y-140162799D01*
X56812333Y-140200013D01*
X56855186Y-140329334D01*
X56947288Y-140478656D01*
X57071344Y-140602712D01*
X57220666Y-140694814D01*
X57387203Y-140749999D01*
X57489991Y-140760500D01*
X57815500Y-140760499D01*
X57882539Y-140780183D01*
X57928294Y-140832987D01*
X57939500Y-140884499D01*
X57939500Y-141729902D01*
X57919815Y-141796941D01*
X57903181Y-141817583D01*
X56186981Y-143533782D01*
X56186979Y-143533785D01*
X56136861Y-143620594D01*
X56136859Y-143620596D01*
X56107925Y-143670709D01*
X56107924Y-143670710D01*
X56107923Y-143670715D01*
X56066999Y-143823443D01*
X56066999Y-143823445D01*
X56066999Y-143991546D01*
X56067000Y-143991559D01*
X56067000Y-146374091D01*
X56047315Y-146441130D01*
X56003231Y-146479641D01*
X56004313Y-146481395D01*
X55998167Y-146485185D01*
X55998166Y-146485186D01*
X55913299Y-146537532D01*
X55848842Y-146577289D01*
X55724789Y-146701342D01*
X55632687Y-146850663D01*
X55632685Y-146850668D01*
X55621341Y-146884903D01*
X55577501Y-147017203D01*
X55577501Y-147017204D01*
X55577500Y-147017204D01*
X55567000Y-147119983D01*
X55567000Y-148920001D01*
X55567001Y-148920018D01*
X55577500Y-149022796D01*
X55577501Y-149022799D01*
X55632685Y-149189331D01*
X55632687Y-149189336D01*
X55632745Y-149189430D01*
X55724788Y-149338656D01*
X55848844Y-149462712D01*
X55998166Y-149554814D01*
X56164703Y-149609999D01*
X56267491Y-149620500D01*
X57067508Y-149620499D01*
X57067516Y-149620498D01*
X57067519Y-149620498D01*
X57123802Y-149614748D01*
X57170297Y-149609999D01*
X57336834Y-149554814D01*
X57486156Y-149462712D01*
X57610212Y-149338656D01*
X57701961Y-149189905D01*
X57753909Y-149143181D01*
X57822871Y-149131958D01*
X57886954Y-149159801D01*
X57913039Y-149189906D01*
X57956812Y-149260875D01*
X58004788Y-149338656D01*
X58128844Y-149462712D01*
X58278166Y-149554814D01*
X58278167Y-149554814D01*
X58284313Y-149558605D01*
X58283206Y-149560399D01*
X58327837Y-149599687D01*
X58347000Y-149665908D01*
X58347000Y-150495500D01*
X58327315Y-150562539D01*
X58274511Y-150608294D01*
X58223000Y-150619500D01*
X56247480Y-150619500D01*
X56144698Y-150630001D01*
X55978166Y-150685184D01*
X55978155Y-150685189D01*
X55828846Y-150777285D01*
X55828842Y-150777288D01*
X55704788Y-150901342D01*
X55704785Y-150901346D01*
X55612689Y-151050655D01*
X55612684Y-151050666D01*
X55557501Y-151217198D01*
X55547000Y-151319980D01*
X55547000Y-157320019D01*
X55557501Y-157422801D01*
X55612684Y-157589333D01*
X55612689Y-157589344D01*
X55704785Y-157738653D01*
X55704788Y-157738657D01*
X55828842Y-157862711D01*
X55828846Y-157862714D01*
X55978155Y-157954810D01*
X55978158Y-157954811D01*
X55978164Y-157954815D01*
X56144700Y-158009999D01*
X56247488Y-158020500D01*
X56247491Y-158020500D01*
X56247493Y-158020500D01*
X61647507Y-158020500D01*
X61647512Y-158020500D01*
X61750300Y-158009999D01*
X61916836Y-157954815D01*
X62066157Y-157862712D01*
X62190212Y-157738657D01*
X62282315Y-157589336D01*
X62337499Y-157422800D01*
X62348000Y-157320012D01*
X62348000Y-156766597D01*
X62367685Y-156699558D01*
X62420489Y-156653803D01*
X62489647Y-156643859D01*
X62553203Y-156672884D01*
X62559681Y-156678916D01*
X64330139Y-158449374D01*
X64330149Y-158449385D01*
X64334479Y-158453715D01*
X64334480Y-158453716D01*
X64446284Y-158565520D01*
X64446286Y-158565521D01*
X64446290Y-158565524D01*
X64583209Y-158644573D01*
X64583216Y-158644577D01*
X64695019Y-158674534D01*
X64735942Y-158685500D01*
X64735943Y-158685500D01*
X67345501Y-158685500D01*
X67412540Y-158705185D01*
X67458295Y-158757989D01*
X67469501Y-158809500D01*
X67469501Y-159387876D01*
X67475908Y-159447483D01*
X67526202Y-159582328D01*
X67526206Y-159582335D01*
X67612452Y-159697544D01*
X67612455Y-159697547D01*
X67727664Y-159783793D01*
X67727671Y-159783797D01*
X67862517Y-159834091D01*
X67862516Y-159834091D01*
X67869444Y-159834835D01*
X67922127Y-159840500D01*
X69017872Y-159840499D01*
X69077483Y-159834091D01*
X69212331Y-159783796D01*
X69212334Y-159783793D01*
X69215765Y-159782514D01*
X69285457Y-159777530D01*
X69346780Y-159811015D01*
X69900139Y-160364374D01*
X69900149Y-160364385D01*
X69904479Y-160368715D01*
X69904480Y-160368716D01*
X70016284Y-160480520D01*
X70103095Y-160530639D01*
X70103097Y-160530641D01*
X70141151Y-160552611D01*
X70153215Y-160559577D01*
X70305943Y-160600501D01*
X70305946Y-160600501D01*
X70471653Y-160600501D01*
X70471669Y-160600500D01*
X82063331Y-160600500D01*
X82063347Y-160600501D01*
X82070943Y-160600501D01*
X82229054Y-160600501D01*
X82229057Y-160600501D01*
X82381785Y-160559577D01*
X82431904Y-160530639D01*
X82518716Y-160480520D01*
X82630520Y-160368716D01*
X82630520Y-160368714D01*
X82640728Y-160358507D01*
X82640730Y-160358504D01*
X83185739Y-159813494D01*
X83247060Y-159780011D01*
X83316752Y-159784995D01*
X83338506Y-159795633D01*
X83450666Y-159864814D01*
X83617203Y-159919999D01*
X83719991Y-159930500D01*
X85820008Y-159930499D01*
X85922797Y-159919999D01*
X86089334Y-159864814D01*
X86238656Y-159772712D01*
X86362712Y-159648656D01*
X86454814Y-159499334D01*
X86509999Y-159332797D01*
X86520500Y-159230009D01*
X86520499Y-155629992D01*
X86520120Y-155626286D01*
X86509999Y-155527203D01*
X86509998Y-155527200D01*
X86489175Y-155464360D01*
X86454814Y-155360666D01*
X86362712Y-155211344D01*
X86238656Y-155087288D01*
X86089334Y-154995186D01*
X85922797Y-154940001D01*
X85922795Y-154940000D01*
X85820010Y-154929500D01*
X83719998Y-154929500D01*
X83719981Y-154929501D01*
X83617203Y-154940000D01*
X83617200Y-154940001D01*
X83450668Y-154995185D01*
X83450663Y-154995187D01*
X83301342Y-155087289D01*
X83177289Y-155211342D01*
X83085187Y-155360663D01*
X83085185Y-155360668D01*
X83061395Y-155432461D01*
X83030001Y-155527203D01*
X83030001Y-155527204D01*
X83030000Y-155527204D01*
X83019500Y-155629983D01*
X83019500Y-158229901D01*
X82999815Y-158296940D01*
X82983181Y-158317582D01*
X81937584Y-159363181D01*
X81876261Y-159396666D01*
X81849903Y-159399500D01*
X74674000Y-159399500D01*
X74606961Y-159379815D01*
X74561206Y-159327011D01*
X74550000Y-159275500D01*
X74550000Y-158335000D01*
X72550000Y-158335000D01*
X72550000Y-159275500D01*
X72530315Y-159342539D01*
X72477511Y-159388294D01*
X72426000Y-159399500D01*
X70685097Y-159399500D01*
X70618058Y-159379815D01*
X70597416Y-159363181D01*
X69506818Y-158272583D01*
X69473333Y-158211260D01*
X69470499Y-158184902D01*
X69470499Y-156782155D01*
X72550000Y-156782155D01*
X72550000Y-157835000D01*
X73300000Y-157835000D01*
X73800000Y-157835000D01*
X74550000Y-157835000D01*
X74550000Y-156782172D01*
X74549999Y-156782155D01*
X74543598Y-156722627D01*
X74543596Y-156722620D01*
X74493354Y-156587913D01*
X74493350Y-156587906D01*
X74407190Y-156472812D01*
X74407187Y-156472809D01*
X74292093Y-156386649D01*
X74292086Y-156386645D01*
X74157379Y-156336403D01*
X74157372Y-156336401D01*
X74097844Y-156330000D01*
X73800000Y-156330000D01*
X73800000Y-157835000D01*
X73300000Y-157835000D01*
X73300000Y-156330000D01*
X73002155Y-156330000D01*
X72942627Y-156336401D01*
X72942620Y-156336403D01*
X72807913Y-156386645D01*
X72807906Y-156386649D01*
X72692812Y-156472809D01*
X72692809Y-156472812D01*
X72606649Y-156587906D01*
X72606645Y-156587913D01*
X72556403Y-156722620D01*
X72556401Y-156722627D01*
X72550000Y-156782155D01*
X69470499Y-156782155D01*
X69470499Y-156782129D01*
X69470498Y-156782123D01*
X69470497Y-156782116D01*
X69464091Y-156722517D01*
X69438462Y-156653803D01*
X69413797Y-156587671D01*
X69413793Y-156587664D01*
X69327547Y-156472455D01*
X69327544Y-156472452D01*
X69212335Y-156386206D01*
X69212328Y-156386202D01*
X69077482Y-156335908D01*
X69077483Y-156335908D01*
X69017883Y-156329501D01*
X69017881Y-156329500D01*
X69017873Y-156329500D01*
X69017864Y-156329500D01*
X67922129Y-156329500D01*
X67922123Y-156329501D01*
X67862516Y-156335908D01*
X67727671Y-156386202D01*
X67727664Y-156386206D01*
X67612455Y-156472452D01*
X67612452Y-156472455D01*
X67526206Y-156587664D01*
X67526202Y-156587671D01*
X67475908Y-156722517D01*
X67469501Y-156782116D01*
X67469501Y-156782123D01*
X67469500Y-156782135D01*
X67469500Y-157360500D01*
X67449815Y-157427539D01*
X67397011Y-157473294D01*
X67345500Y-157484500D01*
X65115097Y-157484500D01*
X65048058Y-157464815D01*
X65027416Y-157448181D01*
X63212590Y-155633355D01*
X63212588Y-155633352D01*
X63093717Y-155514481D01*
X63093716Y-155514480D01*
X63006904Y-155464360D01*
X63006904Y-155464359D01*
X63006900Y-155464358D01*
X62956785Y-155435423D01*
X62804057Y-155394499D01*
X62645943Y-155394499D01*
X62638347Y-155394499D01*
X62638331Y-155394500D01*
X62472000Y-155394500D01*
X62404961Y-155374815D01*
X62359206Y-155322011D01*
X62348000Y-155270500D01*
X62348000Y-151319993D01*
X62347999Y-151319980D01*
X62337499Y-151217200D01*
X62282315Y-151050664D01*
X62282311Y-151050658D01*
X62282310Y-151050655D01*
X62190214Y-150901346D01*
X62190211Y-150901342D01*
X62066157Y-150777288D01*
X62066153Y-150777285D01*
X61916844Y-150685189D01*
X61916838Y-150685186D01*
X61916836Y-150685185D01*
X61916833Y-150685184D01*
X61750301Y-150630001D01*
X61647519Y-150619500D01*
X61647512Y-150619500D01*
X59672000Y-150619500D01*
X59604961Y-150599815D01*
X59559206Y-150547011D01*
X59548000Y-150495500D01*
X59548000Y-149665908D01*
X59567685Y-149598869D01*
X59611771Y-149560363D01*
X59610687Y-149558605D01*
X59616832Y-149554814D01*
X59616834Y-149554814D01*
X59766156Y-149462712D01*
X59890212Y-149338656D01*
X59982255Y-149189428D01*
X60034201Y-149142705D01*
X60103164Y-149131482D01*
X60167246Y-149159325D01*
X60193332Y-149189429D01*
X60285184Y-149338345D01*
X60409154Y-149462315D01*
X60558375Y-149554356D01*
X60558380Y-149554358D01*
X60724802Y-149609505D01*
X60724809Y-149609506D01*
X60827519Y-149619999D01*
X60977499Y-149619999D01*
X61477500Y-149619999D01*
X61627472Y-149619999D01*
X61627486Y-149619998D01*
X61730197Y-149609505D01*
X61896619Y-149554358D01*
X61896624Y-149554356D01*
X62045845Y-149462315D01*
X62169815Y-149338345D01*
X62261856Y-149189124D01*
X62261858Y-149189119D01*
X62317005Y-149022697D01*
X62317006Y-149022690D01*
X62327499Y-148919986D01*
X62327500Y-148919973D01*
X62327500Y-148270000D01*
X61477500Y-148270000D01*
X61477500Y-149619999D01*
X60977499Y-149619999D01*
X60977500Y-149619998D01*
X60977500Y-147770000D01*
X61477500Y-147770000D01*
X62327499Y-147770000D01*
X62327499Y-147120028D01*
X62327498Y-147120013D01*
X62317005Y-147017302D01*
X62261858Y-146850880D01*
X62261856Y-146850875D01*
X62169815Y-146701654D01*
X62045845Y-146577684D01*
X61896624Y-146485643D01*
X61896619Y-146485641D01*
X61730197Y-146430494D01*
X61730190Y-146430493D01*
X61627486Y-146420000D01*
X61477500Y-146420000D01*
X61477500Y-147770000D01*
X60977500Y-147770000D01*
X60977500Y-146420000D01*
X60827527Y-146420000D01*
X60827512Y-146420001D01*
X60724802Y-146430494D01*
X60558380Y-146485641D01*
X60558375Y-146485643D01*
X60409154Y-146577684D01*
X60285183Y-146701655D01*
X60285180Y-146701659D01*
X60193331Y-146850570D01*
X60141383Y-146897295D01*
X60072421Y-146908516D01*
X60008339Y-146880673D01*
X59982254Y-146850569D01*
X59890212Y-146701344D01*
X59801732Y-146612864D01*
X59768247Y-146551541D01*
X59773231Y-146481849D01*
X59801732Y-146437502D01*
X60220115Y-146019119D01*
X60683511Y-145555722D01*
X60709187Y-145536020D01*
X60718716Y-145530520D01*
X60830520Y-145418716D01*
X60830520Y-145418714D01*
X60840728Y-145408507D01*
X60840729Y-145408504D01*
X61662416Y-144586819D01*
X61723739Y-144553334D01*
X61750097Y-144550500D01*
X64973001Y-144550500D01*
X65040040Y-144570185D01*
X65085795Y-144622989D01*
X65097001Y-144674500D01*
X65097001Y-145000018D01*
X65107500Y-145102796D01*
X65107501Y-145102799D01*
X65162615Y-145269119D01*
X65162686Y-145269334D01*
X65254788Y-145418656D01*
X65378844Y-145542712D01*
X65528166Y-145634814D01*
X65694703Y-145689999D01*
X65797491Y-145700500D01*
X69397508Y-145700499D01*
X69500297Y-145689999D01*
X69666834Y-145634814D01*
X69816156Y-145542712D01*
X69940212Y-145418656D01*
X70032314Y-145269334D01*
X70087499Y-145102797D01*
X70098000Y-145000009D01*
X70097999Y-142899992D01*
X70087499Y-142797203D01*
X70032314Y-142630666D01*
X69940212Y-142481344D01*
X69816156Y-142357288D01*
X69666834Y-142265186D01*
X69500297Y-142210001D01*
X69500295Y-142210000D01*
X69397510Y-142199500D01*
X65797498Y-142199500D01*
X65797481Y-142199501D01*
X65694703Y-142210000D01*
X65694700Y-142210001D01*
X65528168Y-142265185D01*
X65528163Y-142265187D01*
X65378842Y-142357289D01*
X65254789Y-142481342D01*
X65162687Y-142630663D01*
X65162685Y-142630668D01*
X65134849Y-142714670D01*
X65107501Y-142797203D01*
X65107501Y-142797204D01*
X65107500Y-142797204D01*
X65097000Y-142899983D01*
X65097000Y-143225500D01*
X65077315Y-143292539D01*
X65024511Y-143338294D01*
X64973000Y-143349500D01*
X61536669Y-143349500D01*
X61536653Y-143349499D01*
X61529057Y-143349499D01*
X61370943Y-143349499D01*
X61263587Y-143378265D01*
X61218210Y-143390424D01*
X61218209Y-143390425D01*
X61168096Y-143419359D01*
X61168095Y-143419360D01*
X61132331Y-143440008D01*
X61081285Y-143469479D01*
X61081282Y-143469481D01*
X60969478Y-143581286D01*
X60006489Y-144544274D01*
X59980817Y-144563975D01*
X59971284Y-144569479D01*
X59917775Y-144622989D01*
X59859480Y-144681284D01*
X58466981Y-146073782D01*
X58466979Y-146073785D01*
X58416861Y-146160594D01*
X58416859Y-146160596D01*
X58387925Y-146210709D01*
X58387924Y-146210710D01*
X58387923Y-146210715D01*
X58346999Y-146363443D01*
X58346999Y-146363445D01*
X58346999Y-146374091D01*
X58327314Y-146441130D01*
X58283232Y-146479642D01*
X58284313Y-146481395D01*
X58278167Y-146485185D01*
X58278166Y-146485186D01*
X58193299Y-146537532D01*
X58128842Y-146577289D01*
X58004789Y-146701342D01*
X57913039Y-146850094D01*
X57861091Y-146896818D01*
X57792128Y-146908041D01*
X57728046Y-146880197D01*
X57701961Y-146850094D01*
X57610406Y-146701659D01*
X57610212Y-146701344D01*
X57486156Y-146577288D01*
X57336834Y-146485186D01*
X57336832Y-146485185D01*
X57330687Y-146481395D01*
X57331790Y-146479605D01*
X57287149Y-146440290D01*
X57268000Y-146374091D01*
X57268000Y-144202596D01*
X57287685Y-144135557D01*
X57304314Y-144114920D01*
X58898506Y-142520727D01*
X58898511Y-142520724D01*
X58908714Y-142510520D01*
X58908716Y-142510520D01*
X59020520Y-142398716D01*
X59044438Y-142357288D01*
X59097613Y-142265187D01*
X59097615Y-142265180D01*
X59099577Y-142261785D01*
X59140501Y-142109057D01*
X59140501Y-141950943D01*
X59140501Y-141943348D01*
X59140500Y-141943330D01*
X59140500Y-140884499D01*
X59160185Y-140817460D01*
X59212989Y-140771705D01*
X59264500Y-140760499D01*
X59590002Y-140760499D01*
X59590008Y-140760499D01*
X59692797Y-140749999D01*
X59859334Y-140694814D01*
X60008656Y-140602712D01*
X60132712Y-140478656D01*
X60224814Y-140329334D01*
X60279999Y-140162797D01*
X60290500Y-140060009D01*
X60290500Y-138984500D01*
X60310185Y-138917461D01*
X60362989Y-138871706D01*
X60414500Y-138860500D01*
X69859903Y-138860500D01*
X69926942Y-138880185D01*
X69947584Y-138896819D01*
X70373181Y-139322416D01*
X70406666Y-139383739D01*
X70409500Y-139410097D01*
X70409500Y-152937209D01*
X70389815Y-153004248D01*
X70337011Y-153050003D01*
X70328833Y-153053391D01*
X70267671Y-153076202D01*
X70267664Y-153076206D01*
X70152455Y-153162452D01*
X70152452Y-153162455D01*
X70066206Y-153277664D01*
X70066202Y-153277671D01*
X70015908Y-153412517D01*
X70009501Y-153472116D01*
X70009501Y-153472123D01*
X70009500Y-153472135D01*
X70009500Y-156077870D01*
X70009501Y-156077876D01*
X70015908Y-156137483D01*
X70066202Y-156272328D01*
X70066206Y-156272335D01*
X70152452Y-156387544D01*
X70152455Y-156387547D01*
X70267664Y-156473793D01*
X70267671Y-156473797D01*
X70402517Y-156524091D01*
X70402516Y-156524091D01*
X70409444Y-156524835D01*
X70462127Y-156530500D01*
X71557872Y-156530499D01*
X71617483Y-156524091D01*
X71752331Y-156473796D01*
X71867546Y-156387546D01*
X71953796Y-156272331D01*
X72004091Y-156137483D01*
X72010500Y-156077873D01*
X72010500Y-155499500D01*
X72030185Y-155432461D01*
X72082989Y-155386706D01*
X72134500Y-155375500D01*
X72178331Y-155375500D01*
X72178347Y-155375501D01*
X72185943Y-155375501D01*
X72344054Y-155375501D01*
X72344057Y-155375501D01*
X72496785Y-155334577D01*
X72546904Y-155305639D01*
X72633716Y-155255520D01*
X72745520Y-155143716D01*
X72745520Y-155143714D01*
X72755728Y-155133507D01*
X72755729Y-155133504D01*
X74759248Y-153129986D01*
X83020001Y-153129986D01*
X83030494Y-153232697D01*
X83085641Y-153399119D01*
X83085643Y-153399124D01*
X83177684Y-153548345D01*
X83301654Y-153672315D01*
X83450875Y-153764356D01*
X83450880Y-153764358D01*
X83617302Y-153819505D01*
X83617309Y-153819506D01*
X83720019Y-153829999D01*
X84519999Y-153829999D01*
X85020000Y-153829999D01*
X85819972Y-153829999D01*
X85819986Y-153829998D01*
X85922697Y-153819505D01*
X86089119Y-153764358D01*
X86089124Y-153764356D01*
X86238345Y-153672315D01*
X86362315Y-153548345D01*
X86454356Y-153399124D01*
X86454358Y-153399119D01*
X86509505Y-153232697D01*
X86509506Y-153232690D01*
X86519999Y-153129986D01*
X86520000Y-153129973D01*
X86520000Y-151580000D01*
X85020000Y-151580000D01*
X85020000Y-153829999D01*
X84519999Y-153829999D01*
X84520000Y-153829998D01*
X84520000Y-151580000D01*
X83020001Y-151580000D01*
X83020001Y-153129986D01*
X74759248Y-153129986D01*
X76792417Y-151096819D01*
X76853740Y-151063334D01*
X76880098Y-151060500D01*
X77423331Y-151060500D01*
X77423347Y-151060501D01*
X77430943Y-151060501D01*
X77589054Y-151060501D01*
X77589057Y-151060501D01*
X77741785Y-151019577D01*
X77791904Y-150990639D01*
X77878716Y-150940520D01*
X77990520Y-150828716D01*
X77990520Y-150828714D01*
X78000728Y-150818507D01*
X78000729Y-150818504D01*
X80697322Y-148121912D01*
X80758641Y-148088430D01*
X80828333Y-148093414D01*
X80872680Y-148121915D01*
X81435139Y-148684374D01*
X81435149Y-148684385D01*
X81439479Y-148688715D01*
X81439480Y-148688716D01*
X81551284Y-148800520D01*
X81551286Y-148800521D01*
X81551290Y-148800524D01*
X81688209Y-148879573D01*
X81688216Y-148879577D01*
X81800019Y-148909534D01*
X81840942Y-148920500D01*
X81840943Y-148920500D01*
X83073414Y-148920500D01*
X83140453Y-148940185D01*
X83186208Y-148992989D01*
X83196152Y-149062147D01*
X83178953Y-149109597D01*
X83085643Y-149260875D01*
X83085641Y-149260880D01*
X83030494Y-149427302D01*
X83030493Y-149427309D01*
X83020000Y-149530013D01*
X83020000Y-151080000D01*
X86519999Y-151080000D01*
X86519999Y-149530028D01*
X86519998Y-149530013D01*
X86509505Y-149427302D01*
X86454358Y-149260880D01*
X86454356Y-149260875D01*
X86361047Y-149109597D01*
X86342607Y-149042204D01*
X86363530Y-148975541D01*
X86417172Y-148930771D01*
X86466586Y-148920500D01*
X95233331Y-148920500D01*
X95233347Y-148920501D01*
X95240943Y-148920501D01*
X95399054Y-148920501D01*
X95399057Y-148920501D01*
X95551785Y-148879577D01*
X95601904Y-148850639D01*
X95688716Y-148800520D01*
X95777820Y-148711415D01*
X95839141Y-148677932D01*
X95908833Y-148682916D01*
X95964767Y-148724787D01*
X95989184Y-148790251D01*
X95989500Y-148799098D01*
X95989500Y-161015500D01*
X95969815Y-161082539D01*
X95917011Y-161128294D01*
X95865500Y-161139500D01*
X52944500Y-161139500D01*
X52877461Y-161119815D01*
X52831706Y-161067011D01*
X52820500Y-161015500D01*
X52820500Y-133959986D01*
X56790001Y-133959986D01*
X56800494Y-134062697D01*
X56855641Y-134229119D01*
X56855643Y-134229124D01*
X56947684Y-134378345D01*
X57071654Y-134502315D01*
X57220875Y-134594356D01*
X57220880Y-134594358D01*
X57387302Y-134649505D01*
X57387309Y-134649506D01*
X57490019Y-134659999D01*
X58289999Y-134659999D01*
X58790000Y-134659999D01*
X59589972Y-134659999D01*
X59589986Y-134659998D01*
X59692697Y-134649505D01*
X59859119Y-134594358D01*
X59859124Y-134594356D01*
X60008345Y-134502315D01*
X60132315Y-134378345D01*
X60224356Y-134229124D01*
X60224358Y-134229119D01*
X60279505Y-134062697D01*
X60279506Y-134062690D01*
X60289999Y-133959986D01*
X60290000Y-133959973D01*
X60290000Y-132887486D01*
X68780001Y-132887486D01*
X68790494Y-132990197D01*
X68845641Y-133156619D01*
X68845643Y-133156624D01*
X68937684Y-133305845D01*
X69061654Y-133429815D01*
X69210875Y-133521856D01*
X69210880Y-133521858D01*
X69377302Y-133577005D01*
X69377309Y-133577006D01*
X69480019Y-133587499D01*
X70279999Y-133587499D01*
X70780000Y-133587499D01*
X71579972Y-133587499D01*
X71579986Y-133587498D01*
X71682697Y-133577005D01*
X71849119Y-133521858D01*
X71849124Y-133521856D01*
X71998345Y-133429815D01*
X72122315Y-133305845D01*
X72214356Y-133156624D01*
X72214358Y-133156619D01*
X72269505Y-132990197D01*
X72269506Y-132990190D01*
X72279999Y-132887486D01*
X72280000Y-132887473D01*
X72280000Y-131337500D01*
X70780000Y-131337500D01*
X70780000Y-133587499D01*
X70279999Y-133587499D01*
X70280000Y-133587498D01*
X70280000Y-131337500D01*
X68780001Y-131337500D01*
X68780001Y-132887486D01*
X60290000Y-132887486D01*
X60290000Y-132410000D01*
X58790000Y-132410000D01*
X58790000Y-134659999D01*
X58289999Y-134659999D01*
X58290000Y-134659998D01*
X58290000Y-132410000D01*
X56790001Y-132410000D01*
X56790001Y-133959986D01*
X52820500Y-133959986D01*
X52820500Y-130360013D01*
X56790000Y-130360013D01*
X56790000Y-131910000D01*
X58290000Y-131910000D01*
X58790000Y-131910000D01*
X60289999Y-131910000D01*
X60289999Y-130360028D01*
X60289998Y-130360013D01*
X60279505Y-130257302D01*
X60224358Y-130090880D01*
X60224356Y-130090875D01*
X60132315Y-129941654D01*
X60008345Y-129817684D01*
X59859124Y-129725643D01*
X59859119Y-129725641D01*
X59692697Y-129670494D01*
X59692690Y-129670493D01*
X59589986Y-129660000D01*
X58790000Y-129660000D01*
X58790000Y-131910000D01*
X58290000Y-131910000D01*
X58290000Y-129660000D01*
X57490028Y-129660000D01*
X57490012Y-129660001D01*
X57387302Y-129670494D01*
X57220880Y-129725641D01*
X57220875Y-129725643D01*
X57071654Y-129817684D01*
X56947684Y-129941654D01*
X56855643Y-130090875D01*
X56855641Y-130090880D01*
X56800494Y-130257302D01*
X56800493Y-130257309D01*
X56790000Y-130360013D01*
X52820500Y-130360013D01*
X52820500Y-129287513D01*
X68780000Y-129287513D01*
X68780000Y-130837500D01*
X70280000Y-130837500D01*
X70780000Y-130837500D01*
X72279999Y-130837500D01*
X72279999Y-129287528D01*
X72279998Y-129287513D01*
X72269505Y-129184802D01*
X72214358Y-129018380D01*
X72214356Y-129018375D01*
X72122315Y-128869154D01*
X71998345Y-128745184D01*
X71849124Y-128653143D01*
X71849119Y-128653141D01*
X71682697Y-128597994D01*
X71682690Y-128597993D01*
X71579986Y-128587500D01*
X70780000Y-128587500D01*
X70780000Y-130837500D01*
X70280000Y-130837500D01*
X70280000Y-128587500D01*
X69480028Y-128587500D01*
X69480012Y-128587501D01*
X69377302Y-128597994D01*
X69210880Y-128653141D01*
X69210875Y-128653143D01*
X69061654Y-128745184D01*
X68937684Y-128869154D01*
X68845643Y-129018375D01*
X68845641Y-129018380D01*
X68790494Y-129184802D01*
X68790493Y-129184809D01*
X68780000Y-129287513D01*
X52820500Y-129287513D01*
X52820500Y-123439994D01*
X54924357Y-123439994D01*
X54924357Y-123440005D01*
X54944890Y-123687812D01*
X54944892Y-123687824D01*
X55005936Y-123928881D01*
X55105826Y-124156606D01*
X55241833Y-124364782D01*
X55241836Y-124364785D01*
X55410256Y-124547738D01*
X55606491Y-124700474D01*
X55606493Y-124700475D01*
X55824332Y-124818364D01*
X55825190Y-124818828D01*
X56044141Y-124893994D01*
X56058964Y-124899083D01*
X56060386Y-124899571D01*
X56305665Y-124940500D01*
X56554335Y-124940500D01*
X56799614Y-124899571D01*
X57034810Y-124818828D01*
X57253509Y-124700474D01*
X57449744Y-124547738D01*
X57618164Y-124364785D01*
X57754173Y-124156607D01*
X57854063Y-123928881D01*
X57915108Y-123687821D01*
X57919651Y-123632993D01*
X57935643Y-123440005D01*
X57935643Y-123439994D01*
X57915109Y-123192187D01*
X57915107Y-123192175D01*
X57914556Y-123190000D01*
X60025960Y-123190000D01*
X61076988Y-123190000D01*
X61044075Y-123247007D01*
X61010000Y-123374174D01*
X61010000Y-123505826D01*
X61044075Y-123632993D01*
X61076988Y-123690000D01*
X60025960Y-123690000D01*
X60086411Y-123928716D01*
X60186267Y-124156367D01*
X60322232Y-124364478D01*
X60490592Y-124547364D01*
X60490602Y-124547373D01*
X60686762Y-124700051D01*
X60686771Y-124700057D01*
X60905385Y-124818364D01*
X60905396Y-124818369D01*
X61140507Y-124899083D01*
X61259999Y-124919023D01*
X61260000Y-124919022D01*
X61260000Y-123873012D01*
X61317007Y-123905925D01*
X61444174Y-123940000D01*
X61575826Y-123940000D01*
X61702993Y-123905925D01*
X61760000Y-123873012D01*
X61760000Y-124919023D01*
X61879492Y-124899083D01*
X62114603Y-124818369D01*
X62114614Y-124818364D01*
X62333228Y-124700057D01*
X62333237Y-124700051D01*
X62529397Y-124547373D01*
X62529407Y-124547364D01*
X62697767Y-124364478D01*
X62833732Y-124156367D01*
X62933588Y-123928716D01*
X62994040Y-123690000D01*
X61943012Y-123690000D01*
X61975925Y-123632993D01*
X62010000Y-123505826D01*
X62010000Y-123374174D01*
X61975925Y-123247007D01*
X61943012Y-123190000D01*
X62994040Y-123190000D01*
X62933588Y-122951283D01*
X62833732Y-122723632D01*
X62697767Y-122515521D01*
X62529407Y-122332635D01*
X62529397Y-122332626D01*
X62333237Y-122179948D01*
X62333228Y-122179942D01*
X62114614Y-122061635D01*
X62114603Y-122061630D01*
X61879492Y-121980916D01*
X61760000Y-121960976D01*
X61760000Y-123006988D01*
X61702993Y-122974075D01*
X61575826Y-122940000D01*
X61444174Y-122940000D01*
X61317007Y-122974075D01*
X61260000Y-123006988D01*
X61260000Y-121960976D01*
X61259999Y-121960976D01*
X61140507Y-121980916D01*
X60905396Y-122061630D01*
X60905385Y-122061635D01*
X60686771Y-122179942D01*
X60686762Y-122179948D01*
X60490602Y-122332626D01*
X60490592Y-122332635D01*
X60322232Y-122515521D01*
X60186267Y-122723632D01*
X60086411Y-122951283D01*
X60025960Y-123190000D01*
X57914556Y-123190000D01*
X57854063Y-122951118D01*
X57754173Y-122723393D01*
X57618166Y-122515217D01*
X57525459Y-122414511D01*
X57449744Y-122332262D01*
X57253509Y-122179526D01*
X57253507Y-122179525D01*
X57253506Y-122179524D01*
X57034811Y-122061172D01*
X57034802Y-122061169D01*
X56799616Y-121980429D01*
X56554335Y-121939500D01*
X56305665Y-121939500D01*
X56060383Y-121980429D01*
X55825197Y-122061169D01*
X55825188Y-122061172D01*
X55606493Y-122179524D01*
X55410257Y-122332261D01*
X55241833Y-122515217D01*
X55105826Y-122723393D01*
X55005936Y-122951118D01*
X54944892Y-123192175D01*
X54944890Y-123192187D01*
X54924357Y-123439994D01*
X52820500Y-123439994D01*
X52820500Y-117312135D01*
X54929500Y-117312135D01*
X54929500Y-119407870D01*
X54929501Y-119407876D01*
X54935908Y-119467483D01*
X54986202Y-119602328D01*
X54986206Y-119602335D01*
X55072452Y-119717544D01*
X55072455Y-119717547D01*
X55187664Y-119803793D01*
X55187671Y-119803797D01*
X55322517Y-119854091D01*
X55322516Y-119854091D01*
X55329444Y-119854835D01*
X55382127Y-119860500D01*
X57477872Y-119860499D01*
X57537483Y-119854091D01*
X57672331Y-119803796D01*
X57787546Y-119717546D01*
X57873796Y-119602331D01*
X57924091Y-119467483D01*
X57930500Y-119407873D01*
X57930499Y-118359994D01*
X60004357Y-118359994D01*
X60004357Y-118360005D01*
X60024890Y-118607812D01*
X60024892Y-118607824D01*
X60085936Y-118848881D01*
X60185826Y-119076606D01*
X60321833Y-119284782D01*
X60321836Y-119284785D01*
X60490256Y-119467738D01*
X60686491Y-119620474D01*
X60905190Y-119738828D01*
X61140386Y-119819571D01*
X61385665Y-119860500D01*
X61634335Y-119860500D01*
X61879614Y-119819571D01*
X62114810Y-119738828D01*
X62333509Y-119620474D01*
X62529744Y-119467738D01*
X62698164Y-119284785D01*
X62834173Y-119076607D01*
X62934063Y-118848881D01*
X62995108Y-118607821D01*
X63015643Y-118360000D01*
X62995108Y-118112179D01*
X62934063Y-117871119D01*
X62834173Y-117643393D01*
X62698166Y-117435217D01*
X62676557Y-117411744D01*
X62529744Y-117252262D01*
X62333509Y-117099526D01*
X62333507Y-117099525D01*
X62333506Y-117099524D01*
X62114811Y-116981172D01*
X62114802Y-116981169D01*
X61879616Y-116900429D01*
X61634335Y-116859500D01*
X61385665Y-116859500D01*
X61140383Y-116900429D01*
X60905197Y-116981169D01*
X60905188Y-116981172D01*
X60686493Y-117099524D01*
X60490257Y-117252261D01*
X60321833Y-117435217D01*
X60185826Y-117643393D01*
X60085936Y-117871118D01*
X60024892Y-118112175D01*
X60024890Y-118112187D01*
X60004357Y-118359994D01*
X57930499Y-118359994D01*
X57930499Y-117312128D01*
X57924091Y-117252517D01*
X57873796Y-117117669D01*
X57873795Y-117117668D01*
X57873793Y-117117664D01*
X57787547Y-117002455D01*
X57787544Y-117002452D01*
X57672335Y-116916206D01*
X57672328Y-116916202D01*
X57537482Y-116865908D01*
X57537483Y-116865908D01*
X57477883Y-116859501D01*
X57477881Y-116859500D01*
X57477873Y-116859500D01*
X57477865Y-116859500D01*
X57154500Y-116859500D01*
X57087461Y-116839815D01*
X57041706Y-116787011D01*
X57030500Y-116735500D01*
X57030500Y-115400097D01*
X57050185Y-115333058D01*
X57066819Y-115312416D01*
X57162416Y-115216819D01*
X57223739Y-115183334D01*
X57250097Y-115180500D01*
X69359903Y-115180500D01*
X69426942Y-115200185D01*
X69447584Y-115216819D01*
X69893181Y-115662416D01*
X69926666Y-115723739D01*
X69929500Y-115750097D01*
X69929500Y-122363000D01*
X69909815Y-122430039D01*
X69857011Y-122475794D01*
X69805500Y-122487000D01*
X69479999Y-122487000D01*
X69479980Y-122487001D01*
X69377203Y-122497500D01*
X69377200Y-122497501D01*
X69210668Y-122552685D01*
X69210663Y-122552687D01*
X69061342Y-122644789D01*
X68937289Y-122768842D01*
X68845187Y-122918163D01*
X68845185Y-122918168D01*
X68817643Y-123001284D01*
X68790001Y-123084703D01*
X68790001Y-123084704D01*
X68790000Y-123084704D01*
X68779500Y-123187483D01*
X68779500Y-126787501D01*
X68779501Y-126787518D01*
X68790000Y-126890296D01*
X68790001Y-126890299D01*
X68836294Y-127030000D01*
X68845186Y-127056834D01*
X68937288Y-127206156D01*
X69061344Y-127330212D01*
X69210666Y-127422314D01*
X69377203Y-127477499D01*
X69479991Y-127488000D01*
X71580008Y-127487999D01*
X71682797Y-127477499D01*
X71849334Y-127422314D01*
X71998656Y-127330212D01*
X72122712Y-127206156D01*
X72214814Y-127056834D01*
X72269999Y-126890297D01*
X72280500Y-126787509D01*
X72280499Y-124137597D01*
X72300184Y-124070559D01*
X72316819Y-124049916D01*
X72359918Y-124006818D01*
X72421241Y-123973333D01*
X72447598Y-123970500D01*
X75709903Y-123970500D01*
X75776942Y-123990185D01*
X75797584Y-124006819D01*
X76003181Y-124212416D01*
X76036666Y-124273739D01*
X76039500Y-124300097D01*
X76039500Y-131363330D01*
X76039499Y-131363348D01*
X76039499Y-131529054D01*
X76039498Y-131529054D01*
X76080423Y-131681785D01*
X76109358Y-131731900D01*
X76109359Y-131731904D01*
X76109360Y-131731904D01*
X76159479Y-131818714D01*
X76159481Y-131818717D01*
X76278349Y-131937585D01*
X76278355Y-131937590D01*
X78965139Y-134624374D01*
X78965149Y-134624385D01*
X78969479Y-134628715D01*
X78969480Y-134628716D01*
X79081284Y-134740520D01*
X79168095Y-134790639D01*
X79168097Y-134790641D01*
X79205365Y-134812158D01*
X79218215Y-134819577D01*
X79370943Y-134860500D01*
X79979903Y-134860500D01*
X80046942Y-134880185D01*
X80067584Y-134896819D01*
X80148181Y-134977416D01*
X80181666Y-135038739D01*
X80184500Y-135065097D01*
X80184500Y-136835500D01*
X80164815Y-136902539D01*
X80112011Y-136948294D01*
X80060500Y-136959500D01*
X78684998Y-136959500D01*
X78684981Y-136959501D01*
X78582203Y-136970000D01*
X78582200Y-136970001D01*
X78415668Y-137025185D01*
X78415663Y-137025187D01*
X78266342Y-137117289D01*
X78142289Y-137241342D01*
X78050187Y-137390663D01*
X78050186Y-137390666D01*
X77995001Y-137557203D01*
X77995001Y-137557204D01*
X77995000Y-137557204D01*
X77984500Y-137659983D01*
X77984500Y-138360001D01*
X77984501Y-138360019D01*
X77995000Y-138462796D01*
X77995001Y-138462799D01*
X78050185Y-138629331D01*
X78050186Y-138629334D01*
X78142288Y-138778656D01*
X78266344Y-138902712D01*
X78415666Y-138994814D01*
X78582203Y-139049999D01*
X78684991Y-139060500D01*
X82885008Y-139060499D01*
X82987797Y-139049999D01*
X83154334Y-138994814D01*
X83303656Y-138902712D01*
X83427712Y-138778656D01*
X83519814Y-138629334D01*
X83574999Y-138462797D01*
X83585500Y-138360009D01*
X83585499Y-137659992D01*
X83574999Y-137557203D01*
X83519814Y-137390666D01*
X83427712Y-137241344D01*
X83303656Y-137117288D01*
X83154334Y-137025186D01*
X82987797Y-136970001D01*
X82987795Y-136970000D01*
X82885016Y-136959500D01*
X82885009Y-136959500D01*
X81509500Y-136959500D01*
X81442461Y-136939815D01*
X81396706Y-136887011D01*
X81385500Y-136835500D01*
X81385500Y-135350015D01*
X84735000Y-135350015D01*
X84735000Y-137525000D01*
X87260000Y-137525000D01*
X87760000Y-137525000D01*
X89685000Y-137525000D01*
X90185000Y-137525000D01*
X92110000Y-137525000D01*
X92110000Y-134650000D01*
X90185000Y-134650000D01*
X90185000Y-137525000D01*
X89685000Y-137525000D01*
X89685000Y-134650000D01*
X87760000Y-134650000D01*
X87760000Y-137525000D01*
X87260000Y-137525000D01*
X87260000Y-134650000D01*
X85435028Y-134650000D01*
X85435012Y-134650001D01*
X85332302Y-134660494D01*
X85165880Y-134715641D01*
X85165875Y-134715643D01*
X85016654Y-134807684D01*
X84892684Y-134931654D01*
X84800643Y-135080875D01*
X84800641Y-135080880D01*
X84745494Y-135247301D01*
X84745023Y-135250221D01*
X84744852Y-135253589D01*
X84735000Y-135350015D01*
X81385500Y-135350015D01*
X81385500Y-134854059D01*
X81385501Y-134854046D01*
X81385501Y-134685945D01*
X81385501Y-134685943D01*
X81344577Y-134533215D01*
X81315639Y-134483095D01*
X81265520Y-134396284D01*
X81153716Y-134284480D01*
X81153715Y-134284479D01*
X81149385Y-134280149D01*
X81149374Y-134280139D01*
X80767590Y-133898355D01*
X80767588Y-133898352D01*
X80648717Y-133779481D01*
X80648716Y-133779480D01*
X80561904Y-133729360D01*
X80561904Y-133729359D01*
X80561900Y-133729358D01*
X80511785Y-133700423D01*
X80359057Y-133659499D01*
X80200943Y-133659499D01*
X80193347Y-133659499D01*
X80193331Y-133659500D01*
X79750097Y-133659500D01*
X79683058Y-133639815D01*
X79662416Y-133623181D01*
X77276819Y-131237584D01*
X77243334Y-131176261D01*
X77240500Y-131149903D01*
X77240500Y-124089060D01*
X77240501Y-124089047D01*
X77240501Y-123920944D01*
X77199576Y-123768214D01*
X77199573Y-123768209D01*
X77120524Y-123631290D01*
X77120518Y-123631282D01*
X76497590Y-123008355D01*
X76497588Y-123008352D01*
X76378717Y-122889481D01*
X76378716Y-122889480D01*
X76291904Y-122839360D01*
X76291904Y-122839359D01*
X76291900Y-122839358D01*
X76241785Y-122810423D01*
X76089057Y-122769499D01*
X75930943Y-122769499D01*
X75923347Y-122769499D01*
X75923331Y-122769500D01*
X72174730Y-122769500D01*
X72107691Y-122749815D01*
X72087049Y-122733181D01*
X71998657Y-122644789D01*
X71998656Y-122644788D01*
X71849334Y-122552686D01*
X71682797Y-122497501D01*
X71682795Y-122497500D01*
X71580016Y-122487000D01*
X71580009Y-122487000D01*
X71254500Y-122487000D01*
X71187461Y-122467315D01*
X71141706Y-122414511D01*
X71130500Y-122363000D01*
X71130500Y-115539060D01*
X71130501Y-115539047D01*
X71130501Y-115370945D01*
X71130501Y-115370943D01*
X71089577Y-115218215D01*
X71010520Y-115081284D01*
X70147589Y-114218354D01*
X70147588Y-114218352D01*
X70028717Y-114099481D01*
X70028716Y-114099480D01*
X69941904Y-114049360D01*
X69941904Y-114049359D01*
X69941900Y-114049358D01*
X69891785Y-114020423D01*
X69739057Y-113979499D01*
X69580943Y-113979499D01*
X69573347Y-113979499D01*
X69573331Y-113979500D01*
X57029057Y-113979500D01*
X56870943Y-113979500D01*
X56718215Y-114020423D01*
X56718214Y-114020423D01*
X56718212Y-114020424D01*
X56718209Y-114020425D01*
X56668096Y-114049359D01*
X56668095Y-114049360D01*
X56624689Y-114074420D01*
X56581285Y-114099479D01*
X56581282Y-114099481D01*
X55949481Y-114731282D01*
X55949477Y-114731287D01*
X55903004Y-114811783D01*
X55903003Y-114811782D01*
X55870424Y-114868211D01*
X55870423Y-114868215D01*
X55829499Y-115020943D01*
X55829499Y-115020945D01*
X55829499Y-115189046D01*
X55829500Y-115189059D01*
X55829500Y-116735500D01*
X55809815Y-116802539D01*
X55757011Y-116848294D01*
X55705500Y-116859500D01*
X55382130Y-116859500D01*
X55382123Y-116859501D01*
X55322516Y-116865908D01*
X55187671Y-116916202D01*
X55187664Y-116916206D01*
X55072455Y-117002452D01*
X55072452Y-117002455D01*
X54986206Y-117117664D01*
X54986202Y-117117671D01*
X54935908Y-117252517D01*
X54929501Y-117312116D01*
X54929501Y-117312123D01*
X54929500Y-117312135D01*
X52820500Y-117312135D01*
X52820500Y-111179994D01*
X55904357Y-111179994D01*
X55904357Y-111180005D01*
X55924890Y-111427812D01*
X55924892Y-111427824D01*
X55985936Y-111668881D01*
X56085826Y-111896606D01*
X56221833Y-112104782D01*
X56221836Y-112104785D01*
X56390256Y-112287738D01*
X56586491Y-112440474D01*
X56805190Y-112558828D01*
X57040386Y-112639571D01*
X57285665Y-112680500D01*
X57534335Y-112680500D01*
X57779614Y-112639571D01*
X58014810Y-112558828D01*
X58233509Y-112440474D01*
X58429744Y-112287738D01*
X58598164Y-112104785D01*
X58734173Y-111896607D01*
X58834063Y-111668881D01*
X58895108Y-111427821D01*
X58915643Y-111180000D01*
X58915643Y-111179994D01*
X60904357Y-111179994D01*
X60904357Y-111180005D01*
X60924890Y-111427812D01*
X60924892Y-111427824D01*
X60985936Y-111668881D01*
X61085826Y-111896606D01*
X61221833Y-112104782D01*
X61221836Y-112104785D01*
X61390256Y-112287738D01*
X61586491Y-112440474D01*
X61805190Y-112558828D01*
X62040386Y-112639571D01*
X62285665Y-112680500D01*
X62534335Y-112680500D01*
X62779614Y-112639571D01*
X63014810Y-112558828D01*
X63233509Y-112440474D01*
X63429744Y-112287738D01*
X63598164Y-112104785D01*
X63734173Y-111896607D01*
X63834063Y-111668881D01*
X63895108Y-111427821D01*
X63911500Y-111229998D01*
X78654685Y-111229998D01*
X78654685Y-111230001D01*
X78673907Y-111449714D01*
X78673909Y-111449724D01*
X78730990Y-111662755D01*
X78730995Y-111662769D01*
X78824203Y-111862654D01*
X78824207Y-111862662D01*
X78950712Y-112043330D01*
X79106669Y-112199287D01*
X79287337Y-112325792D01*
X79287339Y-112325793D01*
X79287342Y-112325795D01*
X79407603Y-112381873D01*
X79487230Y-112419004D01*
X79487232Y-112419004D01*
X79487237Y-112419007D01*
X79700280Y-112476092D01*
X79857222Y-112489822D01*
X79919998Y-112495315D01*
X79920000Y-112495315D01*
X79920002Y-112495315D01*
X79974930Y-112490509D01*
X80139720Y-112476092D01*
X80352763Y-112419007D01*
X80552658Y-112325795D01*
X80733329Y-112199288D01*
X80889288Y-112043329D01*
X81015795Y-111862658D01*
X81109007Y-111662763D01*
X81166092Y-111449720D01*
X81185315Y-111230000D01*
X81185315Y-111229998D01*
X88654685Y-111229998D01*
X88654685Y-111230001D01*
X88673907Y-111449714D01*
X88673909Y-111449724D01*
X88730990Y-111662755D01*
X88730995Y-111662769D01*
X88824203Y-111862654D01*
X88824207Y-111862662D01*
X88950712Y-112043330D01*
X89106669Y-112199287D01*
X89287337Y-112325792D01*
X89287339Y-112325793D01*
X89287342Y-112325795D01*
X89407603Y-112381873D01*
X89487230Y-112419004D01*
X89487232Y-112419004D01*
X89487237Y-112419007D01*
X89700280Y-112476092D01*
X89857222Y-112489822D01*
X89919998Y-112495315D01*
X89920000Y-112495315D01*
X89920002Y-112495315D01*
X89974930Y-112490509D01*
X90139720Y-112476092D01*
X90352763Y-112419007D01*
X90552658Y-112325795D01*
X90733329Y-112199288D01*
X90889288Y-112043329D01*
X91015795Y-111862658D01*
X91109007Y-111662763D01*
X91166092Y-111449720D01*
X91185315Y-111230000D01*
X91166092Y-111010280D01*
X91109007Y-110797237D01*
X91015795Y-110597343D01*
X90889288Y-110416671D01*
X90889286Y-110416668D01*
X90733330Y-110260712D01*
X90552662Y-110134207D01*
X90552654Y-110134203D01*
X90352769Y-110040995D01*
X90352755Y-110040990D01*
X90139724Y-109983909D01*
X90139722Y-109983908D01*
X90139720Y-109983908D01*
X90139718Y-109983907D01*
X90139714Y-109983907D01*
X89920002Y-109964685D01*
X89919998Y-109964685D01*
X89700285Y-109983907D01*
X89700275Y-109983909D01*
X89487244Y-110040990D01*
X89487235Y-110040994D01*
X89287344Y-110134204D01*
X89287342Y-110134205D01*
X89106668Y-110260713D01*
X88950713Y-110416668D01*
X88824205Y-110597342D01*
X88824204Y-110597344D01*
X88730994Y-110797235D01*
X88730990Y-110797244D01*
X88673909Y-111010275D01*
X88673907Y-111010285D01*
X88654685Y-111229998D01*
X81185315Y-111229998D01*
X81166092Y-111010280D01*
X81109007Y-110797237D01*
X81015795Y-110597343D01*
X80889288Y-110416671D01*
X80889286Y-110416668D01*
X80733330Y-110260712D01*
X80552662Y-110134207D01*
X80552654Y-110134203D01*
X80352769Y-110040995D01*
X80352755Y-110040990D01*
X80139724Y-109983909D01*
X80139722Y-109983908D01*
X80139720Y-109983908D01*
X80139718Y-109983907D01*
X80139714Y-109983907D01*
X79920002Y-109964685D01*
X79919998Y-109964685D01*
X79700285Y-109983907D01*
X79700275Y-109983909D01*
X79487244Y-110040990D01*
X79487235Y-110040994D01*
X79287344Y-110134204D01*
X79287342Y-110134205D01*
X79106668Y-110260713D01*
X78950713Y-110416668D01*
X78824205Y-110597342D01*
X78824204Y-110597344D01*
X78730994Y-110797235D01*
X78730990Y-110797244D01*
X78673909Y-111010275D01*
X78673907Y-111010285D01*
X78654685Y-111229998D01*
X63911500Y-111229998D01*
X63915643Y-111180000D01*
X63901579Y-111010275D01*
X63895109Y-110932187D01*
X63895107Y-110932175D01*
X63834063Y-110691118D01*
X63734173Y-110463393D01*
X63598166Y-110255217D01*
X63486768Y-110134207D01*
X63429744Y-110072262D01*
X63233509Y-109919526D01*
X63233507Y-109919525D01*
X63233506Y-109919524D01*
X63014811Y-109801172D01*
X63014802Y-109801169D01*
X62779616Y-109720429D01*
X62534335Y-109679500D01*
X62285665Y-109679500D01*
X62040383Y-109720429D01*
X61805197Y-109801169D01*
X61805188Y-109801172D01*
X61586493Y-109919524D01*
X61390257Y-110072261D01*
X61221833Y-110255217D01*
X61085826Y-110463393D01*
X60985936Y-110691118D01*
X60924892Y-110932175D01*
X60924890Y-110932187D01*
X60904357Y-111179994D01*
X58915643Y-111179994D01*
X58901579Y-111010275D01*
X58895109Y-110932187D01*
X58895107Y-110932175D01*
X58834063Y-110691118D01*
X58734173Y-110463393D01*
X58598166Y-110255217D01*
X58486768Y-110134207D01*
X58429744Y-110072262D01*
X58233509Y-109919526D01*
X58233507Y-109919525D01*
X58233506Y-109919524D01*
X58014811Y-109801172D01*
X58014802Y-109801169D01*
X57779616Y-109720429D01*
X57534335Y-109679500D01*
X57285665Y-109679500D01*
X57040383Y-109720429D01*
X56805197Y-109801169D01*
X56805188Y-109801172D01*
X56586493Y-109919524D01*
X56390257Y-110072261D01*
X56221833Y-110255217D01*
X56085826Y-110463393D01*
X55985936Y-110691118D01*
X55924892Y-110932175D01*
X55924890Y-110932187D01*
X55904357Y-111179994D01*
X52820500Y-111179994D01*
X52820500Y-107179994D01*
X55904357Y-107179994D01*
X55904357Y-107180005D01*
X55924890Y-107427812D01*
X55924892Y-107427824D01*
X55985936Y-107668881D01*
X56085826Y-107896606D01*
X56221833Y-108104782D01*
X56221836Y-108104785D01*
X56390256Y-108287738D01*
X56586491Y-108440474D01*
X56805190Y-108558828D01*
X57040386Y-108639571D01*
X57285665Y-108680500D01*
X57534335Y-108680500D01*
X57779614Y-108639571D01*
X58014810Y-108558828D01*
X58233509Y-108440474D01*
X58429744Y-108287738D01*
X58598164Y-108104785D01*
X58734173Y-107896607D01*
X58834063Y-107668881D01*
X58895108Y-107427821D01*
X58915643Y-107180000D01*
X58915643Y-107179994D01*
X60904357Y-107179994D01*
X60904357Y-107180005D01*
X60924890Y-107427812D01*
X60924892Y-107427824D01*
X60985936Y-107668881D01*
X61085826Y-107896606D01*
X61221833Y-108104782D01*
X61221836Y-108104785D01*
X61390256Y-108287738D01*
X61586491Y-108440474D01*
X61805190Y-108558828D01*
X62040386Y-108639571D01*
X62285665Y-108680500D01*
X62534335Y-108680500D01*
X62779614Y-108639571D01*
X63014810Y-108558828D01*
X63233509Y-108440474D01*
X63429744Y-108287738D01*
X63598164Y-108104785D01*
X63734173Y-107896607D01*
X63834063Y-107668881D01*
X63895108Y-107427821D01*
X63915643Y-107180000D01*
X63895108Y-106932179D01*
X63834063Y-106691119D01*
X63734173Y-106463393D01*
X63598166Y-106255217D01*
X63576557Y-106231744D01*
X63429744Y-106072262D01*
X63233509Y-105919526D01*
X63233507Y-105919525D01*
X63233506Y-105919524D01*
X63014811Y-105801172D01*
X63014802Y-105801169D01*
X62779616Y-105720429D01*
X62534335Y-105679500D01*
X62285665Y-105679500D01*
X62040383Y-105720429D01*
X61805197Y-105801169D01*
X61805188Y-105801172D01*
X61586493Y-105919524D01*
X61390257Y-106072261D01*
X61221833Y-106255217D01*
X61085826Y-106463393D01*
X60985936Y-106691118D01*
X60924892Y-106932175D01*
X60924890Y-106932187D01*
X60904357Y-107179994D01*
X58915643Y-107179994D01*
X58895108Y-106932179D01*
X58834063Y-106691119D01*
X58734173Y-106463393D01*
X58598166Y-106255217D01*
X58576557Y-106231744D01*
X58429744Y-106072262D01*
X58233509Y-105919526D01*
X58233507Y-105919525D01*
X58233506Y-105919524D01*
X58014811Y-105801172D01*
X58014802Y-105801169D01*
X57779616Y-105720429D01*
X57534335Y-105679500D01*
X57285665Y-105679500D01*
X57040383Y-105720429D01*
X56805197Y-105801169D01*
X56805188Y-105801172D01*
X56586493Y-105919524D01*
X56390257Y-106072261D01*
X56221833Y-106255217D01*
X56085826Y-106463393D01*
X55985936Y-106691118D01*
X55924892Y-106932175D01*
X55924890Y-106932187D01*
X55904357Y-107179994D01*
X52820500Y-107179994D01*
X52820500Y-103179994D01*
X55904357Y-103179994D01*
X55904357Y-103180005D01*
X55924890Y-103427812D01*
X55924892Y-103427824D01*
X55985936Y-103668881D01*
X56085826Y-103896606D01*
X56221833Y-104104782D01*
X56221836Y-104104785D01*
X56390256Y-104287738D01*
X56586491Y-104440474D01*
X56805190Y-104558828D01*
X57040386Y-104639571D01*
X57285665Y-104680500D01*
X57534335Y-104680500D01*
X57779614Y-104639571D01*
X58014810Y-104558828D01*
X58233509Y-104440474D01*
X58429744Y-104287738D01*
X58598164Y-104104785D01*
X58734173Y-103896607D01*
X58834063Y-103668881D01*
X58895108Y-103427821D01*
X58915643Y-103180000D01*
X58895108Y-102932179D01*
X58834063Y-102691119D01*
X58734173Y-102463393D01*
X58714836Y-102433796D01*
X58598166Y-102255217D01*
X58576557Y-102231744D01*
X58484861Y-102132135D01*
X60909500Y-102132135D01*
X60909500Y-104227870D01*
X60909501Y-104227876D01*
X60915908Y-104287483D01*
X60966202Y-104422328D01*
X60966206Y-104422335D01*
X61052452Y-104537544D01*
X61052455Y-104537547D01*
X61167664Y-104623793D01*
X61167671Y-104623797D01*
X61302517Y-104674091D01*
X61302516Y-104674091D01*
X61309444Y-104674835D01*
X61362127Y-104680500D01*
X63457872Y-104680499D01*
X63517483Y-104674091D01*
X63652331Y-104623796D01*
X63767546Y-104537546D01*
X63853796Y-104422331D01*
X63904091Y-104287483D01*
X63910500Y-104227873D01*
X63910499Y-102132128D01*
X63904091Y-102072517D01*
X63891173Y-102037883D01*
X63853797Y-101937671D01*
X63853793Y-101937664D01*
X63767547Y-101822455D01*
X63767544Y-101822452D01*
X63652335Y-101736206D01*
X63652328Y-101736202D01*
X63517482Y-101685908D01*
X63517483Y-101685908D01*
X63457883Y-101679501D01*
X63457881Y-101679500D01*
X63457873Y-101679500D01*
X63457864Y-101679500D01*
X61362129Y-101679500D01*
X61362123Y-101679501D01*
X61302516Y-101685908D01*
X61167671Y-101736202D01*
X61167664Y-101736206D01*
X61052455Y-101822452D01*
X61052452Y-101822455D01*
X60966206Y-101937664D01*
X60966202Y-101937671D01*
X60915908Y-102072517D01*
X60909501Y-102132116D01*
X60909501Y-102132123D01*
X60909500Y-102132135D01*
X58484861Y-102132135D01*
X58429744Y-102072262D01*
X58233509Y-101919526D01*
X58233507Y-101919525D01*
X58233506Y-101919524D01*
X58014811Y-101801172D01*
X58014802Y-101801169D01*
X57779616Y-101720429D01*
X57534335Y-101679500D01*
X57285665Y-101679500D01*
X57040383Y-101720429D01*
X56805197Y-101801169D01*
X56805188Y-101801172D01*
X56586493Y-101919524D01*
X56390257Y-102072261D01*
X56221833Y-102255217D01*
X56085826Y-102463393D01*
X55985936Y-102691118D01*
X55924892Y-102932175D01*
X55924890Y-102932187D01*
X55904357Y-103179994D01*
X52820500Y-103179994D01*
X52820500Y-101229998D01*
X78654685Y-101229998D01*
X78654685Y-101230001D01*
X78673907Y-101449714D01*
X78673909Y-101449724D01*
X78730990Y-101662755D01*
X78730995Y-101662769D01*
X78824203Y-101862654D01*
X78824207Y-101862662D01*
X78950712Y-102043330D01*
X79106669Y-102199287D01*
X79287337Y-102325792D01*
X79287339Y-102325793D01*
X79287342Y-102325795D01*
X79333990Y-102347547D01*
X79487230Y-102419004D01*
X79487232Y-102419004D01*
X79487237Y-102419007D01*
X79700280Y-102476092D01*
X79857222Y-102489822D01*
X79919998Y-102495315D01*
X79920000Y-102495315D01*
X79920002Y-102495315D01*
X79975059Y-102490498D01*
X80139720Y-102476092D01*
X80352763Y-102419007D01*
X80552658Y-102325795D01*
X80733329Y-102199288D01*
X80889288Y-102043329D01*
X81015795Y-101862658D01*
X81109007Y-101662763D01*
X81166092Y-101449720D01*
X81185315Y-101230000D01*
X81166092Y-101010280D01*
X81109007Y-100797237D01*
X81015795Y-100597343D01*
X80893114Y-100422135D01*
X88659500Y-100422135D01*
X88659500Y-102037870D01*
X88659501Y-102037876D01*
X88665908Y-102097483D01*
X88716202Y-102232328D01*
X88716206Y-102232335D01*
X88802452Y-102347544D01*
X88802455Y-102347547D01*
X88917664Y-102433793D01*
X88917671Y-102433797D01*
X89052517Y-102484091D01*
X89052516Y-102484091D01*
X89059444Y-102484835D01*
X89112127Y-102490500D01*
X90727872Y-102490499D01*
X90787483Y-102484091D01*
X90922331Y-102433796D01*
X91037546Y-102347546D01*
X91123796Y-102232331D01*
X91174091Y-102097483D01*
X91180500Y-102037873D01*
X91180499Y-100422128D01*
X91174091Y-100362517D01*
X91136120Y-100260712D01*
X91123797Y-100227671D01*
X91123793Y-100227664D01*
X91037547Y-100112455D01*
X91037544Y-100112452D01*
X90922335Y-100026206D01*
X90922328Y-100026202D01*
X90787482Y-99975908D01*
X90787483Y-99975908D01*
X90727883Y-99969501D01*
X90727881Y-99969500D01*
X90727873Y-99969500D01*
X90727864Y-99969500D01*
X89112129Y-99969500D01*
X89112123Y-99969501D01*
X89052516Y-99975908D01*
X88917671Y-100026202D01*
X88917664Y-100026206D01*
X88802455Y-100112452D01*
X88802452Y-100112455D01*
X88716206Y-100227664D01*
X88716202Y-100227671D01*
X88665908Y-100362517D01*
X88659501Y-100422116D01*
X88659501Y-100422123D01*
X88659500Y-100422135D01*
X80893114Y-100422135D01*
X80889288Y-100416671D01*
X80889286Y-100416668D01*
X80733330Y-100260712D01*
X80552662Y-100134207D01*
X80552654Y-100134203D01*
X80352769Y-100040995D01*
X80352755Y-100040990D01*
X80139724Y-99983909D01*
X80139722Y-99983908D01*
X80139720Y-99983908D01*
X80139718Y-99983907D01*
X80139714Y-99983907D01*
X79920002Y-99964685D01*
X79919998Y-99964685D01*
X79700285Y-99983907D01*
X79700275Y-99983909D01*
X79487244Y-100040990D01*
X79487235Y-100040994D01*
X79287344Y-100134204D01*
X79287342Y-100134205D01*
X79106668Y-100260713D01*
X78950713Y-100416668D01*
X78824205Y-100597342D01*
X78824204Y-100597344D01*
X78730994Y-100797235D01*
X78730990Y-100797244D01*
X78673909Y-101010275D01*
X78673907Y-101010285D01*
X78654685Y-101229998D01*
X52820500Y-101229998D01*
X52820500Y-97732135D01*
X67524500Y-97732135D01*
X67524500Y-99527870D01*
X67524501Y-99527876D01*
X67530908Y-99587483D01*
X67581202Y-99722328D01*
X67581206Y-99722335D01*
X67667452Y-99837544D01*
X67667455Y-99837547D01*
X67782664Y-99923793D01*
X67782671Y-99923797D01*
X67917517Y-99974091D01*
X67917516Y-99974091D01*
X67924444Y-99974835D01*
X67977127Y-99980500D01*
X69772872Y-99980499D01*
X69832483Y-99974091D01*
X69967331Y-99923796D01*
X70082546Y-99837546D01*
X70168796Y-99722331D01*
X70217810Y-99590916D01*
X70259681Y-99534984D01*
X70325145Y-99510566D01*
X70393418Y-99525417D01*
X70421673Y-99546569D01*
X70543599Y-99668495D01*
X70640384Y-99736265D01*
X70737165Y-99804032D01*
X70737167Y-99804033D01*
X70737170Y-99804035D01*
X70951337Y-99903903D01*
X71179592Y-99965063D01*
X71356034Y-99980500D01*
X71414999Y-99985659D01*
X71415000Y-99985659D01*
X71415001Y-99985659D01*
X71473966Y-99980500D01*
X71650408Y-99965063D01*
X71878663Y-99903903D01*
X72092830Y-99804035D01*
X72286401Y-99668495D01*
X72453495Y-99501401D01*
X72589035Y-99307830D01*
X72688903Y-99093663D01*
X72750063Y-98865408D01*
X72770659Y-98630000D01*
X72750063Y-98394592D01*
X72688903Y-98166337D01*
X72589035Y-97952171D01*
X72453495Y-97758599D01*
X72453494Y-97758597D01*
X72286402Y-97591506D01*
X72286395Y-97591501D01*
X72092834Y-97455967D01*
X72092830Y-97455965D01*
X72092828Y-97455964D01*
X71878663Y-97356097D01*
X71878659Y-97356096D01*
X71878655Y-97356094D01*
X71650413Y-97294938D01*
X71650403Y-97294936D01*
X71415001Y-97274341D01*
X71414999Y-97274341D01*
X71179596Y-97294936D01*
X71179586Y-97294938D01*
X70951344Y-97356094D01*
X70951335Y-97356098D01*
X70737171Y-97455964D01*
X70737169Y-97455965D01*
X70543600Y-97591503D01*
X70421673Y-97713430D01*
X70360350Y-97746914D01*
X70290658Y-97741930D01*
X70234725Y-97700058D01*
X70217810Y-97669081D01*
X70168797Y-97537671D01*
X70168793Y-97537664D01*
X70082547Y-97422455D01*
X70082544Y-97422452D01*
X69967335Y-97336206D01*
X69967328Y-97336202D01*
X69832482Y-97285908D01*
X69832483Y-97285908D01*
X69772883Y-97279501D01*
X69772881Y-97279500D01*
X69772873Y-97279500D01*
X69772864Y-97279500D01*
X67977129Y-97279500D01*
X67977123Y-97279501D01*
X67917516Y-97285908D01*
X67782671Y-97336202D01*
X67782664Y-97336206D01*
X67667455Y-97422452D01*
X67667452Y-97422455D01*
X67581206Y-97537664D01*
X67581202Y-97537671D01*
X67530908Y-97672517D01*
X67524501Y-97732116D01*
X67524500Y-97732135D01*
X52820500Y-97732135D01*
X52820500Y-95814500D01*
X52840185Y-95747461D01*
X52892989Y-95701706D01*
X52944500Y-95690500D01*
X95865500Y-95690500D01*
X95932539Y-95710185D01*
G37*
%TD.AperFunction*%
%TD*%
M02*
